<svg width="16" height="16" viewBox="0 0 16 16" fill="none" xmlns="http://www.w3.org/2000/svg">
<path d="M13.5999 8V15H2.3999V8" stroke="black" stroke-width="1.5" stroke-linecap="round" stroke-linejoin="round"/>
<path d="M15 4.5H1V8H15V4.5Z" stroke="black" stroke-width="1.5" stroke-linecap="round" stroke-linejoin="round"/>
<path d="M8 15V4.5" stroke="black" stroke-width="1.5" stroke-linecap="round" stroke-linejoin="round"/>
<path d="M8.0001 4.5H4.8501C4.38597 4.5 3.94085 4.31563 3.61266 3.98744C3.28447 3.65925 3.1001 3.21413 3.1001 2.75C3.1001 2.28587 3.28447 1.84075 3.61266 1.51256C3.94085 1.18437 4.38597 1 4.8501 1C7.3001 1 8.0001 4.5 8.0001 4.5Z" stroke="black" stroke-width="1.5" stroke-linecap="round" stroke-linejoin="round"/>
<path d="M8 4.5H11.15C11.6141 4.5 12.0592 4.31563 12.3874 3.98744C12.7156 3.65925 12.9 3.21413 12.9 2.75C12.9 2.28587 12.7156 1.84075 12.3874 1.51256C12.0592 1.18437 11.6141 1 11.15 1C8.7 1 8 4.5 8 4.5Z" stroke="black" stroke-width="1.5" stroke-linecap="round" stroke-linejoin="round"/>
</svg>
