<svg width="182" height="125" viewBox="0 0 182 125" fill="none" xmlns="http://www.w3.org/2000/svg">
<g clip-path="url(#clip0_199_2886)">
<path fill-rule="evenodd" clip-rule="evenodd" d="M70.799 117.966C76.7147 113.111 81.9505 108.813 81.4124 99.4634C81.4124 79.7167 82.7853 63.1295 89.4051 49.8145L94.953 45.395L102.382 49.8145C102.67 50.5745 102.98 51.3435 103.302 52.1458L103.303 52.1467L103.303 52.1471C106.202 59.3545 110.186 69.2587 110.186 99.4634C110.186 110.42 118.914 116.158 125.522 120.502C127.644 121.896 129.548 123.148 130.873 124.382C129.087 124.758 124.818 125.285 122.034 124.382C119.251 123.479 115.483 124.006 113.947 124.382C113.89 124.367 113.818 124.348 113.73 124.325C105.824 116.865 102.978 104.312 103.522 99.4975C105.936 78.1236 103.667 74.0404 101.561 73.0404C101.595 73.0769 101.63 73.1138 101.666 73.1518C102.677 74.2243 104.506 76.1636 101.561 93.7121C99.1404 108.137 102.829 117.645 106.305 122.489C104.934 122.28 104.691 122.66 104.423 123.08C104.043 123.676 103.612 124.351 99.8427 123.536C98.9729 123.348 98.0581 123.206 97.1221 123.103C97.2271 122.173 97.3935 121.219 97.5718 120.196C98.3705 115.615 99.4064 109.675 96.2202 98.5231C92.3711 85.0513 95.24 64.4662 98.2893 59.1814C98.3395 59.0974 98.3891 59.0154 98.4384 58.9356C98.3886 59.0135 98.3389 59.0955 98.2893 59.1814C94.9474 64.7829 89.413 79.9881 94.0189 97.8649C97.5276 111.483 95.4318 121.024 93.633 122.883C89.6571 122.796 85.8204 123.208 83.8572 123.536C83.8358 123.529 83.8142 123.522 83.7922 123.516C86.9949 120.79 92.6883 111.696 90.0633 95.7962C87.5205 80.3939 89.1001 78.6918 89.9735 77.7505C89.9919 77.7306 90.0101 77.711 90.0278 77.6916C90.0398 77.6787 90.0517 77.6657 90.0633 77.6527C88.2453 78.5304 86.2863 82.1143 88.3708 100.874C88.8368 105.068 86.4209 115.948 79.7138 122.513C77.2481 122.048 74.7211 121.858 73.8898 122.689C73.1549 123.424 72.7569 123.166 72.2877 122.863C71.6763 122.467 70.944 121.993 69.1882 123.536C66.7058 125.717 64.518 125.009 63.7344 124.382C65.9829 121.919 68.4448 119.899 70.799 117.966Z" fill="#2C2C2C"/>
<path d="M47.0644 37.3082C76.4071 37.3082 86.9026 47.213 88.7206 51.1309L102.449 50.1906C98.5314 43.0756 83.7557 27.7922 53.7407 31.1021C23.7257 34.412 11.7084 24.3318 9.45166 18.8779C9.76511 24.8019 23.3683 37.3082 47.0644 37.3082Z" fill="#2C2C2C"/>
<path d="M144.387 37.362C115.045 37.362 104.549 47.2955 102.731 51.225L89.0024 50.282C92.9204 43.1461 107.696 27.8181 137.711 31.1378C167.726 34.4573 179.743 24.3478 182 18.8779C181.687 24.8193 168.083 37.362 144.387 37.362Z" fill="#2C2C2C"/>
<path d="M62.1093 26.6278C59.8526 30.3139 62.1721 31.298 63.6138 31.3294C61.5765 32.2384 57.3889 33.511 56.9376 31.3294C56.4862 29.1479 57.7348 26.01 58.7242 25.4603C59.5705 24.9902 60.7929 23.6564 59.2884 21.5501C57.4077 18.9172 54.0226 16.5664 55.9972 12.8051C58.3292 8.74292 56.2793 6.78705 54.9629 6.31689C56.4048 6.56764 59.0063 7.93425 57.8779 11.3946C56.4674 15.7201 58.16 17.6007 59.2884 17.8828C60.4167 18.1649 64.9303 22.0203 62.1093 26.6278Z" fill="#2C2C2C"/>
<path d="M4.47464 5.71729C13.1506 11.7569 11.9433 16.956 10.2551 18.8006C6.64683 15.1033 5.94881 11.3209 6.05082 9.8919C5.10456 12.4225 7.43191 17.6424 9.07666 19.2384C5.93226 19.9993 3.00302 14.1729 3.88246 11.2799C4.58603 8.96557 4.5704 6.60719 4.47464 5.71729Z" fill="#85AE59"/>
<path d="M27.7721 10.5496C28.9366 10.4991 29.0391 9.95927 28.9447 9.69566C28.5078 9.18497 27.3025 8.88285 26.7545 8.7956C27.2877 8.6252 28.53 8.98109 29.0846 9.18034C27.9845 7.52632 25.4448 8.25304 24.3125 8.82314C24.9805 9.41966 26.6076 10.6001 27.7721 10.5496Z" fill="#BDD2A6"/>
<path d="M30.0354 20.8541C30.7299 21.6041 31.1487 21.3664 31.2715 21.1537C31.3652 20.5718 30.8834 19.5946 30.6308 19.1786C31.0472 19.4386 31.5141 20.471 31.6954 20.9549C32.1773 19.281 30.2505 17.9952 29.2269 17.5615C29.2072 18.3466 29.3409 20.1041 30.0354 20.8541Z" fill="#85AE59"/>
<path d="M21.5914 14.4614C17.8952 20.1757 20.75 25.9329 22.6393 28.0971C23.8348 28.1471 23.4632 27.0515 23.1279 26.4972C21.4441 24.3025 21.4208 20.8002 21.6198 19.3234C21.9758 23.4427 24.4575 27.5211 25.4488 28.3126C29.0841 30.175 27.8415 18.7734 21.5914 14.4614Z" fill="#BDD2A6"/>
<path d="M18.792 2.24588C21.0489 1.40525 22.8598 2.92056 23.4831 3.7833C23.4163 4.21683 23.0595 3.9901 22.8895 3.82253C22.2413 3.03101 21.019 2.72443 20.4889 2.67008C21.9033 3.1487 22.6706 4.11516 22.8773 4.53857C23.2722 6.00248 19.8589 4.85738 18.792 2.24588Z" fill="#BDD2A6"/>
<path d="M37.9729 15.4509C36.6516 16.9383 35.9824 16.7461 35.813 16.4641C36.0268 15.3989 37.0676 14.5005 37.5612 14.1845C36.2288 14.6798 35.592 15.784 35.4401 16.2741C34.7267 14.079 37.5208 13.342 39.0932 12.6753C39.2704 12.9807 39.2942 13.9635 37.9729 15.4509Z" fill="#85AE59"/>
<path d="M20.2283 32.7721C24.2043 32.8945 24.5934 31.1111 24.291 30.2041C25.6124 31.1548 27.7695 33.3154 25.8277 34.3535C23.8857 35.3917 20.6559 35.7055 19.9127 35.2815C19.277 34.9187 17.7449 34.6221 16.1159 36.2887C14.0798 38.3719 12.6544 41.2922 8.67275 41.3712C4.32664 41.3326 2.96432 43.2858 2.82644 44.2673C2.72971 43.2841 3.41246 41.1927 6.91719 40.6922C11.2981 40.0666 12.6721 38.3616 12.6769 37.5623C12.6817 36.763 15.2582 32.6188 20.2283 32.7721Z" fill="#2C2C2C"/>
<path d="M15.0776 31.6295C16.136 32.6161 15.7901 33.207 15.4849 33.3791C14.6537 33.5079 13.2678 32.8205 12.6787 32.4608C13.0425 33.0513 14.5075 33.7178 15.1946 33.9773C12.7997 34.648 10.997 31.9156 10.395 30.4656C11.5148 30.4425 14.0191 30.6427 15.0776 31.6295Z" fill="#BDD2A6"/>
<path d="M16.3242 39.8126C16.2509 37.4053 18.2664 36.1754 19.2834 35.8613C19.6727 36.0635 19.3436 36.3287 19.1305 36.4361C18.1729 36.7968 17.491 37.8563 17.2697 38.341C18.1762 37.1545 19.3374 36.7373 19.8048 36.6771C21.3181 36.7721 19.1398 39.6386 16.3242 39.8126Z" fill="#BDD2A6"/>
<path d="M9.07536 37.0038C10.9663 37.7179 10.9885 38.4273 10.7632 38.6928C9.64147 38.8805 8.42232 38.2176 7.95299 37.8625C8.86596 38.9523 10.1605 39.1541 10.6936 39.1186C8.74818 40.6073 7.13224 38.211 5.97363 36.9553C6.21966 36.6739 7.18445 36.2895 9.07536 37.0038Z" fill="#85AE59"/>
<path d="M10.3685 42.9958C10.5038 43.9672 9.45781 45.0305 8.91787 45.4407C9.54561 43.9886 9.24691 44.6666 9.82855 43.406C10.2938 42.3974 9.67094 42.3794 9.30134 42.4963C7.19812 43.8322 7.11652 46.2742 7.33862 47.3281C11.089 45.8153 10.9212 43.8096 10.3685 42.9958Z" fill="#85AE59"/>
<path d="M164.308 29.2167C160.603 30.6644 160.945 32.4574 161.579 33.173C159.99 32.8172 156.468 33.242 157.176 31.1568C157.834 29.2167 162.348 26.7847 163.613 26.7847C164.345 26.7847 165.866 26.5404 166.71 24.368C167.765 21.653 167.93 18.4075 171.561 16.7722C175.574 15.102 176.06 12.7708 175.802 11.814C176.277 12.6803 176.47 14.872 173.442 16.7077C169.659 19.0024 169.064 21.11 169.373 21.8471C169.682 22.5841 168.939 27.4068 164.308 29.2167Z" fill="#2C2C2C"/>
<path d="M29.722 7.78831C29.1421 6.99735 29.5584 5.56515 29.8392 4.9479C29.9754 6.52388 29.9167 5.78537 30.0026 7.17108C30.0715 8.27965 30.6285 8.00005 30.8984 7.72168C32.1161 5.54803 31.0295 3.35963 30.334 2.53711C27.7502 5.64803 28.8494 7.33414 29.722 7.78831Z" fill="#85AE59"/>
<path d="M70.803 45.4426C71.6002 40.1134 74.5265 40.8219 75.8899 41.8421C74.7115 39.4479 71.8215 35.122 69.6904 36.9726C67.5591 38.8231 66.2558 42.8689 66.7432 44.1399C67.16 45.2269 67.2484 47.4513 64.1982 48.4586C60.3856 49.7175 55.397 49.5973 54.2787 54.7958C53.256 60.5556 49.8175 61.0147 48.2261 60.5242C49.7618 61.3254 53.2502 61.8574 54.9182 57.5769C57.003 52.2261 60.0508 51.5816 61.32 52.1228C62.5893 52.6639 69.8062 52.1038 70.803 45.4426Z" fill="#2C2C2C"/>
<path d="M66.9119 53.9905C66.2554 52.3818 65.4341 52.5767 65.1053 52.8751C64.5963 53.8109 64.7704 55.6985 64.921 56.5253C64.4103 55.8811 64.2944 53.9078 64.3002 53.0017C62.4931 55.5896 64.8046 58.7107 66.1861 59.9476C66.7016 58.6323 67.5686 55.5992 66.9119 53.9905Z" fill="#BDD2A6"/>
<path d="M60.0563 44.7879C60.8907 47.8138 63.2411 48.2772 64.3122 48.1307C63.2039 47.4973 61.7962 45.8581 61.2307 45.1177C62.4499 46.1938 64.236 47.1325 64.9766 47.4672C65.3027 43.6935 61.3663 42.7549 59.3574 42.7573L60.0563 44.7879Z" fill="#85AE59"/>
<path d="M46.024 46.534C48.6397 39.9008 53.9779 38.5815 56.3199 38.7512C53.6987 40.2671 50.1586 43.9906 48.7161 45.6629C51.6956 43.178 55.8994 40.912 57.629 40.0896C57.4035 48.1752 48.4223 50.735 43.96 51.0041L46.024 46.534Z" fill="#85AE59"/>
<path d="M3.21366 22.4133C7.79884 21.0709 10.691 23.3532 11.564 24.6623C9.68442 23.8984 6.25899 23.5556 4.78123 23.4798C7.32074 24.035 10.2477 25.3281 11.3938 25.9051C7.02264 29.1093 1.97662 25.4091 0 23.1584L3.21366 22.4133Z" fill="#85AE59"/>
<path d="M47.5894 55.2234C49.882 56.9062 52.4986 55.6839 53.5203 54.8625C53.5976 54.3327 53.1077 54.4892 52.8531 54.6336C51.8278 55.3637 50.3157 55.3473 49.688 55.2478C51.4815 55.1213 52.7054 54.2223 53.093 53.7886C54.0659 52.1907 49.7408 52.4842 47.5894 55.2234Z" fill="#BDD2A6"/>
<path d="M58.4005 61.0656C57.3002 58.1717 56.2169 58.1068 55.8128 58.4361C55.5322 60.1262 56.5511 62.0009 57.0956 62.7272C55.4269 61.2969 55.1119 59.3283 55.163 58.5228C52.9012 61.4026 56.5678 63.9543 58.4912 65.7635C58.9194 65.4035 59.5009 63.9597 58.4005 61.0656Z" fill="#85AE59"/>
<path d="M27.8032 66.6425C27.6847 64.123 26.7763 64.1444 26.337 64.4702C25.6166 66.0095 25.9551 67.6191 26.2144 68.2314C25.1934 67.0692 25.4838 65.3234 25.7565 64.5958C23.0025 67.35 25.4138 69.373 26.545 70.8572C27.0137 70.5021 27.9217 69.162 27.8032 66.6425Z" fill="#85AE59"/>
<path d="M80.0087 55.1405C84.6374 50.4987 83.82 48.3513 82.8329 47.8579C79.3268 48.7869 76.5944 52.3844 75.6667 54.0672C76.9751 49.6022 80.5009 47.2816 82.1002 46.6793C74.5739 44.8189 72.8388 54.1165 71.02 59.4027C72.0877 59.9162 75.3801 59.7823 80.0087 55.1405Z" fill="#BDD2A6"/>
<path d="M46.694 60.2636C45.8498 59.4816 44.0776 59.8453 43.297 60.125C45.1483 60.4462 44.28 60.3019 45.9133 60.5432C47.22 60.7364 46.795 61.3846 46.4192 61.6846C43.6321 62.9476 41.2106 61.4126 40.3481 60.4872C44.4767 57.6591 46.2989 59.1598 46.694 60.2636Z" fill="#85AE59"/>
<path d="M127.504 42.4454C126.868 38.1598 124.534 38.7294 123.446 39.5499C124.386 37.6245 126.692 34.1455 128.392 35.6339C130.092 37.122 131.132 40.3757 130.743 41.3979C130.411 42.272 130.34 44.0609 132.773 44.8708C135.815 45.8834 139.795 45.7867 140.687 49.9672C141.503 54.5994 144.246 54.9686 145.516 54.574C144.291 55.2183 141.508 55.6462 140.177 52.2038C138.514 47.9007 136.082 47.3824 135.07 47.8176C134.057 48.2528 128.299 47.8024 127.504 42.4454Z" fill="#2C2C2C"/>
<path d="M92.8729 36.9319C94.6031 38.0603 94.7221 40.223 94.5655 41.1633C87.7951 41.6335 89.4877 40.4111 87.8892 37.7782C86.2906 35.1453 87.6071 29.9735 90.1459 28.469C92.177 27.2654 91.4938 25.8989 90.8982 25.3659C89.8012 24.5825 87.7575 22.4509 88.3593 20.1942C88.9611 17.9374 86.5415 15.1165 85.2563 13.9881C75.8531 7.14256 69.741 4.99236 67.8604 4.77295C68.5814 4.77295 70.3804 4.86698 71.8097 5.24311C73.5963 5.71327 82.2473 10.3208 85.2563 11.9194C88.2653 13.5179 89.7698 14.4582 90.8982 17.9374C92.0266 21.4166 90.7101 19.724 93.6251 23.0151C96.5401 26.3062 94.5655 30.2556 92.8729 31.2899C91.1803 32.3243 90.7101 35.5214 92.8729 36.9319Z" fill="#2C2C2C"/>
<path d="M151.32 36.2149C149.768 35.9837 149.033 34.5494 148.859 33.8611C153.456 31.4414 152.64 32.7979 154.552 34.0935C156.465 35.3889 157.103 39.3157 155.78 41.1267C154.721 42.5756 155.611 43.2934 156.189 43.4711C157.193 43.6641 159.266 44.4803 159.525 46.2022C159.784 47.9243 162.328 49.0929 163.567 49.4621C172.212 51.203 177.139 50.7703 178.521 50.3362C178.016 50.5598 176.729 51.0539 175.615 51.2412C174.223 51.4755 166.779 51.0238 164.191 50.8696C161.603 50.7152 160.267 50.5422 158.428 48.525C156.59 46.508 158.021 47.2512 154.989 45.9161C151.956 44.5813 152.148 41.2819 153.021 40.0533C153.893 38.8246 153.259 36.5037 151.32 36.2149Z" fill="#2C2C2C"/>
<path d="M41.7395 54.694C41.6449 53.433 41.0314 53.3864 40.7365 53.5206C40.1735 54.057 39.8709 55.4043 39.79 56.011C39.5801 55.4515 39.9423 54.0572 40.1496 53.4302C38.3156 54.825 39.2189 57.5008 39.8998 58.6644C40.5526 57.8662 41.8343 55.9547 41.7395 54.694Z" fill="#BDD2A6"/>
<path d="M33.2743 41.2216C35.1512 38.3389 34.1861 37.27 33.4688 37.0958C31.647 37.37 28.9564 39.8135 27.8389 41.001C28.3873 39.4568 31.2545 37.0059 32.6195 35.9736C27.2546 36.104 24.463 43.3296 23.7378 46.9261C26.1347 46.2256 31.3975 44.104 33.2743 41.2216Z" fill="#85AE59"/>
<path d="M18.5804 63.5167C19.3321 64.6094 18.9498 65.1361 18.6647 65.2631C17.9392 65.2796 16.8644 64.4339 16.4177 64.0091C16.6385 64.6278 17.7836 65.4635 18.3284 65.8041C16.1931 66.1417 15.0703 63.2628 14.7759 61.7812C15.7309 61.9044 17.8288 62.4241 18.5804 63.5167Z" fill="#BDD2A6"/>
<path d="M23.312 59.5158C24.9559 61.8739 27.0253 61.4124 27.8545 60.8869C26.747 60.7387 25.0749 59.8152 24.3774 59.3719C25.7164 59.8691 27.4752 60.0354 28.1872 60.0563C27.2549 56.6094 23.7374 57.2391 22.0952 57.9847L23.312 59.5158Z" fill="#85AE59"/>
<path d="M28.7783 50.4232C29.7512 53.1842 32.3621 53.4887 33.5459 53.2959C33.8589 52.8577 33.4045 52.7351 33.1382 52.7285C31.9953 52.8367 30.8316 52.0062 30.3927 51.5774C31.8428 52.4304 33.2202 52.2764 33.7276 52.0927C35.2443 51.17 31.7531 49.1028 28.7783 50.4232Z" fill="#BDD2A6"/>
<path d="M35.2925 63.8682C35.1266 61.5141 34.4351 61.2502 34.1101 61.4125C33.6074 62.6029 33.9138 64.1891 34.1298 64.8332C33.317 63.4455 33.4857 61.9306 33.6717 61.3467C31.6562 63.0193 33.5544 65.633 34.4606 67.3514C34.8071 67.1712 35.4585 66.2224 35.2925 63.8682Z" fill="#85AE59"/>
<path d="M18.6929 66.7325C18.0542 67.4013 18.1487 68.8482 18.2757 69.4882C18.6787 67.9916 18.4943 68.6938 18.8198 67.3725C19.0803 66.3154 19.5044 66.6746 19.684 66.9862C20.3269 69.2768 19.0018 71.2103 18.259 71.8909C16.6216 68.4772 17.8659 67.0296 18.6929 66.7325Z" fill="#85AE59"/>
<path d="M41.6352 39.4933C43.3186 38.6867 43.8134 36.6249 43.8504 35.6948C38.1517 34.1498 39.3756 35.5992 37.5313 37.8746C35.6871 40.1502 35.8718 45.3391 37.7673 47.1966C39.2839 48.6825 38.4517 49.8872 37.8459 50.3038C36.7662 50.8807 34.633 52.6019 34.7368 54.8705C34.8408 57.1393 32.2608 59.4632 30.9579 60.3415C21.6801 65.4111 16.0675 66.4938 14.4209 66.4015C15.0368 66.5177 16.591 66.7176 17.8804 66.5864C19.4922 66.4224 27.7205 63.3848 30.5818 62.3322C33.4431 61.2796 34.8993 60.6176 36.4958 57.4519C38.0921 54.2862 36.6598 55.7023 39.7484 53.0059C42.837 50.3094 41.8679 46.1906 40.6097 44.9221C39.3517 43.6536 39.5312 40.5015 41.6352 39.4933Z" fill="#2C2C2C"/>
<path d="M110.136 50.3211C107.805 45.3037 105.346 45.9339 104.408 46.8761C104.764 44.6404 106.102 40.6106 108.604 42.3754C111.107 44.1402 113.514 47.9579 113.451 49.1463C113.397 50.1628 113.985 52.252 117.074 53.2353C120.934 54.4649 125.453 54.4124 128.037 59.3109C130.703 64.7358 133.981 65.209 135.287 64.7674C134.126 65.5016 131.1 65.9592 128.29 61.9166C124.777 56.8633 122.421 56.7136 120.804 56.7136C119.187 56.7136 113.049 56.5929 110.136 50.3211Z" fill="#2C2C2C"/>
<path d="M35.383 26.1537C36.9713 27.5851 36.7066 30.269 36.3757 31.4319C35.5816 34.5809 33.939 32.7441 33.217 31.4319C33.7886 31.4319 34.5888 30.6447 33.217 27.4958C31.8451 24.3468 31.6629 23.9173 31.9534 22.128C36.3757 12.9138 28.0426 7.27783 23.6504 4.77295C34.6971 9.78269 35.7741 17.3569 34.9318 20.5178C34.4203 21.8 33.7946 24.7224 35.383 26.1537Z" fill="#2C2C2C"/>
<path d="M143.428 30.323C143.088 32.4338 140.689 33.6671 139.533 34.0199C136.456 35.0607 137.109 32.6843 137.819 31.3662C138.129 31.8463 139.225 32.0915 141.126 29.2311C143.028 26.3706 143.29 25.9845 144.95 25.2582C155.09 23.9756 155.305 13.9178 155.027 8.86914C156.81 20.8669 151.031 25.8802 147.919 26.8869C146.564 27.1528 143.769 28.2122 143.428 30.323Z" fill="#2C2C2C"/>
<path d="M119.939 23.4852C119.939 28.9391 112.981 32.1049 108.467 34.581C108.467 37.2139 114.109 35.4273 116.742 34.1108C120.88 32.0421 123.606 27.5286 123.136 24.3315C122.526 20.1824 122.008 18.0314 122.196 17.3732C123.246 13.3446 126.768 10.3375 129.045 7.93178C129.259 7.71622 129.421 7.5388 129.53 7.40576C129.377 7.57792 129.215 7.75319 129.045 7.93178C128.102 8.88442 126.142 10.5818 123.136 12.4835C118.529 15.3985 119.939 18.3058 119.939 23.4852Z" fill="#2C2C2C"/>
</g>
<defs>
<clipPath id="clip0_199_2886">
<rect width="182" height="125" fill="white"/>
</clipPath>
</defs>
</svg>
