<svg width="22" height="22" viewBox="0 0 22 22" fill="none" xmlns="http://www.w3.org/2000/svg">
<path fill-rule="evenodd" clip-rule="evenodd" d="M18.286 14.9606C18.2272 14.6362 18.2669 14.3016 18.4 14C18.5268 13.7042 18.7372 13.452 19.0055 13.2743C19.2738 13.0966 19.5882 13.0013 19.91 13H20C20.5304 13 21.0391 12.7893 21.4142 12.4142C21.7893 12.0391 22 11.5304 22 11C22 10.4696 21.7893 9.96086 21.4142 9.58579C21.0391 9.21071 20.5304 9 20 9H19.83C19.5082 8.99872 19.1938 8.90337 18.9255 8.72569C18.6572 8.54802 18.4468 8.29577 18.32 8V7.92C18.1869 7.61838 18.1472 7.28381 18.206 6.95941C18.2648 6.63502 18.4195 6.33568 18.65 6.1L18.71 6.04C18.896 5.85425 19.0435 5.63368 19.1441 5.39088C19.2448 5.14808 19.2966 4.88783 19.2966 4.625C19.2966 4.36217 19.2448 4.10192 19.1441 3.85912C19.0435 3.61632 18.896 3.39575 18.71 3.21C18.5243 3.02405 18.3037 2.87653 18.0609 2.77588C17.8181 2.67523 17.5578 2.62343 17.295 2.62343C17.0322 2.62343 16.7719 2.67523 16.5291 2.77588C16.2863 2.87653 16.0657 3.02405 15.88 3.21L15.82 3.27C15.5843 3.50054 15.285 3.65519 14.9606 3.714C14.6362 3.77282 14.3016 3.73312 14 3.6C13.7042 3.47324 13.452 3.26276 13.2743 2.99447C13.0966 2.72618 13.0013 2.41179 13 2.09V2C13 1.46957 12.7893 0.960859 12.4142 0.585786C12.0391 0.210714 11.5304 0 11 0C10.4696 0 9.96086 0.210714 9.58579 0.585786C9.21071 0.960859 9 1.46957 9 2V2.17C8.99872 2.49179 8.90337 2.80618 8.72569 3.07447C8.54802 3.34276 8.29577 3.55324 8 3.68H7.92C7.61838 3.81312 7.28381 3.85282 6.95941 3.794C6.63502 3.73519 6.33568 3.58054 6.1 3.35L6.04 3.29C5.85425 3.10405 5.63368 2.95653 5.39088 2.85588C5.14808 2.75523 4.88783 2.70343 4.625 2.70343C4.36217 2.70343 4.10192 2.75523 3.85912 2.85588C3.61632 2.95653 3.39575 3.10405 3.21 3.29C3.02405 3.47575 2.87653 3.69632 2.77588 3.93912C2.67523 4.18192 2.62343 4.44217 2.62343 4.705C2.62343 4.96783 2.67523 5.22808 2.77588 5.47088C2.87653 5.71368 3.02405 5.93425 3.21 6.12L3.27 6.18C3.50054 6.41568 3.65519 6.71502 3.714 7.03941C3.77282 7.36381 3.73312 7.69838 3.6 8C3.48572 8.31074 3.28059 8.5799 3.0113 8.77251C2.742 8.96512 2.42099 9.07226 2.09 9.08H2C1.46957 9.08 0.960859 9.29071 0.585786 9.66579C0.210714 10.0409 0 10.5496 0 11.08C0 11.6104 0.210714 12.1191 0.585786 12.4942C0.960859 12.8693 1.46957 13.08 2 13.08H2.17C2.49179 13.0813 2.80618 13.1766 3.07447 13.3543C3.34276 13.532 3.55324 13.7842 3.68 14.08C3.81312 14.3816 3.85282 14.7162 3.794 15.0406C3.73519 15.365 3.58054 15.6643 3.35 15.9L3.29 15.96C3.10405 16.1457 2.95653 16.3663 2.85588 16.6091C2.75523 16.8519 2.70343 17.1122 2.70343 17.375C2.70343 17.6378 2.75523 17.8981 2.85588 18.1409C2.95653 18.3837 3.10405 18.6043 3.29 18.79C3.47575 18.976 3.69632 19.1235 3.93912 19.2241C4.18192 19.3248 4.44217 19.3766 4.705 19.3766C4.96783 19.3766 5.22808 19.3248 5.47088 19.2241C5.71368 19.1235 5.93425 18.976 6.12 18.79L6.18 18.73C6.41568 18.4995 6.71502 18.3448 7.03941 18.286C7.36381 18.2272 7.69838 18.2669 8 18.4C8.31074 18.5143 8.5799 18.7194 8.77251 18.9887C8.96512 19.258 9.07226 19.579 9.08 19.91V20C9.08 20.5304 9.29071 21.0391 9.66579 21.4142C10.0409 21.7893 10.5496 22 11.08 22C11.6104 22 12.1191 21.7893 12.4942 21.4142C12.8693 21.0391 13.08 20.5304 13.08 20V19.83C13.0813 19.5082 13.1766 19.1938 13.3543 18.9255C13.532 18.6572 13.7842 18.4468 14.08 18.32C14.3816 18.1869 14.7162 18.1472 15.0406 18.206C15.365 18.2648 15.6643 18.4195 15.9 18.65L15.96 18.71C16.1457 18.896 16.3663 19.0435 16.6091 19.1441C16.8519 19.2448 17.1122 19.2966 17.375 19.2966C17.6378 19.2966 17.8981 19.2448 18.1409 19.1441C18.3837 19.0435 18.6043 18.896 18.79 18.71C18.976 18.5243 19.1235 18.3037 19.2241 18.0609C19.3248 17.8181 19.3766 17.5578 19.3766 17.295C19.3766 17.0322 19.3248 16.7719 19.2241 16.5291C19.1235 16.2863 18.976 16.0657 18.79 15.88L18.73 15.82C18.4995 15.5843 18.3448 15.285 18.286 14.9606ZM11 7C8.79086 7 7 8.79086 7 11C7 13.2091 8.79086 15 11 15C13.2091 15 15 13.2091 15 11C15 8.79086 13.2091 7 11 7ZM9 11C9 9.89543 9.89543 9 11 9C12.1046 9 13 9.89543 13 11C13 12.1046 12.1046 13 11 13C9.89543 13 9 12.1046 9 11Z" fill="black"/>
</svg>
