<svg width="13" height="16" viewBox="0 0 13 16" fill="none" xmlns="http://www.w3.org/2000/svg">
<path d="M10.8 1H2.4C1.6268 1 1 1.6268 1 2.4V13.6C1 14.3732 1.6268 15 2.4 15H10.8C11.5732 15 12.2 14.3732 12.2 13.6V2.4C12.2 1.6268 11.5732 1 10.8 1Z" stroke="black" stroke-width="1.5" stroke-linecap="round" stroke-linejoin="round"/>
<path d="M6.60005 12.2001C8.14645 12.2001 9.40005 10.9465 9.40005 9.4001C9.40005 7.8537 8.14645 6.6001 6.60005 6.6001C5.05365 6.6001 3.80005 7.8537 3.80005 9.4001C3.80005 10.9465 5.05365 12.2001 6.60005 12.2001Z" stroke="black" stroke-width="1.5" stroke-linecap="round" stroke-linejoin="round"/>
<path d="M6.59998 3.7998H6.60698" stroke="black" stroke-width="1.5" stroke-linecap="round" stroke-linejoin="round"/>
</svg>
