<svg width="182" height="125" viewBox="0 0 182 125" fill="none" xmlns="http://www.w3.org/2000/svg">
<g clip-path="url(#clip0_199_2838)">
<path fill-rule="evenodd" clip-rule="evenodd" d="M70.9811 118.193C76.8969 113.338 82.1326 109.04 81.5945 99.6905C81.5945 79.9438 82.9674 63.3565 89.5873 50.0416L95.1351 45.6221L102.564 50.0416C102.853 50.8015 103.162 51.5705 103.485 52.3728L103.485 52.3738L103.485 52.3741C106.384 59.5815 110.368 69.4857 110.368 99.6905C110.368 110.647 119.096 116.385 125.704 120.729C127.826 122.124 129.73 123.375 131.055 124.609C129.269 124.985 125 125.512 122.216 124.609C119.433 123.706 115.666 124.233 114.13 124.609C114.072 124.594 114 124.575 113.912 124.552C106.006 117.092 103.16 104.54 103.704 99.7245C106.118 78.3507 103.849 74.2674 101.744 73.2675C101.777 73.304 101.812 73.3408 101.848 73.3788C102.859 74.4514 104.689 76.3907 101.744 93.9391C99.3226 108.364 103.011 117.873 106.487 122.716C105.116 122.507 104.873 122.887 104.605 123.307C104.225 123.903 103.794 124.578 100.025 123.763C99.155 123.575 98.2403 123.433 97.3043 123.33C97.4092 122.4 97.5756 121.446 97.7539 120.423C98.5526 115.842 99.5885 109.902 96.4023 98.7502C92.5532 85.2784 95.4221 64.6933 98.4714 59.4085C98.5216 59.3244 98.5713 59.2424 98.6205 59.1627C98.5707 59.2405 98.521 59.3225 98.4714 59.4085C95.1295 65.01 89.5952 80.2151 94.201 98.092C97.7097 111.71 95.614 121.251 93.8151 123.11C89.8393 123.023 86.0026 123.435 84.0394 123.763C84.0179 123.756 83.9963 123.75 83.9743 123.743C87.177 121.017 92.8705 111.923 90.2455 96.0232C87.7027 80.621 89.2822 78.9188 90.1556 77.9776C90.174 77.9576 90.1923 77.9381 90.2099 77.9187C90.222 77.9057 90.2338 77.8927 90.2455 77.8798C88.4275 78.7575 86.4684 82.3414 88.5529 101.101C89.0189 105.295 86.6031 116.175 79.8959 122.74C77.4302 122.275 74.9032 122.085 74.072 122.916C73.337 123.651 72.9391 123.394 72.4698 123.09C71.8584 122.694 71.1261 122.22 69.3704 123.763C66.8879 125.944 64.7002 125.236 63.9165 124.609C66.165 122.146 68.6269 120.126 70.9811 118.193Z" fill="#2C2C2C"/>
<path d="M47.2466 37.5353C76.5893 37.5353 87.0847 47.44 88.9027 51.358L102.631 50.4177C98.7135 43.3026 83.9379 28.0192 53.9228 31.3291C23.9078 34.6391 11.8906 24.5588 9.63379 19.105C9.94724 25.029 23.5505 37.5353 47.2466 37.5353Z" fill="#2C2C2C"/>
<path d="M144.569 37.589C115.227 37.589 104.731 47.5226 102.913 51.452L89.1846 50.5091C93.1025 43.3732 107.878 28.0452 137.893 31.3649C167.908 34.6844 179.925 24.5748 182.182 19.105C181.869 25.0463 168.265 37.589 144.569 37.589Z" fill="#2C2C2C"/>
<path d="M62.2915 26.8549C60.0347 30.5409 62.3543 31.5251 63.796 31.5565C61.7587 32.4654 57.571 33.738 57.1197 31.5565C56.6683 29.3749 57.9169 26.2371 58.9063 25.6874C59.7526 25.2172 60.975 23.8835 59.4705 21.7772C57.5899 19.1443 54.2047 16.7934 56.1794 13.0322C58.5114 8.96997 56.4615 7.01411 55.145 6.54395C56.5869 6.79469 59.1884 8.1613 58.06 11.6217C56.6495 15.9471 58.3421 17.8278 59.4705 18.1099C60.5989 18.392 65.1124 22.2473 62.2915 26.8549Z" fill="#2C2C2C"/>
<path d="M20.4104 32.9992C24.3865 33.1216 24.7756 31.3382 24.4731 30.4312C25.7945 31.3818 27.9516 33.5425 26.0098 34.5806C24.0679 35.6187 20.8381 35.9326 20.0948 35.5085C19.4592 35.1457 17.927 34.8492 16.2981 36.5158C14.2619 38.599 12.8365 41.5192 8.85488 41.5982C4.50877 41.5597 3.14645 43.5129 3.00856 44.4944C2.91184 43.5112 3.59459 41.4197 7.09932 40.9193C11.4802 40.2936 12.8542 38.5886 12.8591 37.7894C12.8639 36.9901 15.4404 32.8459 20.4104 32.9992Z" fill="#2C2C2C"/>
<path d="M164.49 29.4438C160.785 30.8915 161.127 32.6845 161.761 33.4001C160.173 33.0443 156.65 33.4691 157.358 31.3838C158.016 29.4438 162.53 27.0117 163.795 27.0117C164.527 27.0117 166.048 26.7674 166.892 24.5951C167.947 21.88 168.112 18.6346 171.743 16.9993C175.756 15.3291 176.242 12.9979 175.984 12.041C176.459 12.9074 176.652 15.099 173.624 16.9348C169.841 19.2294 169.246 21.3371 169.555 22.0741C169.865 22.8111 169.121 27.6338 164.49 29.4438Z" fill="#2C2C2C"/>
<path d="M70.9851 45.6697C71.7823 40.3405 74.7086 41.0489 76.0721 42.0692C74.8937 39.6749 72.0037 35.3491 69.8725 37.1996C67.7412 39.0502 66.4379 43.096 66.9254 44.3669C67.3421 45.4539 67.4305 47.6784 64.3803 48.6856C60.5677 49.9445 55.5791 49.8244 54.4609 55.0228C53.4382 60.7827 49.9996 61.2417 48.4082 60.7513C49.9439 61.5524 53.4323 62.0845 55.1003 57.8039C57.1852 52.4531 60.2329 51.8086 61.5022 52.3499C62.7714 52.8909 69.9884 52.3309 70.9851 45.6697Z" fill="#2C2C2C"/>
<path d="M127.686 42.6724C127.05 38.3868 124.716 38.9565 123.628 39.777C124.568 37.8516 126.874 34.3726 128.574 35.8609C130.274 37.3491 131.314 40.6028 130.925 41.6249C130.593 42.499 130.522 44.2879 132.956 45.0979C135.997 46.1104 139.977 46.0138 140.869 50.1942C141.685 54.8265 144.429 55.1956 145.698 54.8011C144.473 55.4454 141.69 55.8732 140.359 52.4309C138.696 48.1278 136.264 47.6095 135.252 48.0447C134.239 48.4799 128.481 48.0294 127.686 42.6724Z" fill="#2C2C2C"/>
<path d="M93.055 37.1589C94.7852 38.2873 94.9042 40.45 94.7476 41.3904C87.9773 41.8605 89.6699 40.6381 88.0713 38.0052C86.4728 35.3723 87.7892 30.2005 90.3281 28.696C92.3592 27.4924 91.6759 26.126 91.0803 25.593C89.9834 24.8095 87.9397 22.678 88.5415 20.4212C89.1433 18.1645 86.7236 15.3435 85.4384 14.2151C76.0352 7.36961 69.9231 5.21941 68.0425 5C68.7635 5 70.5625 5.09403 71.9918 5.47016C73.7784 5.94032 82.4294 10.5479 85.4384 12.1464C88.4474 13.745 89.9519 14.6853 91.0803 18.1645C92.2087 21.6436 90.8923 19.9511 93.8073 23.2422C96.7223 26.5333 94.7476 30.4826 93.055 31.517C91.3624 32.5514 90.8923 35.7484 93.055 37.1589Z" fill="#2C2C2C"/>
<path d="M151.502 36.4419C149.951 36.2108 149.215 34.7764 149.042 34.0881C153.638 31.6685 152.822 33.025 154.735 34.3206C156.647 35.6159 157.285 39.5427 155.962 41.3538C154.903 42.8026 155.793 43.5205 156.371 43.6982C157.375 43.8911 159.448 44.7073 159.707 46.4292C159.966 48.1513 162.51 49.32 163.75 49.6891C172.395 51.4301 177.321 50.9973 178.703 50.5633C178.198 50.7869 176.911 51.2809 175.797 51.4682C174.405 51.7026 166.961 51.2508 164.373 51.0966C161.785 50.9422 160.449 50.7692 158.61 48.752C156.772 46.735 158.203 47.4783 155.171 46.1432C152.139 44.8083 152.33 41.5089 153.203 40.2803C154.075 39.0517 153.441 36.7308 151.502 36.4419Z" fill="#2C2C2C"/>
<path d="M41.8174 39.7203C43.5007 38.9137 43.9955 36.852 44.0326 35.9218C38.3338 34.3769 39.5578 35.8263 37.7134 38.1017C35.8693 40.3772 36.0539 45.5661 37.9494 47.4236C39.466 48.9095 38.6338 50.1143 38.028 50.5308C36.9484 51.1078 34.8152 52.829 34.919 55.0976C35.023 57.3664 32.4429 59.6903 31.14 60.5686C21.8622 65.6382 16.2496 66.7209 14.603 66.6285C15.2189 66.7448 16.7731 66.9447 18.0626 66.8134C19.6743 66.6494 27.9027 63.6118 30.7639 62.5592C33.6253 61.5066 35.0815 60.8446 36.6779 57.6789C38.2742 54.5133 36.8419 55.9294 39.9305 53.2329C43.0191 50.5365 42.05 46.4177 40.7918 45.1492C39.5339 43.8807 39.7133 40.7285 41.8174 39.7203Z" fill="#2C2C2C"/>
<path d="M110.318 50.5482C107.987 45.5308 105.528 46.161 104.59 47.1032C104.946 44.8675 106.284 40.8377 108.786 42.6024C111.289 44.3672 113.696 48.1849 113.633 49.3733C113.579 50.3898 114.168 52.479 117.256 53.4624C121.116 54.692 125.635 54.6395 128.22 59.538C130.886 64.9629 134.163 65.4361 135.469 64.9945C134.308 65.7287 131.282 66.1862 128.472 62.1436C124.959 57.0903 122.603 56.9406 120.986 56.9406C119.369 56.9406 113.231 56.8199 110.318 50.5482Z" fill="#2C2C2C"/>
<path d="M35.5651 26.3808C37.1535 27.8121 36.8887 30.496 36.5579 31.659C35.7637 34.8079 34.1211 32.9711 33.3992 31.659C33.9707 31.659 34.7709 30.8718 33.3992 27.7228C32.0272 24.5739 31.845 24.1443 32.1356 22.3551C36.5579 13.1408 28.2248 7.50488 23.8325 5C34.8792 10.0097 35.9563 17.584 35.1139 20.7449C34.6024 22.0271 33.9767 24.9494 35.5651 26.3808Z" fill="#2C2C2C"/>
<path d="M143.611 30.55C143.27 32.6609 140.871 33.8942 139.715 34.247C136.638 35.2877 137.291 32.9114 138.001 31.5932C138.312 32.0734 139.407 32.3186 141.308 29.4581C143.21 26.5977 143.472 26.2116 145.132 25.4853C155.272 24.2027 155.487 14.1448 155.209 9.09619C156.992 21.094 151.213 26.1072 148.101 27.1139C146.746 27.3798 143.952 28.4392 143.611 30.55Z" fill="#2C2C2C"/>
<path d="M120.121 23.7123C120.121 29.1661 113.163 32.332 108.649 34.808C108.649 37.4409 114.291 35.6543 116.924 34.3379C121.062 32.2692 123.789 27.7556 123.318 24.5585C122.708 20.4095 122.19 18.2584 122.378 17.6002C123.428 13.5717 126.951 10.5646 129.228 8.15883C129.441 7.94327 129.603 7.76585 129.713 7.63281C129.559 7.80497 129.397 7.98024 129.228 8.15883C128.284 9.11147 126.324 10.8089 123.318 12.7105C118.711 15.6255 120.121 18.5329 120.121 23.7123Z" fill="#2C2C2C"/>
</g>
<defs>
<clipPath id="clip0_199_2838">
<rect width="182" height="125" fill="white"/>
</clipPath>
</defs>
</svg>
