<svg width="18" height="16" viewBox="0 0 18 16" fill="none" xmlns="http://www.w3.org/2000/svg">
<path d="M15 4.11133H2.55556C1.69645 4.11133 1 4.80777 1 5.66688V13.4447C1 14.3038 1.69645 15.0002 2.55556 15.0002H15C15.8591 15.0002 16.5556 14.3038 16.5556 13.4447V5.66688C16.5556 4.80777 15.8591 4.11133 15 4.11133Z" stroke="black" stroke-width="1.5" stroke-linecap="round" stroke-linejoin="round"/>
<path d="M11.8888 15V2.55556C11.8888 2.143 11.725 1.74733 11.4332 1.45561C11.1415 1.16389 10.7459 1 10.3333 1H7.22218C6.80962 1 6.41396 1.16389 6.12224 1.45561C5.83051 1.74733 5.66663 2.143 5.66663 2.55556V15" stroke="black" stroke-width="1.5" stroke-linecap="round" stroke-linejoin="round"/>
</svg>
