<svg width="25" height="25" viewBox="0 0 25 25" fill="none" xmlns="http://www.w3.org/2000/svg">
<path d="M21.3788 13.2378C21.2215 14.94 20.5827 16.5622 19.5371 17.9145C18.4914 19.2669 17.0823 20.2936 15.4745 20.8743C13.8667 21.455 12.1268 21.5659 10.4583 21.1938C8.78983 20.8218 7.2618 19.9823 6.05303 18.7735C4.84426 17.5648 4.00475 16.0367 3.63272 14.3683C3.26068 12.6998 3.37152 10.9598 3.95227 9.35205C4.53301 7.74426 5.55964 6.33512 6.91202 5.28951C8.2644 4.24389 9.8866 3.60506 11.5888 3.44775C10.5922 4.79602 10.1127 6.4572 10.2373 8.12917C10.362 9.80113 11.0827 11.3728 12.2682 12.5584C13.4537 13.7439 15.0254 14.4645 16.6974 14.5892C18.3694 14.7139 20.0305 14.2343 21.3788 13.2378Z" stroke="black" stroke-width="2" stroke-linecap="round" stroke-linejoin="round"/>
</svg>
