<svg width="971" height="665" viewBox="0 0 971 665" fill="none" xmlns="http://www.w3.org/2000/svg">
<path fill-rule="evenodd" clip-rule="evenodd" d="M379.565 627.095C411.021 601.276 438.861 578.425 436 528.709C436 423.709 443.3 335.509 478.5 264.709L508 241.209L547.5 264.709C549.036 268.75 550.681 272.839 552.397 277.105L552.399 277.11L552.4 277.112C567.816 315.436 589 368.1 589 528.709C589 586.971 635.409 617.479 670.547 640.576C681.83 647.993 691.951 654.647 699 661.209C689.5 663.209 666.8 666.009 652 661.209C637.2 656.409 617.167 659.209 609 661.209C608.694 661.129 608.309 661.028 607.845 660.907C565.803 621.24 550.671 554.493 553.563 528.89C566.4 415.238 554.335 393.526 543.139 388.209C543.317 388.403 543.502 388.599 543.693 388.801C549.072 394.504 558.799 404.816 543.139 498.127C530.266 574.83 549.877 625.389 568.36 651.143C561.072 650.031 559.78 652.054 558.354 654.287C556.332 657.454 554.041 661.043 534 656.709C529.375 655.709 524.511 654.957 519.534 654.409C520.092 649.465 520.977 644.388 521.925 638.952C526.172 614.594 531.68 583.007 514.738 523.709C494.271 452.075 509.526 342.617 525.74 314.516C526.007 314.069 526.271 313.633 526.533 313.209C526.268 313.623 526.004 314.059 525.74 314.516C507.97 344.301 478.542 425.152 503.033 520.209C521.69 592.623 510.546 643.356 500.981 653.238C479.84 652.775 459.439 654.969 449 656.709C448.886 656.674 448.771 656.639 448.654 656.604C465.684 642.108 495.958 593.753 482 509.209C468.479 427.31 476.878 418.259 481.522 413.254C481.62 413.148 481.717 413.044 481.811 412.941C481.875 412.872 481.938 412.803 482 412.734C472.333 417.401 461.916 436.458 473 536.209C475.478 558.509 462.632 616.365 426.968 651.273C413.857 648.796 400.42 647.79 396 652.209C392.092 656.117 389.976 654.746 387.481 653.131C384.23 651.026 380.336 648.505 371 656.709C357.8 668.309 346.167 664.543 342 661.209C353.956 648.114 367.047 637.37 379.565 627.095Z" fill="#2C2C2C"/>
<path d="M253.361 198.209C409.386 198.209 465.194 250.876 474.861 271.709L547.861 266.709C527.028 228.876 448.461 147.609 288.861 165.209C129.261 182.809 65.3613 129.209 53.3613 100.209C55.028 131.709 127.361 198.209 253.361 198.209Z" fill="#2C2C2C"/>
<path d="M770.86 198.495C614.835 198.495 559.026 251.315 549.36 272.209L476.36 267.195C497.193 229.251 575.76 147.747 735.36 165.399C894.959 183.05 958.859 129.294 970.859 100.209C969.193 131.801 896.859 198.495 770.86 198.495Z" fill="#2C2C2C"/>
<path d="M333.36 141.417C321.36 161.017 333.694 166.25 341.36 166.417C330.527 171.25 308.26 178.017 305.86 166.417C303.46 154.817 310.099 138.132 315.36 135.209C319.86 132.709 326.36 125.617 318.36 114.417C308.36 100.417 290.36 87.9169 300.86 67.9169C313.26 46.3169 302.36 35.9169 295.36 33.4169C303.027 34.7502 316.86 42.0169 310.86 60.4169C303.36 83.4169 312.36 93.4169 318.36 94.9169C324.36 96.4169 348.36 116.917 333.36 141.417Z" fill="#2C2C2C"/>
<path d="M342.86 103.417C336.06 107.017 333.694 104.25 333.36 102.417C334.16 98.0169 340.027 92.2502 342.86 89.9169C339.26 90.7169 333.36 96.9169 330.86 99.9169C331.66 86.7169 348.527 82.4169 356.86 81.9169C355.027 87.5835 349.66 99.8169 342.86 103.417Z" fill="#BDD2A6"/>
<path d="M503.091 94.0224C494.46 98.512 491.457 95.0616 491.033 92.7753C492.049 87.2879 499.495 80.0962 503.091 77.1862C498.522 78.1839 491.033 85.9161 487.86 89.6574C488.876 73.1954 510.283 67.8328 520.86 67.2092C518.533 74.2763 511.722 89.5327 503.091 94.0224Z" fill="#BDD2A6"/>
<path d="M593.941 163.86C586.453 182.159 577.262 180.753 573.603 177.763C567.971 167.92 570.073 146.986 571.828 137.75C566.052 145.299 564.594 167.126 564.587 177.095C544.541 150.232 570.697 113.798 586.281 98.9393C591.954 112.955 601.429 145.562 593.941 163.86Z" fill="#85AE59"/>
<path d="M655.233 219.826C640.48 212.523 635.234 217.9 634.455 221.502C636.079 230.194 648.732 241.736 654.856 246.421C647.015 244.733 634.301 232.337 628.924 226.349C630.303 252.378 667.024 261.371 685.212 262.614C681.366 251.394 669.985 227.128 655.233 219.826Z" fill="#BDD2A6"/>
<path d="M405.819 143.918C405.267 162.565 396.682 164.368 392.459 162.939C384.221 156.109 379.142 136.92 377.632 128.179C375.031 136.761 380.975 156.526 384.273 165.336C357.662 148.247 368.697 107.393 377.541 89.1029C387.197 99.6052 406.371 125.272 405.819 143.918Z" fill="#BDD2A6"/>
<path d="M26.8962 30.2307C73.0292 62.3455 66.6094 89.9909 57.6329 99.7992C38.4465 80.1394 34.7349 60.0272 35.2773 52.4285C30.2457 65.8848 42.621 93.6403 51.3667 102.127C34.6469 106.173 19.0711 75.1918 23.7474 59.809C27.4885 47.5029 27.4054 34.9626 26.8962 30.2307Z" fill="#85AE59"/>
<path d="M385.928 45.0524C391.695 39.9872 389.993 36.795 388.42 35.832C384.072 35.0138 376.64 38.4376 373.468 40.2517C375.5 37.1769 383.344 33.8762 387.012 32.6101C374.541 28.6627 364.508 42.8724 361.051 50.4708C366.94 50.7751 380.16 50.1175 385.928 45.0524Z" fill="#BDD2A6"/>
<path d="M150.777 55.925C156.969 55.6565 157.514 52.7862 157.012 51.3845C154.689 48.669 148.28 47.0625 145.366 46.5986C148.201 45.6925 154.807 47.5849 157.756 48.6444C151.906 39.8494 138.402 43.7136 132.381 46.745C135.933 49.9169 144.585 56.1935 150.777 55.925Z" fill="#BDD2A6"/>
<path d="M162.812 110.717C166.505 114.705 168.732 113.441 169.385 112.31C169.883 109.216 167.321 104.02 165.978 101.808C168.192 103.19 170.675 108.68 171.639 111.253C174.201 102.352 163.956 95.5151 158.513 93.2092C158.408 97.3835 159.119 106.729 162.812 110.717Z" fill="#85AE59"/>
<path d="M293.36 115.417C304.56 107.417 314.027 112.084 317.36 115.417C311.76 114.617 302.36 116.417 298.36 117.417C305.56 117.017 314.36 118.584 317.86 119.417C308.66 133.017 292.36 125.75 285.36 120.417L293.36 115.417Z" fill="#85AE59"/>
<path d="M409.861 71.1344C422.439 60.2235 434.372 64.7657 438.766 68.4006C431.931 68.075 420.814 71.3136 416.111 72.9736C424.737 71.6717 435.514 72.5562 439.824 73.1612C430.293 90.5888 409.834 83.6936 400.795 78.0676L409.861 71.1344Z" fill="#85AE59"/>
<path d="M236.187 105.108C219.649 134.823 233.713 156.788 242.812 164.057C239.303 150.522 241.125 126.938 242.474 116.837C243.48 134.632 249.753 155.815 252.764 164.182C283.594 137.835 261.265 99.8024 246.247 84.0795L236.187 105.108Z" fill="#85AE59"/>
<path d="M278.36 48.9169C291.16 49.3169 297.027 60.4169 298.36 65.9169C297.16 67.9169 295.86 66.0835 295.36 64.9169C293.76 59.7169 288.36 55.7502 285.86 54.4169C291.86 59.6169 293.694 65.9169 293.86 68.4169C292.86 76.4169 278.36 63.9169 278.36 48.9169Z" fill="#BDD2A6"/>
<path d="M117.913 76.7255C98.259 107.11 113.439 137.723 123.485 149.231C129.842 149.497 127.866 143.671 126.083 140.724C117.13 129.054 117.006 110.431 118.064 102.578C119.957 124.482 133.153 146.168 138.424 150.377C157.754 160.28 151.147 99.6535 117.913 76.7255Z" fill="#BDD2A6"/>
<path d="M103.028 11.772C115.029 7.30211 124.658 15.3595 127.972 19.947C127.617 22.2522 125.72 21.0466 124.816 20.1556C121.369 15.9468 114.87 14.3166 112.051 14.0276C119.572 16.5726 123.652 21.7116 124.751 23.963C126.851 31.7471 108.701 25.6582 103.028 11.772Z" fill="#BDD2A6"/>
<path d="M432.429 125.084C441.425 111.352 457.488 112.357 464.396 114.576C465.781 117.226 462.906 117.422 461.296 117.189C454.539 115.462 446.589 118.716 443.459 120.559C453.159 117.473 461.275 119.681 464.121 121.17C472.202 127.613 448.835 135.114 432.429 125.084Z" fill="#BDD2A6"/>
<path d="M332.36 57.9169C320.76 64.7169 316.86 62.0836 316.36 59.9169C319.96 53.5169 328.527 49.9169 332.36 48.9169C322.76 49.3169 316.36 55.0836 314.36 57.9169C314.36 42.3169 333.86 43.4169 345.36 42.4169C345.86 44.7502 343.96 51.1169 332.36 57.9169Z" fill="#85AE59"/>
<path d="M460.054 41.4698C456.27 54.2095 451.677 54.9411 449.854 53.7144C448.132 46.6639 451.887 38.282 453.979 34.9724C447.318 41.7417 446.591 50.2251 447.06 53.6206C436.529 42.3584 451.349 29.9891 458.976 21.5041C460.912 22.8511 463.839 28.73 460.054 41.4698Z" fill="#85AE59"/>
<path d="M205.019 81.9854C197.993 89.8942 194.435 88.8723 193.534 87.3728C194.671 81.7088 200.205 76.9319 202.83 75.2515C195.745 77.8854 192.359 83.7564 191.551 86.3627C187.758 74.6906 202.615 70.7715 210.976 67.2266C211.918 68.8508 212.045 74.0765 205.019 81.9854Z" fill="#85AE59"/>
<path d="M288.861 30.9169C283.661 31.3169 278.361 25.4169 276.361 22.4169C283.861 26.2243 280.361 24.4169 286.861 27.9169C292.061 30.7169 292.361 27.4169 291.861 25.4169C285.461 13.8169 272.528 12.5835 266.861 13.4169C273.661 33.8169 284.361 33.5835 288.861 30.9169Z" fill="#85AE59"/>
<path d="M110.664 174.088C131.806 174.739 133.875 165.256 132.267 160.433C139.293 165.488 150.763 176.977 140.438 182.497C130.112 188.017 112.938 189.686 108.986 187.431C105.606 185.502 97.4589 183.925 88.7973 192.787C77.9703 203.864 70.3913 219.392 49.2194 219.812C26.1097 219.607 18.8658 229.993 18.1326 235.212C17.6183 229.984 21.2487 218.863 39.8845 216.202C63.1792 212.875 70.4853 203.809 70.511 199.559C70.5366 195.309 84.2367 173.273 110.664 174.088Z" fill="#2C2C2C"/>
<path d="M83.2753 168.012C88.9033 173.258 87.0641 176.4 85.441 177.315C81.0216 178 73.6519 174.345 70.5195 172.432C72.4541 175.572 80.2442 179.116 83.8974 180.496C71.1631 184.062 61.5775 169.533 58.3765 161.823C64.331 161.7 77.6472 162.765 83.2753 168.012Z" fill="#BDD2A6"/>
<path d="M89.9058 211.527C89.5161 198.727 100.233 192.187 105.641 190.517C107.711 191.592 105.961 193.002 104.828 193.573C99.7361 195.491 96.1098 201.125 94.9331 203.702C99.7534 197.393 105.928 195.175 108.413 194.855C116.46 195.36 104.877 210.602 89.9058 211.527Z" fill="#BDD2A6"/>
<path d="M51.3608 196.592C61.4154 200.389 61.5336 204.161 60.3359 205.573C54.371 206.571 47.8884 203.046 45.3928 201.158C50.2474 206.953 57.1308 208.026 59.9657 207.837C49.6211 215.753 41.0286 203.011 34.8679 196.334C36.1761 194.838 41.3062 192.794 51.3608 196.592Z" fill="#85AE59"/>
<path d="M58.2371 228.453C58.9568 233.618 53.3947 239.272 50.5237 241.453C53.8616 233.732 52.2733 237.337 55.3661 230.634C57.8402 225.271 54.528 225.175 52.5627 225.797C41.3792 232.9 40.9453 245.885 42.1263 251.489C62.0684 243.445 61.176 232.78 58.2371 228.453Z" fill="#85AE59"/>
<path d="M876.784 155.184C857.083 162.882 858.902 172.416 862.274 176.221C853.828 174.329 835.099 176.588 838.861 165.5C842.361 155.184 866.361 142.252 873.091 142.252C876.983 142.252 885.069 140.953 889.558 129.402C895.169 114.965 896.045 97.7079 915.353 89.0124C936.69 80.1315 939.276 67.7356 937.902 62.6477C940.427 67.2544 941.453 78.9081 925.356 88.6696C905.236 100.871 902.075 112.078 903.719 115.997C905.363 119.916 901.411 145.56 876.784 155.184Z" fill="#2C2C2C"/>
<path d="M909.154 142.04C902.911 141.111 902.693 138.132 903.365 136.759C906.033 134.241 912.714 133.285 915.72 133.122C912.953 131.899 906.04 133.125 902.929 133.891C909.878 125.56 923.112 130.923 928.86 134.646C924.893 137.498 915.398 142.969 909.154 142.04Z" fill="#BDD2A6"/>
<path d="M881.182 112.602C886.564 124.222 879.274 134.443 874.955 138.101C872.63 137.925 873.685 135.941 874.504 134.971C878.434 131.209 879.558 124.604 879.629 121.771C877.672 129.466 872.863 133.93 870.703 135.2C863.104 137.893 867.775 119.328 881.182 112.602Z" fill="#BDD2A6"/>
<path d="M921.45 112.332C910.856 114.142 908.846 110.947 909.165 109.124C913.805 105.245 921.181 105.008 924.289 105.374C917.17 102.83 910.689 105.387 908.339 106.983C913.259 94.9227 927.116 101.568 935.808 104.212C935.436 106.164 932.044 110.522 921.45 112.332Z" fill="#85AE59"/>
<path d="M903.666 84.6045C900.977 80.136 903.874 72.7531 905.659 69.6202C905.619 78.0313 905.665 74.0923 905.451 81.4717C905.28 87.3751 908.364 86.1635 909.928 84.8197C917.426 73.8976 912.729 61.7845 909.443 57.0931C894.258 72.3188 899.265 81.7781 903.666 84.6045Z" fill="#85AE59"/>
<path d="M390.263 28.032C387.179 23.8262 389.393 16.2106 390.886 12.9286C391.61 21.3086 391.298 17.3817 391.756 24.7499C392.122 30.6445 395.083 29.1578 396.518 27.6776C402.993 16.1197 397.216 4.48314 393.517 0.109605C379.778 16.6514 385.623 25.6169 390.263 28.032Z" fill="#85AE59"/>
<path d="M161.147 41.2412C158.063 37.0354 160.277 29.4199 161.77 26.1378C162.494 34.5178 162.182 30.5909 162.639 37.9592C163.005 43.8538 165.967 42.3671 167.402 40.8869C173.877 29.3289 168.099 17.6924 164.401 13.3188C150.662 29.8606 156.507 38.8262 161.147 41.2412Z" fill="#85AE59"/>
<path d="M379.586 241.463C383.825 213.126 399.385 216.893 406.635 222.318C400.369 209.587 385.002 186.585 373.67 196.425C362.337 206.265 355.407 227.778 357.999 234.536C360.215 240.316 360.685 252.144 344.466 257.5C324.193 264.194 297.667 263.555 291.721 291.197C286.283 321.824 267.999 324.265 259.537 321.657C267.703 325.917 286.252 328.746 295.121 305.985C306.207 277.533 322.413 274.106 329.162 276.984C335.911 279.861 374.286 276.883 379.586 241.463Z" fill="#2C2C2C"/>
<path d="M358.897 286.916C355.406 278.362 351.039 279.398 349.291 280.985C346.584 285.961 347.51 295.998 348.311 300.394C345.595 296.969 344.979 286.476 345.01 281.658C335.401 295.419 347.692 312.015 355.038 318.592C357.779 311.598 362.389 295.47 358.897 286.916Z" fill="#BDD2A6"/>
<path d="M322.444 237.981C326.881 254.071 339.379 256.535 345.074 255.756C339.181 252.388 331.696 243.672 328.689 239.735C335.172 245.457 344.669 250.448 348.607 252.228C350.341 232.162 329.41 227.171 318.728 227.184L322.444 237.981Z" fill="#85AE59"/>
<path d="M247.828 247.267C261.737 211.996 290.122 204.981 302.575 205.883C288.637 213.944 269.813 233.743 262.143 242.635C277.986 229.422 300.339 217.373 309.536 213C308.337 255.994 260.581 269.605 236.853 271.036L247.828 247.267Z" fill="#85AE59"/>
<path d="M20.1918 119.008C44.5727 111.87 59.9515 124.006 64.5933 130.967C54.599 126.905 36.3848 125.082 28.5271 124.679C42.0305 127.631 57.5943 134.507 63.6883 137.575C40.4454 154.613 13.614 134.938 3.10367 122.97L20.1918 119.008Z" fill="#85AE59"/>
<path d="M256.151 293.471C268.342 302.419 282.255 295.92 287.688 291.552C288.099 288.735 285.494 289.567 284.14 290.335C278.688 294.217 270.648 294.13 267.31 293.601C276.847 292.928 283.355 288.148 285.416 285.842C290.589 277.345 267.591 278.906 256.151 293.471Z" fill="#BDD2A6"/>
<path d="M313.639 324.536C307.788 309.148 302.028 308.803 299.879 310.554C298.387 319.541 303.805 329.509 306.7 333.371C297.827 325.766 296.152 315.298 296.424 311.015C284.397 326.328 303.894 339.896 314.121 349.516C316.398 347.602 319.49 339.925 313.639 324.536Z" fill="#85AE59"/>
<path d="M150.944 354.191C150.314 340.794 145.484 340.908 143.148 342.64C139.317 350.825 141.117 359.384 142.496 362.64C137.067 356.46 138.611 347.177 140.061 343.308C125.417 357.953 138.239 368.71 144.254 376.602C146.746 374.714 151.574 367.588 150.944 354.191Z" fill="#85AE59"/>
<path d="M428.538 293.029C453.15 268.347 448.804 256.929 443.555 254.305C424.912 259.245 410.383 278.374 405.45 287.322C412.407 263.58 431.155 251.241 439.659 248.038C399.639 238.146 390.413 287.584 380.742 315.693C386.419 318.423 403.926 317.711 428.538 293.029Z" fill="#BDD2A6"/>
<path d="M251.391 320.271C246.902 316.113 237.479 318.047 233.328 319.534C243.172 321.242 238.555 320.475 247.24 321.758C254.188 322.785 251.928 326.232 249.93 327.827C235.11 334.543 222.234 326.381 217.648 321.46C239.601 306.422 249.29 314.402 251.391 320.271Z" fill="#85AE59"/>
<path d="M681.086 225.525C677.704 202.737 665.29 205.766 659.506 210.129C664.505 199.891 676.765 181.392 685.806 189.306C694.847 197.219 700.376 214.52 698.308 219.955C696.54 224.603 696.165 234.115 709.104 238.422C725.279 243.806 746.441 243.292 751.185 265.521C755.523 290.152 770.11 292.115 776.861 290.017C770.346 293.443 755.548 295.718 748.472 277.414C739.627 254.533 726.698 251.777 721.314 254.091C715.93 256.405 685.314 254.01 681.086 225.525Z" fill="#2C2C2C"/>
<path d="M698.574 264.338C697.128 257.058 700.497 255.843 702.363 256.145C706.365 258.306 710.176 265.458 711.582 268.765C711.882 265.274 707.663 257.949 705.516 254.723C717.997 259.769 717.123 276.306 715.125 283.945C710.211 280.442 700.019 271.617 698.574 264.338Z" fill="#BDD2A6"/>
<path d="M727.145 221.999C723.605 234.938 713.634 236.92 709.091 236.293C713.792 233.585 719.764 226.575 722.163 223.409C716.991 228.011 709.414 232.025 706.273 233.456C704.889 217.319 721.588 213.305 730.11 213.316L727.145 221.999Z" fill="#85AE59"/>
<path d="M791.732 238.147C783.818 208.734 761.929 200.64 751.974 200.269C762.315 207.934 775.493 225.41 780.789 233.19C769.394 221.24 752.732 209.65 745.826 205.348C742.979 239.82 779.646 254.884 798.335 258.108L791.732 238.147Z" fill="#85AE59"/>
<path d="M779.861 272.176C770.135 279.372 759.034 274.145 754.7 270.633C754.372 268.367 756.451 269.036 757.531 269.654C761.88 272.776 768.294 272.706 770.958 272.28C763.349 271.739 758.157 267.895 756.513 266.041C752.386 259.207 770.734 260.463 779.861 272.176Z" fill="#BDD2A6"/>
<path d="M747.282 292.882C749.054 284.659 746.961 282.592 745.693 282.587C742.798 285.748 742.266 291.619 742.362 294.159C740.972 288.096 743.051 283.273 744.264 281.62C735.737 283.834 739.608 295.878 740.989 303.216C742.348 303.197 745.51 301.105 747.282 292.882Z" fill="#85AE59"/>
<path d="M790.813 293.903C794.394 290.559 801.912 292.114 805.224 293.31C797.37 294.683 801.054 294.067 794.125 295.099C788.581 295.925 790.384 298.697 791.979 299.979C803.802 305.38 814.075 298.816 817.733 294.859C800.219 282.765 792.489 289.183 790.813 293.903Z" fill="#85AE59"/>
<path d="M619.942 135.511C626.745 141.763 630.255 138.965 631.159 136.785C631.489 131.129 626.376 122.444 623.778 118.808C627.694 120.749 632.722 129.98 634.747 134.352C637.577 117.809 619.388 108.03 609.939 105.209C610.439 112.705 613.139 129.26 619.942 135.511Z" fill="#BDD2A6"/>
<path d="M685.891 125.297C669.494 122.18 661.768 132.308 659.955 137.762C665.577 133.96 676.702 131.088 681.561 130.128C673.566 133.42 664.897 139.741 661.562 142.489C678.804 152.9 692.518 136.318 697.22 126.726L685.891 125.297Z" fill="#85AE59"/>
<path d="M758.187 99.8865C759.413 137.782 736.141 155.482 724.352 159.596C733.948 146.667 743.372 121.024 746.884 109.818C737.584 128.232 721.846 148.161 715.139 155.824C699.182 115.883 737.618 84.4422 758.83 73.7143L758.187 99.8865Z" fill="#85AE59"/>
<path d="M940.852 193.625C911.311 172.014 883.061 179.648 872.629 186.166C888.777 186.094 914.981 193.094 926.064 196.604C905.712 193.46 880.248 194.275 870.059 195.076C892.307 228.757 940.728 217.355 962.157 207.443L940.852 193.625Z" fill="#BDD2A6"/>
<path d="M684.861 86.0991C671.222 79.5678 658.755 88.5347 654.227 93.8345C654.346 96.6791 656.752 95.3784 657.94 94.3724C662.577 89.5464 670.493 88.1408 673.872 88.0412C664.624 90.4714 659.117 96.3755 657.519 99.0238C654.012 108.333 676.321 102.533 684.861 86.0991Z" fill="#BDD2A6"/>
<path d="M638.888 53.5001C638.723 67.7167 643.243 69.8155 645.523 69.0878C649.564 62.3382 648.363 52.614 647.258 48.5956C651.983 57.5123 650.018 66.4539 648.445 69.8101C662.953 61.3088 651.577 44.2391 646.401 33.2739C643.965 34.0924 639.053 39.2836 638.888 53.5001Z" fill="#85AE59"/>
<path d="M683.017 47.2555C689.131 47.51 695.049 39.926 697.244 36.1022C688.644 41.1869 692.656 38.776 685.212 43.4317C679.257 47.1562 678.742 43.0668 679.229 40.5566C686.154 25.8335 701.249 23.6958 707.931 24.4674C700.973 50.1516 688.423 50.3612 683.017 47.2555Z" fill="#85AE59"/>
<path d="M496.941 196.209C506.141 202.209 506.774 213.709 505.941 218.709C469.941 221.209 478.941 214.709 470.441 200.709C461.941 186.709 468.941 159.209 482.441 151.209C493.241 144.809 489.608 137.543 486.441 134.709C480.608 130.543 469.741 119.209 472.941 107.209C476.141 95.2092 463.275 80.2092 456.441 74.2092C406.441 37.8092 373.941 26.3759 363.941 25.2092C367.775 25.2092 377.341 25.7092 384.941 27.7092C394.441 30.2092 440.441 54.7092 456.441 63.2092C472.441 71.7092 480.441 76.7092 486.441 95.2092C492.441 113.709 485.441 104.709 500.941 122.209C516.441 139.709 505.941 160.709 496.941 166.209C487.941 171.709 485.441 188.709 496.941 196.209Z" fill="#2C2C2C"/>
<path d="M811.765 245.939C817.872 239.82 821.343 241.937 822.314 243.76C822.926 248.681 818.548 256.772 816.282 260.202C819.885 258.131 824.154 249.571 825.839 245.55C829.395 259.769 812.698 270.055 803.905 273.421C803.98 266.809 805.658 252.057 811.765 245.939Z" fill="#BDD2A6"/>
<path d="M921.46 255.358C918.598 261.55 921.131 263.53 922.755 263.746C926.582 262.846 931.387 257.389 933.311 254.773C932.767 258.002 927.583 263.508 925.059 265.857C936.612 264.574 939.647 249.418 939.72 242C934.826 243.873 924.322 249.167 921.46 255.358Z" fill="#BDD2A6"/>
<path d="M894.036 248.256C887.745 261.648 876.415 262.254 871.536 260.883C877.207 258.686 885.072 252.053 888.296 249.011C881.757 253.174 872.683 256.336 868.963 257.396C870.432 239.806 889.536 238.042 898.905 239.359L894.036 248.256Z" fill="#85AE59"/>
<path d="M865.86 214.288C863.495 228.683 850.083 233.65 843.672 234.333C841.593 232.679 843.857 231.485 845.25 231.095C851.361 230.065 856.648 224.56 858.528 221.935C851.758 227.934 844.37 229.063 841.521 228.878C832.636 226.553 848.92 212.046 865.86 214.288Z" fill="#BDD2A6"/>
<path d="M862.47 286.922C854.829 277.917 856.516 274.144 858.314 273.383C864.397 275.527 868.81 282.393 870.256 285.557C868.455 277.313 862.496 272.65 859.742 271.35C873.237 268.985 875.242 286.021 877.85 295.818C875.907 296.605 870.111 295.926 862.47 286.922Z" fill="#85AE59"/>
<path d="M921.467 274.153C925.85 275.66 928.094 282.341 928.668 285.493C923.892 279.744 926.11 282.452 922.042 277.306C918.787 273.189 917.379 275.775 917.082 277.583C918.214 289.301 928.329 294.866 933.245 296.183C934.889 277.145 926.078 273.564 921.467 274.153Z" fill="#85AE59"/>
<path d="M807.721 192.397C799.473 191.168 795.563 183.541 794.639 179.881C819.081 167.015 814.742 174.228 824.911 181.117C835.081 188.005 838.473 208.885 831.436 218.515C825.807 226.219 830.54 230.036 833.611 230.981C838.95 232.007 849.972 236.347 851.35 245.503C852.728 254.66 866.256 260.874 872.847 262.837C918.815 272.094 945.009 269.793 952.359 267.485C949.676 268.674 942.83 271.301 936.908 272.297C929.505 273.543 889.924 271.141 876.163 270.321C862.403 269.5 855.296 268.58 845.519 257.854C835.743 247.129 843.355 251.081 827.231 243.982C811.107 236.884 812.125 219.34 816.766 212.807C821.406 206.274 818.031 193.933 807.721 192.397Z" fill="#2C2C2C"/>
<path d="M225.046 290.655C224.543 283.95 221.281 283.702 219.713 284.416C216.719 287.268 215.11 294.432 214.68 297.658C213.564 294.683 215.49 287.269 216.592 283.935C206.84 291.352 211.643 305.58 215.264 311.767C218.735 307.523 225.55 297.359 225.046 290.655Z" fill="#BDD2A6"/>
<path d="M180.035 219.019C190.015 203.691 184.883 198.007 181.069 197.081C171.382 198.539 157.075 211.532 151.133 217.846C154.049 209.635 169.295 196.603 176.553 191.114C148.026 191.807 133.182 230.228 129.326 249.352C142.071 245.627 170.055 234.346 180.035 219.019Z" fill="#85AE59"/>
<path d="M101.902 337.569C105.899 343.379 103.866 346.18 102.35 346.855C98.4923 346.943 92.7773 342.446 90.402 340.187C91.576 343.477 97.6647 347.921 100.562 349.732C89.208 351.527 83.2377 336.219 81.6719 328.341C86.75 328.996 97.9054 331.759 101.902 337.569Z" fill="#BDD2A6"/>
<path d="M127.06 316.294C135.801 328.833 146.805 326.379 151.214 323.585C145.325 322.797 136.434 317.886 132.725 315.529C139.845 318.173 149.197 319.057 152.983 319.168C148.026 300.84 129.322 304.188 120.59 308.153L127.06 316.294Z" fill="#85AE59"/>
<path d="M156.127 267.947C161.3 282.628 175.183 284.247 181.478 283.222C183.142 280.892 180.726 280.24 179.31 280.205C173.233 280.78 167.045 276.364 164.711 274.084C172.422 278.62 179.746 277.801 182.444 276.824C190.509 271.918 171.945 260.926 156.127 267.947Z" fill="#BDD2A6"/>
<path d="M190.765 339.439C189.883 326.921 186.206 325.518 184.478 326.381C181.805 332.711 183.434 341.145 184.583 344.57C180.261 337.191 181.158 329.136 182.147 326.031C171.43 334.925 181.523 348.823 186.342 357.96C188.184 357.002 191.648 351.957 190.765 339.439Z" fill="#85AE59"/>
<path d="M102.501 354.667C99.105 358.223 99.6076 365.917 100.283 369.32C102.426 361.362 101.445 365.096 103.176 358.07C104.561 352.449 106.816 354.359 107.771 356.016C111.19 368.196 104.144 378.477 100.194 382.096C91.4872 363.944 98.1039 356.247 102.501 354.667Z" fill="#85AE59"/>
<path d="M224.493 209.828C233.444 205.539 236.075 194.576 236.272 189.63C205.97 181.415 212.478 189.122 202.671 201.221C192.865 213.321 193.847 240.912 203.926 250.789C211.99 258.69 207.565 265.096 204.344 267.311C198.603 270.379 187.26 279.531 187.812 291.594C188.365 303.658 174.646 316.015 167.718 320.685C118.385 347.642 88.5407 353.399 79.7853 352.908C83.0602 353.526 91.3243 354.589 98.1808 353.891C106.751 353.019 150.504 336.867 165.718 331.27C180.933 325.673 188.676 322.153 197.165 305.32C205.653 288.487 198.037 296.017 214.46 281.679C230.883 267.341 225.73 245.44 219.04 238.695C212.351 231.95 213.305 215.189 224.493 209.828Z" fill="#2C2C2C"/>
<path d="M588.731 267.403C576.338 240.724 563.263 244.075 558.274 249.085C560.167 237.197 567.282 215.769 580.589 225.153C593.897 234.537 606.694 254.837 606.36 261.156C606.074 266.561 609.202 277.67 625.623 282.899C646.149 289.437 670.178 289.158 683.921 315.205C698.097 344.051 715.527 346.567 722.47 344.219C716.294 348.123 700.207 350.556 685.264 329.06C666.584 302.19 654.055 301.394 645.458 301.394C636.86 301.394 604.222 300.752 588.731 267.403Z" fill="#2C2C2C"/>
<path d="M598.285 305.233C601.29 294.963 606.343 295.286 608.494 296.732C612.104 301.796 612.164 313.237 611.743 318.324C614.436 313.959 613.977 302.065 613.41 296.664C625.794 310.261 613.725 331.246 606.143 340.038C602.271 332.716 595.28 315.503 598.285 305.233Z" fill="#BDD2A6"/>
<path d="M648.219 269.819C632.556 278.296 617.737 269.062 612.285 263.385C612.327 260.142 615.173 261.435 616.59 262.487C622.152 267.617 631.418 268.605 635.356 268.458C624.506 266.407 617.893 260.119 615.943 257.231C611.546 246.917 637.721 251.791 648.219 269.819Z" fill="#BDD2A6"/>
<path d="M653.729 327.045C652.169 312.179 656.784 309.676 659.286 310.283C664.251 317.072 663.918 327.33 663.131 331.609C667.3 321.958 664.335 312.735 662.331 309.329C678.627 317.241 668.159 335.875 663.708 347.701C661.032 347.01 655.289 341.91 653.729 327.045Z" fill="#85AE59"/>
<path d="M689.028 298.603C694.997 294.483 705.496 297.864 709.999 300.07C698.321 300.743 703.792 300.466 693.531 300.809C685.322 301.083 687.271 305.259 689.272 307.312C705.082 316.774 721.488 309.205 727.715 304.238C705.266 284.48 692.57 292.249 689.028 298.603Z" fill="#85AE59"/>
<path d="M191.247 138.898C199.693 146.509 198.285 160.78 196.526 166.964C192.303 183.708 183.569 173.941 179.73 166.964C182.769 166.964 187.024 162.778 179.73 146.034C172.435 129.29 171.466 127.006 173.011 117.492C196.526 68.4967 152.216 38.5285 128.861 25.2092C187.6 51.8477 193.327 92.1225 188.848 108.93C186.128 115.748 182.801 131.287 191.247 138.898Z" fill="#2C2C2C"/>
<path d="M813.517 82.0628C817.101 87.1196 819.808 86.0198 820.713 84.8378C821.735 81.4139 819.608 75.1583 818.417 72.4584C820.716 74.3488 822.71 80.9249 823.419 83.9767C827.635 74.2922 817.064 65.043 811.251 61.629C810.513 66.3333 809.933 77.0061 813.517 82.0628Z" fill="#BDD2A6"/>
<path d="M774.013 121.894C772.666 127.159 774.937 128.345 776.241 128.279C779.11 127.02 782.086 122.049 783.215 119.721C783.256 122.331 779.989 127.394 778.351 129.6C787.219 126.925 787.406 114.609 786.391 108.786C782.826 110.961 775.361 116.628 774.013 121.894Z" fill="#85AE59"/>
<path d="M824.712 18C834.976 25.6577 833.429 38.117 831.373 43.3895C829.244 44.3419 829.228 42.0945 829.486 40.8518C831.152 35.6725 828.997 29.3284 827.711 26.8037C829.652 34.5026 827.547 40.7172 826.252 42.8621C820.851 48.848 816.122 30.2971 824.712 18Z" fill="#BDD2A6"/>
<path d="M821.044 141.768C810.589 140.156 809.518 136.612 810.289 135.041C815.664 132.925 822.679 134.983 825.514 136.277C819.458 131.753 812.689 132.092 810.062 132.828C817.81 123.31 829.161 133.666 836.675 138.768C835.821 140.44 831.499 143.381 821.044 141.768Z" fill="#85AE59"/>
<path d="M831.477 82.8101C833.338 77.9379 840.937 75.6677 844.504 75.1416C837.857 80.2952 840.987 77.9032 835.044 82.284C830.291 85.7886 833.146 87.4701 835.168 87.8728C848.39 87.0441 855.032 75.8783 856.701 70.3991C835.351 67.8287 830.99 77.6021 831.477 82.8101Z" fill="#85AE59"/>
<path d="M765.76 161.068C763.947 172.292 751.194 178.85 745.045 180.726C728.687 186.26 732.155 173.624 735.934 166.615C737.583 169.168 743.408 170.472 753.518 155.262C763.629 140.052 765.022 137.999 773.852 134.137C827.769 127.317 828.912 73.836 827.434 46.9907C836.914 110.787 806.185 137.444 789.635 142.797C782.432 144.211 767.573 149.844 765.76 161.068Z" fill="#2C2C2C"/>
<path d="M640.86 124.709C640.86 153.709 603.86 170.543 579.86 183.709C579.86 197.709 609.86 188.209 623.86 181.209C645.86 170.209 660.36 146.209 657.86 129.209C654.616 107.147 651.86 95.7092 652.86 92.2092C658.445 70.788 677.173 54.7985 689.281 42.0062C690.417 40.86 691.276 39.9166 691.86 39.2092C691.042 40.1246 690.18 41.0566 689.281 42.0062C684.263 47.0717 673.843 56.0974 657.86 66.2092C633.36 81.7092 640.86 97.1684 640.86 124.709Z" fill="#2C2C2C"/>
</svg>
