<svg width="182" height="125" viewBox="0 0 182 125" fill="none" xmlns="http://www.w3.org/2000/svg">
<g clip-path="url(#clip0_199_3314)">
<path fill-rule="evenodd" clip-rule="evenodd" d="M70.799 117.914C76.7147 113.058 81.9505 108.761 81.4124 99.4107C81.4124 79.664 82.7853 63.0767 89.4051 49.7618L94.953 45.3423L102.382 49.7618C102.67 50.5218 102.98 51.2908 103.302 52.093L103.303 52.094L103.303 52.0944C106.202 59.3017 110.186 69.2059 110.186 99.4107C110.186 110.368 118.914 116.105 125.522 120.449C127.644 121.844 129.548 123.095 130.873 124.329C129.087 124.705 124.818 125.232 122.034 124.329C119.251 123.426 115.483 123.953 113.947 124.329C113.89 124.314 113.818 124.295 113.73 124.272C105.824 116.812 102.978 104.26 103.522 99.4448C105.936 78.0709 103.667 73.9876 101.561 72.9877C101.595 73.0242 101.63 73.0611 101.666 73.099C102.677 74.1716 104.506 76.1109 101.561 93.6593C99.1404 108.084 102.829 117.593 106.305 122.436C104.934 122.227 104.691 122.607 104.423 123.027C104.043 123.623 103.612 124.298 99.8427 123.483C98.9729 123.295 98.0581 123.153 97.1221 123.05C97.2271 122.121 97.3935 121.166 97.5718 120.143C98.3705 115.563 99.4064 109.622 96.2202 98.4704C92.3711 84.9986 95.24 64.4135 98.2893 59.1287C98.3395 59.0446 98.3891 58.9626 98.4384 58.8829C98.3886 58.9608 98.3389 59.0428 98.2893 59.1287C94.9474 64.7302 89.413 79.9354 94.0189 97.8122C97.5276 111.431 95.4318 120.972 93.633 122.83C89.6571 122.743 85.8204 123.156 83.8572 123.483C83.8358 123.476 83.8142 123.47 83.7922 123.463C86.9949 120.737 92.6883 111.643 90.0633 95.7435C87.5205 80.3412 89.1001 78.639 89.9735 77.6978C89.9919 77.6778 90.0101 77.6583 90.0278 77.6389C90.0398 77.6259 90.0517 77.613 90.0633 77.6C88.2453 78.4777 86.2863 82.0616 88.3708 100.821C88.8368 105.015 86.4209 115.896 79.7138 122.461C77.2481 121.995 74.7211 121.806 73.8898 122.637C73.1549 123.372 72.7569 123.114 72.2877 122.81C71.6763 122.414 70.944 121.94 69.1882 123.483C66.7058 125.664 64.518 124.956 63.7344 124.329C65.9829 121.867 68.4448 119.846 70.799 117.914Z" fill="white"/>
<path d="M47.0644 37.2555C76.4071 37.2555 86.9026 47.1603 88.7206 51.0782L102.449 50.1379C98.5314 43.0228 83.7557 27.7394 53.7407 31.0494C23.7257 34.3593 11.7084 24.2791 9.45166 18.8252C9.76511 24.7492 23.3683 37.2555 47.0644 37.2555Z" fill="white"/>
<path d="M144.387 37.3093C115.045 37.3093 104.549 47.2428 102.731 51.1722L89.0024 50.2293C92.9204 43.0934 107.696 27.7654 137.711 31.0851C167.726 34.4046 179.743 24.295 182 18.8252C181.687 24.7665 168.083 37.3093 144.387 37.3093Z" fill="white"/>
<path d="M62.1093 26.5751C59.8526 30.2612 62.1721 31.2453 63.6138 31.2767C61.5765 32.1856 57.3889 33.4582 56.9376 31.2767C56.4862 29.0952 57.7348 25.9573 58.7242 25.4076C59.5705 24.9374 60.7929 23.6037 59.2884 21.4974C57.4077 18.8645 54.0226 16.5137 55.9972 12.7524C58.3292 8.69019 56.2793 6.73432 54.9629 6.26416C56.4048 6.51491 59.0063 7.88151 57.8779 11.3419C56.4674 15.6674 58.16 17.548 59.2884 17.8301C60.4167 18.1122 64.9303 21.9675 62.1093 26.5751Z" fill="white"/>
<path d="M63.8959 19.4282C62.6171 20.1052 62.1721 19.5848 62.1093 19.2401C62.2598 18.4126 63.3631 17.3281 63.8959 16.8893C63.2189 17.0397 62.1093 18.2057 61.6392 18.7699C61.7896 16.2875 64.9617 15.4788 66.5288 15.3848C66.1841 16.4504 65.1748 18.7511 63.8959 19.4282Z" fill="#BDD2A6"/>
<path d="M94.0299 17.6617C92.4068 18.5061 91.842 17.8572 91.7623 17.4272C91.9533 16.3952 93.3537 15.0427 94.0299 14.4955C93.1707 14.6831 91.7623 16.1372 91.1655 16.8408C91.3566 13.7449 95.3825 12.7364 97.3716 12.6191C96.934 13.9482 95.6531 16.8174 94.0299 17.6617Z" fill="#BDD2A6"/>
<path d="M75.7365 27.0451C75.6327 30.5519 74.0181 30.891 73.2239 30.6222C71.6747 29.3378 70.7195 25.729 70.4355 24.0851C69.9464 25.6991 71.0642 29.4162 71.6845 31.073C66.6799 27.8592 68.7552 20.176 70.4184 16.7363C72.2344 18.7114 75.8403 23.5384 75.7365 27.0451Z" fill="#BDD2A6"/>
<path d="M4.47464 5.66455C13.1506 11.7042 11.9433 16.9033 10.2551 18.7479C6.64683 15.0506 5.94881 11.2682 6.05082 9.83916C5.10456 12.3698 7.43191 17.5896 9.07666 19.1857C5.93226 19.9466 3.00302 14.1201 3.88246 11.2272C4.58603 8.91283 4.5704 6.55445 4.47464 5.66455Z" fill="#85AE59"/>
<path d="M71.9954 8.45214C73.0799 7.49955 72.7598 6.89922 72.464 6.71811C71.6463 6.56424 70.2486 7.20813 69.6521 7.5493C70.0342 6.97104 71.5094 6.35029 72.1992 6.11219C69.8539 5.36982 67.967 8.04216 67.3169 9.47114C68.4244 9.52837 70.9106 9.4047 71.9954 8.45214Z" fill="#BDD2A6"/>
<path d="M27.7721 10.4968C28.9366 10.4463 29.0391 9.90653 28.9447 9.64292C28.5078 9.13224 27.3025 8.83011 26.7545 8.74287C27.2877 8.57246 28.53 8.92836 29.0846 9.12761C27.9845 7.47359 25.4448 8.2003 24.3125 8.7704C24.9805 9.36692 26.6076 10.5473 27.7721 10.4968Z" fill="#BDD2A6"/>
<path d="M30.0354 20.8014C30.7299 21.5514 31.1487 21.3137 31.2715 21.101C31.3652 20.5191 30.8834 19.5419 30.6308 19.1259C31.0472 19.3858 31.5141 20.4183 31.6954 20.9022C32.1773 19.2282 30.2505 17.9424 29.2269 17.5088C29.2072 18.2938 29.3409 20.0514 30.0354 20.8014Z" fill="#85AE59"/>
<path d="M54.587 21.6852C56.6934 20.1807 58.4738 21.0584 59.1006 21.6852C58.0474 21.5347 56.2796 21.8733 55.5274 22.0613C56.8814 21.9861 58.5364 22.2808 59.1946 22.4374C57.4644 24.9951 54.399 23.6285 53.0825 22.6255L54.587 21.6852Z" fill="#85AE59"/>
<path d="M76.4965 13.3571C78.862 11.3051 81.1061 12.1594 81.9325 12.843C80.6471 12.7817 78.5564 13.3908 77.6719 13.703C79.2941 13.4581 81.3209 13.6245 82.1315 13.7383C80.339 17.0158 76.4914 15.719 74.7915 14.661L76.4965 13.3571Z" fill="#85AE59"/>
<path d="M43.8346 19.7462C40.7244 25.3345 43.3694 29.4654 45.0806 30.8324C44.4206 28.287 44.7633 23.8516 45.017 21.952C45.2062 25.2986 46.3859 29.2824 46.9522 30.8559C52.7502 25.901 48.5509 18.7484 45.7266 15.7915L43.8346 19.7462Z" fill="#85AE59"/>
<path d="M51.7656 9.17871C54.1728 9.25394 55.2762 11.3414 55.5269 12.3758C55.3012 12.7519 55.0567 12.4071 54.9627 12.1877C54.6618 11.2098 53.6463 10.4638 53.1761 10.2131C54.3045 11.191 54.6494 12.3758 54.6806 12.846C54.4926 14.3505 51.7656 11.9997 51.7656 9.17871Z" fill="#BDD2A6"/>
<path d="M21.5914 14.4087C17.8952 20.1229 20.75 25.8801 22.6393 28.0444C23.8348 28.0944 23.4632 26.9987 23.1279 26.4445C21.4441 24.2498 21.4208 20.7475 21.6198 19.2706C21.9758 23.39 24.4575 27.4683 25.4488 28.2599C29.0841 30.1223 27.8415 18.7206 21.5914 14.4087Z" fill="#BDD2A6"/>
<path d="M18.792 2.19315C21.0489 1.35252 22.8598 2.86783 23.4831 3.73057C23.4163 4.1641 23.0595 3.93736 22.8895 3.7698C22.2413 2.97828 21.019 2.67169 20.4889 2.61734C21.9033 3.09597 22.6706 4.06243 22.8773 4.48583C23.2722 5.94974 19.8589 4.80464 18.792 2.19315Z" fill="#BDD2A6"/>
<path d="M80.7407 23.5032C82.4325 20.9207 85.4534 21.1097 86.7526 21.527C87.013 22.0254 86.4724 22.0622 86.1696 22.0184C84.8988 21.6936 83.4037 22.3056 82.8151 22.6522C84.6393 22.0718 86.1656 22.4871 86.7009 22.7671C88.2206 23.9788 83.8261 25.3895 80.7407 23.5032Z" fill="#BDD2A6"/>
<path d="M61.9213 10.8715C59.7397 12.1504 59.0063 11.6551 58.9123 11.2477C59.5893 10.0441 61.2004 9.36702 61.9213 9.17896C60.1159 9.25419 58.9123 10.3387 58.5361 10.8715C58.5361 7.93774 62.2034 8.14461 64.3661 7.95654C64.4602 8.39535 64.1028 9.5927 61.9213 10.8715Z" fill="#85AE59"/>
<path d="M85.9361 7.77827C85.2244 10.1741 84.3606 10.3117 84.0178 10.081C83.694 8.75509 84.4001 7.17876 84.7936 6.55634C83.5409 7.8294 83.4042 9.42483 83.4924 10.0634C81.5119 7.94538 84.299 5.61916 85.7333 4.02344C86.0974 4.27676 86.6479 5.38237 85.9361 7.77827Z" fill="#85AE59"/>
<path d="M37.9729 15.3982C36.6516 16.8855 35.9824 16.6933 35.813 16.4113C36.0268 15.3461 37.0676 14.4478 37.5612 14.1318C36.2288 14.6271 35.592 15.7312 35.4401 16.2214C34.7267 14.0263 37.5208 13.2892 39.0932 12.6226C39.2704 12.928 39.2942 13.9108 37.9729 15.3982Z" fill="#85AE59"/>
<path d="M53.7409 5.79404C52.763 5.86927 51.7663 4.75969 51.3901 4.1955C52.8006 4.91153 52.1424 4.57163 53.3648 5.22985C54.3427 5.75643 54.3991 5.13582 54.3051 4.75969C53.1015 2.57815 50.6693 2.34619 49.6035 2.50292C50.8824 6.33943 52.8946 6.29554 53.7409 5.79404Z" fill="#85AE59"/>
<path d="M20.2283 32.7194C24.2043 32.8418 24.5934 31.0584 24.291 30.1514C25.6124 31.102 27.7695 33.2627 25.8277 34.3008C23.8857 35.3389 20.6559 35.6528 19.9127 35.2287C19.277 34.8659 17.7449 34.5694 16.1159 36.236C14.0798 38.3192 12.6544 41.2394 8.67275 41.3184C4.32664 41.2799 2.96432 43.2331 2.82644 44.2146C2.72971 43.2314 3.41246 41.14 6.91719 40.6395C11.2981 40.0138 12.6721 38.3088 12.6769 37.5096C12.6817 36.7103 15.2582 32.5661 20.2283 32.7194Z" fill="white"/>
<path d="M15.0776 31.5768C16.136 32.5634 15.7901 33.1543 15.4849 33.3263C14.6537 33.4552 13.2678 32.7678 12.6787 32.408C13.0425 32.9986 14.5075 33.6651 15.1946 33.9246C12.7997 34.5952 10.997 31.8628 10.395 30.4129C11.5148 30.3897 14.0191 30.59 15.0776 31.5768Z" fill="#BDD2A6"/>
<path d="M16.3242 39.7598C16.2509 37.3526 18.2664 36.1227 19.2834 35.8086C19.6727 36.0108 19.3436 36.2759 19.1305 36.3833C18.1729 36.744 17.491 37.8036 17.2697 38.2882C18.1762 37.1017 19.3374 36.6846 19.8048 36.6244C21.3181 36.7194 19.1398 39.5859 16.3242 39.7598Z" fill="#BDD2A6"/>
<path d="M9.07536 36.9511C10.9663 37.6651 10.9885 38.3745 10.7632 38.6401C9.64147 38.8278 8.42232 38.1648 7.95299 37.8098C8.86596 38.8996 10.1605 39.1014 10.6936 39.0658C8.74818 40.5546 7.13224 38.1582 5.97363 36.9025C6.21966 36.6212 7.18445 36.2368 9.07536 36.9511Z" fill="#85AE59"/>
<path d="M10.3685 42.9431C10.5038 43.9145 9.45781 44.9778 8.91787 45.3879C9.54561 43.9359 9.24691 44.6139 9.82855 43.3533C10.2938 42.3447 9.67094 42.3266 9.30134 42.4436C7.19812 43.7794 7.11652 46.2214 7.33862 47.2754C11.089 45.7626 10.9212 43.7569 10.3685 42.9431Z" fill="#85AE59"/>
<path d="M164.308 29.164C160.603 30.6117 160.945 32.4047 161.579 33.1203C159.99 32.7645 156.468 33.1893 157.176 31.1041C157.834 29.164 162.348 26.7319 163.613 26.7319C164.345 26.7319 165.866 26.4876 166.71 24.3153C167.765 21.6002 167.93 18.3548 171.561 16.7195C175.574 15.0493 176.06 12.7181 175.802 11.7612C176.277 12.6276 176.47 14.8192 173.442 16.655C169.659 18.9497 169.064 21.0573 169.373 21.7943C169.682 22.5313 168.939 27.3541 164.308 29.164Z" fill="white"/>
<path d="M72.8109 5.2512C72.2309 4.46024 72.6473 3.02802 72.9281 2.41079C73.0642 3.98677 73.0056 3.24826 73.0917 4.63396C73.1605 5.74252 73.7174 5.46292 73.9873 5.18455C75.205 3.01092 74.1185 0.822505 73.4229 0C70.8391 3.11092 71.9383 4.79701 72.8109 5.2512Z" fill="#85AE59"/>
<path d="M29.722 7.73558C29.1421 6.94462 29.5584 5.51241 29.8392 4.89517C29.9754 6.47115 29.9167 5.73264 30.0026 7.11835C30.0715 8.22691 30.6285 7.94732 30.8984 7.66895C32.1161 5.4953 31.0295 3.30689 30.334 2.48438C27.7502 5.59529 28.8494 7.2814 29.722 7.73558Z" fill="#85AE59"/>
<path d="M70.803 45.3899C71.6002 40.0607 74.5265 40.7691 75.8899 41.7894C74.7115 39.3951 71.8215 35.0693 69.6904 36.9198C67.5591 38.7704 66.2558 42.8162 66.7432 44.0871C67.16 45.1742 67.2484 47.3986 64.1982 48.4059C60.3856 49.6648 55.397 49.5446 54.2787 54.743C53.256 60.5029 49.8175 60.962 48.2261 60.4715C49.7618 61.2726 53.2502 61.8047 54.9182 57.5241C57.003 52.1733 60.0508 51.5288 61.32 52.0701C62.5893 52.6112 69.8062 52.0511 70.803 45.3899Z" fill="white"/>
<path d="M66.9119 53.9378C66.2554 52.3291 65.4341 52.5239 65.1053 52.8224C64.5963 53.7582 64.7704 55.6458 64.921 56.4725C64.4103 55.8284 64.2944 53.855 64.3002 52.9489C62.4931 55.5369 64.8046 58.658 66.1861 59.8949C66.7016 58.5796 67.5686 55.5465 66.9119 53.9378Z" fill="#BDD2A6"/>
<path d="M60.0563 44.7351C60.8907 47.7611 63.2411 48.2245 64.3122 48.078C63.2039 47.4446 61.7962 45.8054 61.2307 45.065C62.4499 46.1411 64.236 47.0797 64.9766 47.4145C65.3027 43.6408 61.3663 42.7021 59.3574 42.7046L60.0563 44.7351Z" fill="#85AE59"/>
<path d="M46.024 46.4813C48.6397 39.8481 53.9779 38.5288 56.3199 38.6984C53.6987 40.2144 50.1586 43.9379 48.7161 45.6102C51.6956 43.1253 55.8994 40.8593 57.629 40.0369C57.4035 48.1225 48.4223 50.6823 43.96 50.9514L46.024 46.4813Z" fill="#85AE59"/>
<path d="M3.21366 22.3605C7.79884 21.0181 10.691 23.3005 11.564 24.6096C9.68442 23.8457 6.25899 23.5028 4.78123 23.4271C7.32074 23.9822 10.2477 25.2754 11.3938 25.8523C7.02264 29.0566 1.97662 25.3564 0 23.1057L3.21366 22.3605Z" fill="#85AE59"/>
<path d="M47.5894 55.1706C49.882 56.8534 52.4986 55.6312 53.5203 54.8097C53.5976 54.28 53.1077 54.4364 52.8531 54.5809C51.8278 55.3109 50.3157 55.2946 49.688 55.1951C51.4815 55.0685 52.7054 54.1696 53.093 53.7359C54.0659 52.1379 49.7408 52.4315 47.5894 55.1706Z" fill="#BDD2A6"/>
<path d="M58.4005 61.0129C57.3002 58.119 56.2169 58.0541 55.8128 58.3834C55.5322 60.0735 56.5511 61.9481 57.0956 62.6744C55.4269 61.2442 55.1119 59.2755 55.163 58.4701C52.9012 61.3499 56.5678 63.9015 58.4912 65.7107C58.9194 65.3508 59.5009 63.907 58.4005 61.0129Z" fill="#85AE59"/>
<path d="M27.8032 66.5898C27.6847 64.0703 26.7763 64.0917 26.337 64.4174C25.6166 65.9567 25.9551 67.5664 26.2144 68.1787C25.1934 67.0165 25.4838 65.2707 25.7565 64.5431C23.0025 67.2973 25.4138 69.3203 26.545 70.8045C27.0137 70.4494 27.9217 69.1093 27.8032 66.5898Z" fill="#85AE59"/>
<path d="M80.0087 55.0877C84.6374 50.4459 83.82 48.2986 82.8329 47.8051C79.3268 48.7342 76.5944 52.3316 75.6667 54.0144C76.9751 49.5494 80.5009 47.2289 82.1002 46.6265C74.5739 44.7662 72.8388 54.0637 71.02 59.35C72.0877 59.8634 75.3801 59.7295 80.0087 55.0877Z" fill="#BDD2A6"/>
<path d="M46.694 60.2108C45.8498 59.4289 44.0776 59.7926 43.297 60.0722C45.1483 60.3934 44.28 60.2492 45.9133 60.4905C47.22 60.6836 46.795 61.3319 46.4192 61.6319C43.6321 62.8949 41.2106 61.3599 40.3481 60.4344C44.4767 57.6063 46.2989 59.1071 46.694 60.2108Z" fill="#85AE59"/>
<path d="M127.504 42.3926C126.868 38.107 124.534 38.6767 123.446 39.4972C124.386 37.5718 126.692 34.0928 128.392 35.5812C130.092 37.0693 131.132 40.323 130.743 41.3451C130.411 42.2193 130.34 44.0081 132.773 44.8181C135.815 45.8306 139.795 45.734 140.687 49.9145C141.503 54.5467 144.246 54.9158 145.516 54.5213C144.291 55.1656 141.508 55.5934 140.177 52.1511C138.514 47.848 136.082 47.3297 135.07 47.7649C134.057 48.2001 128.299 47.7497 127.504 42.3926Z" fill="white"/>
<path d="M92.8729 36.8791C94.6031 38.0075 94.7221 40.1703 94.5655 41.1106C87.7951 41.5807 89.4877 40.3583 87.8892 37.7254C86.2906 35.0925 87.6071 29.9208 90.1459 28.4163C92.177 27.2126 91.4938 25.8462 90.8982 25.3132C89.8012 24.5297 87.7575 22.3982 88.3593 20.1414C88.9611 17.8847 86.5415 15.0637 85.2563 13.9354C75.8531 7.08982 69.741 4.93963 67.8604 4.72021C68.5814 4.72021 70.3804 4.81425 71.8097 5.19038C73.5963 5.66054 82.2473 10.2681 85.2563 11.8667C88.2653 13.4652 89.7698 14.4055 90.8982 17.8847C92.0266 21.3638 90.7101 19.6713 93.6251 22.9624C96.5401 26.2535 94.5655 30.2029 92.8729 31.2372C91.1803 32.2716 90.7101 35.4687 92.8729 36.8791Z" fill="white"/>
<path d="M151.32 36.1621C149.768 35.931 149.033 34.4966 148.859 33.8083C153.456 31.3887 152.64 32.7452 154.552 34.0408C156.465 35.3362 157.103 39.2629 155.78 41.074C154.721 42.5228 155.611 43.2407 156.189 43.4184C157.193 43.6113 159.266 44.4275 159.525 46.1495C159.784 47.8716 162.328 49.0402 163.567 49.4094C172.212 51.1503 177.139 50.7175 178.521 50.2835C178.016 50.5071 176.729 51.0011 175.615 51.1884C174.223 51.4228 166.779 50.9711 164.191 50.8168C161.603 50.6624 160.267 50.4894 158.428 48.4722C156.59 46.4553 158.021 47.1985 154.989 45.8634C151.956 44.5285 152.148 41.2291 153.021 40.0005C153.893 38.7719 153.259 36.451 151.32 36.1621Z" fill="white"/>
<path d="M41.7395 54.6412C41.6449 53.3803 41.0314 53.3336 40.7365 53.4679C40.1735 54.0043 39.8709 55.3515 39.79 55.9582C39.5801 55.3988 39.9423 54.0044 40.1496 53.3774C38.3156 54.7723 39.2189 57.4481 39.8998 58.6116C40.5526 57.8135 41.8343 55.902 41.7395 54.6412Z" fill="#BDD2A6"/>
<path d="M33.2743 41.1688C35.1512 38.2862 34.1861 37.2172 33.4688 37.0431C31.647 37.3173 28.9564 39.7608 27.8389 40.9482C28.3873 39.404 31.2545 36.9532 32.6195 35.9209C27.2546 36.0512 24.463 43.2768 23.7378 46.8734C26.1347 46.1728 31.3975 44.0513 33.2743 41.1688Z" fill="#85AE59"/>
<path d="M18.5804 63.464C19.3321 64.5566 18.9498 65.0834 18.6647 65.2103C17.9392 65.2269 16.8644 64.3812 16.4177 63.9563C16.6385 64.5751 17.7836 65.4108 18.3284 65.7514C16.1931 66.089 15.0703 63.2101 14.7759 61.7285C15.7309 61.8517 17.8288 62.3713 18.5804 63.464Z" fill="#BDD2A6"/>
<path d="M23.312 59.463C24.9559 61.8212 27.0253 61.3596 27.8545 60.8342C26.747 60.686 25.0749 59.7624 24.3774 59.3192C25.7164 59.8164 27.4752 59.9826 28.1872 60.0035C27.2549 56.5567 23.7374 57.1863 22.0952 57.932L23.312 59.463Z" fill="#85AE59"/>
<path d="M28.7783 50.3705C29.7512 53.1315 32.3621 53.4359 33.5459 53.2432C33.8589 52.805 33.4045 52.6824 33.1382 52.6758C31.9953 52.7839 30.8316 51.9534 30.3927 51.5247C31.8428 52.3777 33.2202 52.2237 33.7276 52.0399C35.2443 51.1173 31.7531 49.0501 28.7783 50.3705Z" fill="#BDD2A6"/>
<path d="M35.2925 63.8155C35.1266 61.4613 34.4351 61.1975 34.1101 61.3598C33.6074 62.5502 33.9138 64.1363 34.1298 64.7805C33.317 63.3927 33.4857 61.8779 33.6717 61.2939C31.6562 62.9666 33.5544 65.5803 34.4606 67.2986C34.8071 67.1185 35.4585 66.1697 35.2925 63.8155Z" fill="#85AE59"/>
<path d="M18.6929 66.6798C18.0542 67.3485 18.1487 68.7955 18.2757 69.4355C18.6787 67.9389 18.4943 68.6411 18.8198 67.3197C19.0803 66.2626 19.5044 66.6218 19.684 66.9335C20.3269 69.2241 19.0018 71.1576 18.259 71.8382C16.6216 68.4244 17.8659 66.9769 18.6929 66.6798Z" fill="#85AE59"/>
<path d="M41.6352 39.4405C43.3186 38.6339 43.8134 36.5722 43.8504 35.642C38.1517 34.0971 39.3756 35.5465 37.5313 37.8219C35.6871 40.0975 35.8718 45.2863 37.7673 47.1438C39.2839 48.6297 38.4517 49.8345 37.8459 50.251C36.7662 50.828 34.633 52.5492 34.7368 54.8178C34.8408 57.0866 32.2608 59.4105 30.9579 60.2888C21.6801 65.3584 16.0675 66.4411 14.4209 66.3488C15.0368 66.465 16.591 66.6649 17.8804 66.5336C19.4922 66.3696 27.7205 63.332 30.5818 62.2794C33.4431 61.2268 34.8993 60.5648 36.4958 57.3992C38.0921 54.2335 36.6598 55.6496 39.7484 52.9531C42.837 50.2567 41.8679 46.1379 40.6097 44.8694C39.3517 43.6009 39.5312 40.4488 41.6352 39.4405Z" fill="white"/>
<path d="M110.136 50.2684C107.805 45.251 105.346 45.8812 104.408 46.8234C104.764 44.5877 106.102 40.5579 108.604 42.3227C111.107 44.0875 113.514 47.9052 113.451 49.0935C113.397 50.11 113.985 52.1992 117.074 53.1826C120.934 54.4122 125.453 54.3597 128.037 59.2582C130.703 64.6831 133.981 65.1563 135.287 64.7147C134.126 65.4489 131.1 65.9065 128.29 61.8638C124.777 56.8106 122.421 56.6609 120.804 56.6609C119.187 56.6609 113.049 56.5401 110.136 50.2684Z" fill="white"/>
<path d="M35.383 26.101C36.9713 27.5324 36.7066 30.2162 36.3757 31.3792C35.5816 34.5281 33.939 32.6913 33.217 31.3792C33.7886 31.3792 34.5888 30.592 33.217 27.443C31.8451 24.2941 31.6629 23.8645 31.9534 22.0753C36.3757 12.861 28.0426 7.2251 23.6504 4.72021C34.6971 9.72996 35.7741 17.3042 34.9318 20.4651C34.4203 21.7473 33.7946 24.6696 35.383 26.101Z" fill="white"/>
<path d="M143.428 30.2703C143.088 32.3811 140.689 33.6144 139.533 33.9672C136.456 35.008 137.109 32.6316 137.819 31.3134C138.129 31.7936 139.225 32.0388 141.126 29.1784C143.028 26.3179 143.29 25.9318 144.95 25.2055C155.09 23.9229 155.305 13.865 155.027 8.81641C156.81 20.8142 151.031 25.8274 147.919 26.8341C146.564 27.1001 143.769 28.1594 143.428 30.2703Z" fill="white"/>
<path d="M119.939 23.4325C119.939 28.8863 112.981 32.0522 108.467 34.5283C108.467 37.1611 114.109 35.3745 116.742 34.0581C120.88 31.9894 123.606 27.4758 123.136 24.2788C122.526 20.1297 122.008 17.9786 122.196 17.3204C123.246 13.2919 126.768 10.2848 129.045 7.87904C129.259 7.66348 129.421 7.48606 129.53 7.35303C129.377 7.52518 129.215 7.70046 129.045 7.87904C128.102 8.83168 126.142 10.5291 123.136 12.4308C118.529 15.3458 119.939 18.2531 119.939 23.4325Z" fill="white"/>
</g>
<defs>
<clipPath id="clip0_199_3314">
<rect width="182" height="125" fill="white"/>
</clipPath>
</defs>
</svg>
