<svg width="869" height="596" viewBox="0 0 869 596" fill="none" xmlns="http://www.w3.org/2000/svg">
<path fill-rule="evenodd" clip-rule="evenodd" d="M337.678 562.392C365.893 539.233 390.865 518.736 388.299 474.142C388.299 379.96 394.847 300.846 426.42 237.34L452.881 216.261L488.312 237.34C489.689 240.965 491.165 244.632 492.704 248.459L492.706 248.463L492.707 248.465C506.535 282.841 525.536 330.079 525.536 474.142C525.536 526.402 567.164 553.767 598.682 574.485C608.803 581.137 617.881 587.106 624.204 592.992C615.683 594.786 595.321 597.297 582.046 592.992C568.771 588.686 550.802 591.198 543.476 592.992C543.201 592.92 542.856 592.83 542.44 592.721C504.729 557.141 491.156 497.27 493.75 474.305C505.265 372.361 494.443 352.886 484.4 348.117C484.56 348.291 484.726 348.467 484.897 348.648C489.722 353.763 498.447 363.013 484.4 446.711C472.853 515.512 490.444 560.862 507.023 583.963C500.486 582.966 499.327 584.78 498.048 586.783C496.234 589.624 494.179 592.843 476.203 588.956C472.054 588.059 467.691 587.384 463.227 586.892C463.727 582.458 464.521 577.904 465.371 573.028C469.181 551.179 474.122 522.846 458.925 469.657C440.566 405.403 454.25 307.222 468.793 282.016C469.033 281.615 469.27 281.224 469.505 280.843C469.267 281.215 469.03 281.606 468.793 282.016C452.854 308.732 426.458 381.254 448.426 466.518C465.161 531.472 455.165 576.978 446.585 585.842C427.622 585.427 409.323 587.395 399.959 588.956C399.857 588.924 399.754 588.893 399.649 588.861C414.925 575.859 442.08 532.485 429.56 456.651C417.432 383.19 424.965 375.071 429.131 370.582C429.219 370.487 429.306 370.393 429.39 370.301C429.448 370.239 429.504 370.177 429.56 370.115C420.889 374.301 411.545 391.395 421.487 480.87C423.71 500.872 412.187 552.768 380.197 584.08C368.437 581.858 356.384 580.955 352.419 584.919C348.914 588.425 347.016 587.195 344.778 585.746C341.862 583.858 338.369 581.597 329.995 588.956C318.155 599.36 307.72 595.982 303.983 592.992C314.707 581.246 326.449 571.609 337.678 562.392Z" fill="white"/>
<path d="M224.475 177.691C364.426 177.691 414.485 224.932 423.156 243.619L488.635 239.134C469.949 205.199 399.476 132.304 256.318 148.091C113.16 163.877 55.8436 115.799 45.0798 89.787C46.5748 118.042 111.456 177.691 224.475 177.691Z" fill="white"/>
<path d="M688.661 177.947C548.71 177.947 498.65 225.326 489.98 244.067L424.5 239.57C443.187 205.535 513.66 132.428 656.818 148.261C799.975 164.094 857.292 115.876 868.055 89.787C866.561 118.124 801.679 177.947 688.661 177.947Z" fill="white"/>
<path d="M296.233 126.75C285.469 144.33 296.532 149.024 303.408 149.174C293.691 153.509 273.718 159.579 271.566 149.174C269.413 138.769 275.368 123.803 280.087 121.181C284.123 118.939 289.954 112.577 282.778 102.531C273.808 89.9735 257.663 78.7612 267.081 60.8216C278.203 41.4469 268.426 32.1183 262.147 29.8759C269.025 31.0718 281.432 37.5899 276.051 54.0943C269.323 74.7248 277.396 83.6946 282.778 85.04C288.16 86.3855 309.687 104.774 296.233 126.75Z" fill="white"/>
<path d="M304.754 92.6645C298.655 95.8936 296.532 93.4117 296.233 91.7675C296.95 87.8207 302.213 82.6481 304.754 80.5552C301.525 81.2728 296.233 86.8341 293.99 89.525C294.708 77.6849 309.837 73.8279 317.312 73.3794C315.668 78.4622 310.853 89.4353 304.754 92.6645Z" fill="#BDD2A6"/>
<path d="M448.478 84.2378C440.736 88.2648 438.042 85.1699 437.662 83.1191C438.573 78.1971 445.252 71.7463 448.478 69.136C444.379 70.031 437.662 76.9666 434.816 80.3224C435.727 65.5564 454.929 60.7462 464.416 60.1869C462.329 66.5259 456.219 80.2106 448.478 84.2378Z" fill="#BDD2A6"/>
<path d="M529.968 146.881C523.252 163.294 515.008 162.033 511.726 159.351C506.674 150.522 508.559 131.745 510.133 123.46C504.952 130.232 503.645 149.81 503.638 158.752C485.658 134.657 509.119 101.976 523.097 88.6481C528.186 101.22 536.685 130.468 529.968 146.881Z" fill="#85AE59"/>
<path d="M584.946 197.081C571.713 190.53 567.007 195.353 566.308 198.584C567.765 206.381 579.115 216.734 584.608 220.936C577.574 219.422 566.17 208.303 561.347 202.932C562.584 226.279 595.522 234.346 611.836 235.461C608.386 225.397 598.178 203.631 584.946 197.081Z" fill="#BDD2A6"/>
<path d="M361.227 128.993C360.732 145.719 353.031 147.336 349.243 146.054C341.854 139.928 337.298 122.716 335.944 114.875C333.611 122.573 338.942 140.302 341.901 148.205C318.031 132.876 327.929 96.2309 335.862 79.8251C344.523 89.2454 361.722 112.268 361.227 128.993Z" fill="#BDD2A6"/>
<path d="M21.3413 27.0179C62.7216 55.8242 56.9632 80.6216 48.9115 89.4194C31.7017 71.785 28.3725 53.7448 28.859 46.9289C24.3458 58.9989 35.4461 83.895 43.2908 91.5074C28.2935 95.1366 14.3224 67.3471 18.5169 53.549C21.8726 42.5107 21.7981 31.2624 21.3413 27.0179Z" fill="#85AE59"/>
<path d="M343.385 40.3127C348.558 35.7693 347.031 32.906 345.62 32.0422C341.72 31.3083 335.054 34.3793 332.209 36.0066C334.031 33.2485 341.067 30.2879 344.357 29.1522C333.171 25.6115 324.172 38.3573 321.071 45.1729C326.353 45.4458 338.211 44.856 343.385 40.3127Z" fill="#BDD2A6"/>
<path d="M132.46 50.0652C138.014 49.8243 138.503 47.2497 138.052 45.9924C135.969 43.5567 130.22 42.1157 127.606 41.6996C130.149 40.8868 136.075 42.5843 138.72 43.5346C133.472 35.6457 121.36 39.1118 115.959 41.8309C119.145 44.676 126.906 50.306 132.46 50.0652Z" fill="#BDD2A6"/>
<path d="M143.255 99.2124C146.567 102.79 148.565 101.656 149.151 100.641C149.597 97.8661 147.299 93.2054 146.095 91.2212C148.081 92.4609 150.308 97.3853 151.173 99.6932C153.471 91.7092 144.281 85.5766 139.399 83.5083C139.305 87.2526 139.942 95.6353 143.255 99.2124Z" fill="#85AE59"/>
<path d="M260.354 103.428C270.4 96.2524 278.891 100.439 281.881 103.428C276.858 102.711 268.426 104.325 264.838 105.222C271.297 104.863 279.19 106.269 282.33 107.016C274.077 119.215 259.457 112.697 253.178 107.913L260.354 103.428Z" fill="#85AE59"/>
<path d="M364.852 63.7077C376.135 53.9209 386.838 57.9951 390.78 61.2556C384.649 60.9635 374.677 63.8685 370.459 65.3575C378.196 64.1897 387.863 64.9831 391.729 65.5257C383.18 81.1579 364.828 74.9731 356.72 69.9267L364.852 63.7077Z" fill="#85AE59"/>
<path d="M209.071 94.1812C194.236 120.835 206.852 140.537 215.013 147.057C211.866 134.917 213.5 113.762 214.71 104.702C215.612 120.664 221.239 139.664 223.94 147.169C251.594 123.537 231.565 89.4222 218.094 75.3191L209.071 94.1812Z" fill="#85AE59"/>
<path d="M246.899 43.7791C258.38 44.1378 263.643 54.0943 264.838 59.0277C263.762 60.8216 262.596 59.1771 262.147 58.1307C260.712 53.4664 255.868 49.9084 253.626 48.7124C259.008 53.3767 260.653 59.0277 260.802 61.2701C259.905 68.446 246.899 57.2337 246.899 43.7791Z" fill="#BDD2A6"/>
<path d="M102.982 68.7228C85.3523 95.977 98.9684 123.436 107.979 133.759C113.682 133.997 111.909 128.771 110.31 126.128C102.279 115.66 102.168 98.9559 103.117 91.9119C104.815 111.559 116.651 131.011 121.379 134.787C138.718 143.669 132.792 89.2887 102.982 68.7228Z" fill="#BDD2A6"/>
<path d="M89.6299 10.4609C100.395 6.45155 109.032 13.6789 112.004 17.7937C111.686 19.8615 109.984 18.7801 109.173 17.9808C106.081 14.2056 100.252 12.7434 97.7233 12.4842C104.469 14.767 108.129 19.3765 109.115 21.396C110.999 28.3782 94.7184 22.9166 89.6299 10.4609Z" fill="#BDD2A6"/>
<path d="M385.095 112.099C393.165 99.782 407.573 100.683 413.769 102.674C415.011 105.051 412.433 105.227 410.989 105.018C404.928 103.469 397.797 106.387 394.989 108.04C403.69 105.272 410.97 107.253 413.523 108.588C420.771 114.368 399.811 121.096 385.095 112.099Z" fill="#BDD2A6"/>
<path d="M295.336 51.8519C284.931 57.9513 281.432 55.5893 280.984 53.6459C284.213 47.9052 291.897 44.6761 295.336 43.7791C286.725 44.1379 280.984 49.3105 279.19 51.8519C279.19 37.859 296.681 38.8457 306.996 37.9487C307.445 40.0417 305.741 45.7524 295.336 51.8519Z" fill="#85AE59"/>
<path d="M409.875 37.0992C406.48 48.5265 402.361 49.1827 400.725 48.0824C399.181 41.7582 402.549 34.2398 404.425 31.2712C398.451 37.3431 397.798 44.9525 398.219 47.9982C388.773 37.8963 402.066 26.8013 408.908 19.1904C410.644 20.3987 413.27 25.6719 409.875 37.0992Z" fill="#85AE59"/>
<path d="M181.114 73.4407C174.811 80.5347 171.62 79.6181 170.812 78.2731C171.832 73.1926 176.796 68.9078 179.15 67.4006C172.795 69.7631 169.758 75.0293 169.033 77.3671C165.631 66.8974 178.957 63.3821 186.457 60.2024C187.302 61.6593 187.416 66.3466 181.114 73.4407Z" fill="#85AE59"/>
<path d="M256.318 27.6335C251.654 27.9923 246.9 22.7001 245.106 20.0092C251.833 23.4244 248.694 21.8032 254.524 24.9426C259.189 27.4541 259.458 24.4941 259.009 22.7001C253.269 12.2952 241.668 11.1889 236.585 11.9364C242.684 30.2348 252.282 30.0254 256.318 27.6335Z" fill="#85AE59"/>
<path d="M96.4792 156.055C115.443 156.639 117.299 148.133 115.857 143.807C122.159 148.341 132.447 158.646 123.186 163.598C113.924 168.549 98.5189 170.046 94.9741 168.023C91.9423 166.293 84.6345 164.878 76.8653 172.827C67.1537 182.763 60.3555 196.692 41.3647 197.068C20.6358 196.884 14.1382 206.2 13.4805 210.882C13.0192 206.192 16.2756 196.217 32.9915 193.83C53.8864 190.846 60.4398 182.714 60.4628 178.902C60.4858 175.09 72.7745 155.324 96.4792 156.055Z" fill="white"/>
<path d="M71.9121 150.605C76.9602 155.31 75.3105 158.129 73.8546 158.949C69.8905 159.564 63.2801 156.285 60.4704 154.569C62.2057 157.386 69.1932 160.565 72.4701 161.803C61.0477 165.001 52.4496 151.969 49.5784 145.053C54.9194 144.943 66.8638 145.898 71.9121 150.605Z" fill="#BDD2A6"/>
<path d="M77.8596 189.637C77.5101 178.155 87.1229 172.289 91.9738 170.791C93.8305 171.756 92.2608 173.02 91.2445 173.532C86.6772 175.253 83.4245 180.306 82.369 182.618C86.6927 176.959 92.2312 174.969 94.4602 174.682C101.678 175.135 91.2885 188.807 77.8596 189.637Z" fill="#BDD2A6"/>
<path d="M43.2855 176.24C52.3042 179.646 52.4103 183.03 51.3359 184.296C45.9856 185.191 40.1708 182.029 37.9323 180.336C42.2868 185.534 48.461 186.496 51.0039 186.327C41.725 193.427 34.0177 181.998 28.4917 176.009C29.6651 174.667 34.2667 172.834 43.2855 176.24Z" fill="#85AE59"/>
<path d="M49.4534 204.819C50.0989 209.452 45.1098 214.524 42.5346 216.48C45.5286 209.554 44.104 212.788 46.8781 206.775C49.0973 201.965 46.1264 201.879 44.3635 202.437C34.3322 208.808 33.943 220.455 35.0023 225.482C52.89 218.267 52.0895 208.7 49.4534 204.819Z" fill="#85AE59"/>
<path d="M783.672 139.098C766.001 146.003 767.632 154.555 770.657 157.968C763.081 156.271 746.282 158.297 749.656 148.352C752.796 139.098 774.323 127.499 780.36 127.499C783.851 127.499 791.104 126.333 795.13 115.972C800.163 103.023 800.949 87.5436 818.268 79.7439C837.407 71.7779 839.726 60.6591 838.494 56.0953C840.759 60.2274 841.679 70.6806 827.24 79.4364C809.193 90.3808 806.358 100.433 807.832 103.949C809.307 107.464 805.762 130.466 783.672 139.098Z" fill="white"/>
<path d="M812.707 127.308C807.108 126.475 806.912 123.803 807.515 122.572C809.908 120.313 815.901 119.455 818.597 119.309C816.115 118.212 809.914 119.312 807.124 119.999C813.357 112.526 825.227 117.337 830.383 120.676C826.825 123.234 818.308 128.142 812.707 127.308Z" fill="#BDD2A6"/>
<path d="M787.617 100.903C792.445 111.326 785.906 120.494 782.032 123.775C779.946 123.618 780.893 121.838 781.627 120.968C785.152 117.593 786.161 111.669 786.224 109.128C784.469 116.03 780.155 120.034 778.218 121.173C771.402 123.589 775.591 106.936 787.617 100.903Z" fill="#BDD2A6"/>
<path d="M823.737 100.661C814.234 102.285 812.431 99.4188 812.717 97.7836C816.879 94.3042 823.496 94.0917 826.283 94.42C819.898 92.138 814.084 94.4316 811.977 95.8632C816.39 85.0454 828.819 91.0061 836.616 93.3777C836.282 95.1286 833.239 99.0376 823.737 100.661Z" fill="#85AE59"/>
<path d="M807.785 75.7902C805.373 71.782 807.971 65.1597 809.573 62.3496C809.537 69.8941 809.578 66.361 809.386 72.9801C809.233 78.2753 811.999 77.1886 813.402 75.9832C820.127 66.1863 815.914 55.3211 812.967 51.113C799.346 64.7702 803.837 73.2549 807.785 75.7902Z" fill="#85AE59"/>
<path d="M347.273 25.0458C344.507 21.2733 346.493 14.4422 347.832 11.4984C348.482 19.015 348.202 15.4927 348.613 22.1018C348.941 27.3891 351.597 26.0556 352.884 24.7279C358.692 14.3607 353.51 3.92297 350.192 0C337.869 14.8376 343.111 22.8795 347.273 25.0458Z" fill="#85AE59"/>
<path d="M141.761 36.8942C138.995 33.1217 140.981 26.2907 142.32 23.3468C142.969 30.8634 142.69 27.3411 143.099 33.9503C143.428 39.2376 146.085 37.9041 147.372 36.5764C153.18 26.2091 147.997 15.7714 144.68 11.8484C132.356 26.686 137.599 34.728 141.761 36.8942Z" fill="#85AE59"/>
<path d="M337.697 216.489C341.499 191.071 355.456 194.45 361.959 199.316C356.338 187.897 342.555 167.264 332.39 176.091C322.225 184.917 316.008 204.214 318.333 210.275C320.321 215.46 320.743 226.069 306.195 230.874C288.01 236.878 264.217 236.305 258.884 261.099C254.006 288.571 237.605 290.76 230.015 288.421C237.34 292.242 253.978 294.78 261.933 274.364C271.877 248.843 286.414 245.769 292.467 248.35C298.521 250.931 332.943 248.26 337.697 216.489Z" fill="white"/>
<path d="M319.139 257.259C316.007 249.586 312.09 250.516 310.522 251.939C308.094 256.403 308.925 265.406 309.643 269.349C307.207 266.277 306.655 256.864 306.682 252.543C298.063 264.886 309.088 279.772 315.677 285.672C318.136 279.398 322.271 264.932 319.139 257.259Z" fill="#BDD2A6"/>
<path d="M286.441 213.365C290.421 227.798 301.632 230.008 306.74 229.309C301.454 226.288 294.74 218.47 292.043 214.939C297.858 220.071 306.377 224.548 309.909 226.145C311.464 208.146 292.69 203.669 283.108 203.681L286.441 213.365Z" fill="#85AE59"/>
<path d="M219.512 221.695C231.988 190.057 257.449 183.765 268.619 184.574C256.117 191.805 239.232 209.564 232.353 217.54C246.563 205.688 266.614 194.881 274.863 190.958C273.788 229.523 230.951 241.732 209.668 243.015L219.512 221.695Z" fill="#85AE59"/>
<path d="M15.3277 106.649C37.1968 100.247 50.9913 111.132 55.1549 117.376C46.1902 113.733 29.8525 112.098 22.8043 111.736C34.9165 114.384 48.8769 120.552 54.3431 123.303C33.4947 138.586 9.42754 120.938 0 110.203L15.3277 106.649Z" fill="#85AE59"/>
<path d="M226.978 263.139C237.913 271.165 250.392 265.336 255.266 261.418C255.634 258.891 253.298 259.637 252.083 260.326C247.193 263.808 239.981 263.73 236.987 263.255C245.542 262.652 251.379 258.364 253.228 256.296C257.868 248.674 237.239 250.074 226.978 263.139Z" fill="#BDD2A6"/>
<path d="M278.543 291.004C273.295 277.201 268.128 276.891 266.201 278.462C264.862 286.523 269.722 295.464 272.319 298.928C264.36 292.107 262.858 282.717 263.102 278.875C252.314 292.611 269.802 304.781 278.976 313.41C281.018 311.693 283.791 304.807 278.543 291.004Z" fill="#85AE59"/>
<path d="M132.609 317.603C132.044 305.587 127.712 305.689 125.617 307.242C122.18 314.584 123.795 322.261 125.032 325.182C120.162 319.639 121.547 311.312 122.848 307.842C109.712 320.978 121.213 330.627 126.609 337.706C128.844 336.012 133.174 329.62 132.609 317.603Z" fill="#85AE59"/>
<path d="M381.605 262.742C403.682 240.603 399.784 230.361 395.075 228.008C378.353 232.439 365.321 249.597 360.896 257.623C367.136 236.327 383.953 225.259 391.581 222.386C355.684 213.513 347.408 257.858 338.733 283.071C343.826 285.52 359.529 284.881 381.605 262.742Z" fill="#BDD2A6"/>
<path d="M222.708 287.178C218.682 283.448 210.229 285.183 206.506 286.517C215.336 288.049 211.195 287.361 218.985 288.512C225.217 289.433 223.19 292.525 221.398 293.955C208.104 299.979 196.555 292.658 192.441 288.244C212.133 274.755 220.824 281.913 222.708 287.178Z" fill="#85AE59"/>
<path d="M608.135 202.193C605.102 181.752 593.967 184.469 588.779 188.383C593.263 179.2 604.26 162.606 612.369 169.705C620.479 176.803 625.438 192.322 623.583 197.197C621.997 201.366 621.661 209.898 633.267 213.761C647.776 218.59 666.757 218.129 671.013 238.068C674.904 260.162 687.988 261.923 694.044 260.041C688.2 263.114 674.926 265.154 668.579 248.736C660.645 228.212 649.048 225.74 644.219 227.816C639.39 229.892 611.928 227.743 608.135 202.193Z" fill="white"/>
<path d="M623.822 237.007C622.525 230.477 625.547 229.387 627.22 229.658C630.81 231.597 634.228 238.012 635.49 240.978C635.759 237.847 631.974 231.276 630.049 228.383C641.244 232.909 640.46 247.742 638.668 254.594C634.26 251.452 625.118 243.536 623.822 237.007Z" fill="#BDD2A6"/>
<path d="M649.449 199.03C646.274 210.636 637.33 212.414 633.255 211.851C637.472 209.422 642.829 203.135 644.98 200.295C640.341 204.423 633.545 208.023 630.727 209.307C629.486 194.832 644.465 191.232 652.109 191.241L649.449 199.03Z" fill="#85AE59"/>
<path d="M707.383 213.514C700.284 187.132 680.65 179.871 671.721 179.539C680.996 186.414 692.817 202.09 697.567 209.068C687.346 198.349 672.4 187.953 666.206 184.094C663.652 215.015 696.542 228.527 713.305 231.419L707.383 213.514Z" fill="#85AE59"/>
<path d="M696.735 244.038C688.011 250.492 678.053 245.804 674.166 242.654C673.871 240.621 675.736 241.221 676.705 241.776C680.606 244.576 686.359 244.513 688.749 244.131C681.924 243.646 677.266 240.198 675.792 238.535C672.09 232.405 688.548 233.531 696.735 244.038Z" fill="#BDD2A6"/>
<path d="M667.512 262.611C669.101 255.235 667.224 253.381 666.087 253.376C663.49 256.212 663.013 261.478 663.099 263.756C661.852 258.318 663.717 253.991 664.805 252.509C657.156 254.495 660.628 265.298 661.867 271.88C663.086 271.863 665.922 269.986 667.512 262.611Z" fill="#85AE59"/>
<path d="M706.558 263.526C709.77 260.527 716.514 261.922 719.485 262.994C712.44 264.226 715.744 263.673 709.529 264.599C704.556 265.34 706.173 267.826 707.604 268.976C718.209 273.821 727.424 267.933 730.705 264.384C714.995 253.536 708.062 259.293 706.558 263.526Z" fill="#85AE59"/>
<path d="M553.291 121.452C559.393 127.06 562.541 124.55 563.352 122.595C563.648 117.522 559.062 109.731 556.731 106.47C560.244 108.211 564.754 116.491 566.57 120.412C569.109 105.574 552.794 96.8022 544.318 94.2719C544.767 100.996 547.188 115.845 553.291 121.452Z" fill="#BDD2A6"/>
<path d="M612.445 112.29C597.738 109.494 590.808 118.579 589.181 123.471C594.224 120.061 604.203 117.485 608.561 116.624C601.39 119.577 593.614 125.246 590.623 127.711C606.089 137.05 618.39 122.176 622.607 113.572L612.445 112.29Z" fill="#85AE59"/>
<path d="M677.293 89.4977C678.393 123.489 657.519 139.366 646.944 143.056C655.551 131.459 664.005 108.458 667.155 98.4061C658.813 114.923 644.696 132.799 638.68 139.672C624.367 103.846 658.843 75.6445 677.87 66.0219L677.293 89.4977Z" fill="#85AE59"/>
<path d="M841.14 173.579C814.642 154.195 789.303 161.042 779.945 166.889C794.43 166.824 817.934 173.103 827.875 176.251C809.62 173.431 786.779 174.162 777.64 174.881C797.596 205.092 841.029 194.864 860.25 185.974L841.14 173.579Z" fill="#BDD2A6"/>
<path d="M611.522 77.1306C599.288 71.2722 588.105 79.3153 584.043 84.0691C584.15 86.6207 586.308 85.454 587.374 84.5516C591.533 80.2228 598.634 78.962 601.665 78.8726C593.369 81.0525 588.43 86.3483 586.996 88.7238C583.851 97.074 603.861 91.8715 611.522 77.1306Z" fill="#BDD2A6"/>
<path d="M570.285 47.8901C570.137 60.6421 574.191 62.5247 576.236 61.872C579.861 55.8177 578.784 47.0953 577.792 43.4909C582.031 51.489 580.268 59.5094 578.857 62.5199C591.87 54.8944 581.666 39.5832 577.024 29.7477C574.839 30.4819 570.433 35.1383 570.285 47.8901Z" fill="#85AE59"/>
<path d="M609.867 42.2888C615.352 42.5171 620.66 35.7144 622.629 32.2845C614.915 36.8454 618.513 34.6829 611.836 38.8589C606.495 42.1997 606.033 38.5316 606.47 36.28C612.681 23.0737 626.221 21.1562 632.215 21.8483C625.974 44.8865 614.717 45.0745 609.867 42.2888Z" fill="#85AE59"/>
<path d="M442.961 175.897C451.213 181.279 451.781 191.594 451.034 196.079C418.743 198.321 426.816 192.491 419.191 179.933C411.567 167.376 417.846 142.709 429.955 135.533C439.642 129.792 436.384 123.275 433.543 120.733C428.311 116.996 418.563 106.83 421.434 96.0658C424.304 85.3023 412.764 71.8476 406.634 66.4657C361.785 33.8157 332.633 23.5603 323.663 22.5138C327.102 22.5138 335.683 22.9623 342.5 24.7562C351.021 26.9987 392.282 48.9747 406.634 56.599C420.985 64.2233 428.161 68.7082 433.543 85.3023C438.925 101.896 432.646 93.8234 446.549 109.521C460.452 125.218 451.034 144.054 442.961 148.988C434.888 153.921 432.646 169.17 442.961 175.897Z" fill="white"/>
<path d="M725.352 220.504C730.83 215.015 733.943 216.914 734.814 218.549C735.363 222.963 731.436 230.221 729.403 233.297C732.635 231.44 736.464 223.762 737.976 220.155C741.165 232.909 726.189 242.135 718.302 245.154C718.369 239.224 719.874 225.991 725.352 220.504Z" fill="#BDD2A6"/>
<path d="M823.746 228.952C821.179 234.506 823.451 236.282 824.907 236.476C828.34 235.669 832.65 230.774 834.376 228.428C833.888 231.324 829.238 236.263 826.974 238.37C837.337 237.219 840.059 223.624 840.125 216.97C835.735 218.65 826.313 223.399 823.746 228.952Z" fill="#BDD2A6"/>
<path d="M799.147 222.582C793.504 234.594 783.341 235.138 778.965 233.908C784.052 231.937 791.106 225.988 793.998 223.259C788.133 226.993 779.994 229.83 776.657 230.78C777.975 215.002 795.111 213.42 803.514 214.602L799.147 222.582Z" fill="#85AE59"/>
<path d="M773.874 192.113C771.752 205.025 759.722 209.481 753.972 210.093C752.107 208.61 754.138 207.539 755.387 207.189C760.868 206.265 765.611 201.327 767.297 198.973C761.225 204.354 754.598 205.366 752.042 205.2C744.073 203.115 758.679 190.102 773.874 192.113Z" fill="#BDD2A6"/>
<path d="M770.833 257.265C763.979 249.187 765.492 245.803 767.105 245.12C772.562 247.043 776.52 253.202 777.817 256.04C776.201 248.645 770.856 244.463 768.386 243.297C780.491 241.175 782.289 256.456 784.629 265.244C782.886 265.95 777.687 265.341 770.833 257.265Z" fill="#85AE59"/>
<path d="M823.752 245.811C827.684 247.163 829.696 253.155 830.211 255.983C825.927 250.826 827.917 253.255 824.268 248.639C821.348 244.946 820.085 247.266 819.819 248.888C820.834 259.398 829.907 264.39 834.317 265.571C835.791 248.495 827.888 245.283 823.752 245.811Z" fill="#85AE59"/>
<path d="M721.724 172.478C714.326 171.375 710.819 164.534 709.99 161.251C731.914 149.711 728.022 156.181 737.143 162.36C746.266 168.538 749.308 187.267 742.996 195.905C737.947 202.815 742.192 206.239 744.947 207.087C749.736 208.007 759.622 211.9 760.859 220.113C762.095 228.326 774.229 233.9 780.141 235.661C821.373 243.964 844.869 241.9 851.461 239.83C849.055 240.897 842.914 243.253 837.602 244.146C830.962 245.264 795.459 243.109 783.115 242.374C770.773 241.637 764.398 240.812 755.628 231.191C746.859 221.571 753.687 225.116 739.224 218.748C724.761 212.382 725.675 196.645 729.837 190.785C733.999 184.925 730.972 173.855 721.724 172.478Z" fill="white"/>
<path d="M199.077 260.613C198.626 254.599 195.7 254.376 194.294 255.017C191.608 257.575 190.165 264.001 189.779 266.895C188.778 264.226 190.506 257.576 191.494 254.585C182.747 261.238 187.055 274 190.303 279.55C193.416 275.743 199.529 266.626 199.077 260.613Z" fill="#BDD2A6"/>
<path d="M158.703 196.357C167.655 182.608 163.052 177.51 159.631 176.679C150.942 177.987 138.109 189.641 132.779 195.305C135.394 187.94 149.07 176.25 155.58 171.327C129.992 171.948 116.677 206.411 113.219 223.565C124.65 220.224 149.752 210.105 158.703 196.357Z" fill="#85AE59"/>
<path d="M88.6198 302.694C92.2051 307.905 90.3815 310.418 89.0217 311.023C85.5614 311.102 80.4352 307.068 78.3046 305.042C79.3576 307.993 84.8191 311.979 87.4179 313.604C77.2336 315.214 71.8784 301.483 70.4739 294.417C75.0288 295.004 85.035 297.482 88.6198 302.694Z" fill="#BDD2A6"/>
<path d="M111.186 283.611C119.027 294.858 128.897 292.657 132.852 290.15C127.57 289.444 119.595 285.039 116.268 282.924C122.654 285.296 131.043 286.089 134.439 286.189C129.992 269.749 113.215 272.752 105.383 276.308L111.186 283.611Z" fill="#85AE59"/>
<path d="M137.259 240.244C141.899 253.413 154.351 254.865 159.998 253.946C161.49 251.856 159.323 251.271 158.053 251.239C152.602 251.755 147.052 247.794 144.958 245.749C151.875 249.818 158.444 249.083 160.864 248.207C168.098 243.806 151.447 233.947 137.259 240.244Z" fill="#BDD2A6"/>
<path d="M168.328 304.371C167.537 293.143 164.239 291.884 162.689 292.658C160.291 298.336 161.752 305.901 162.783 308.974C158.906 302.355 159.711 295.13 160.598 292.344C150.985 300.322 160.038 312.788 164.361 320.984C166.013 320.125 169.12 315.6 168.328 304.371Z" fill="#85AE59"/>
<path d="M89.1572 318.03C86.1111 321.22 86.5619 328.121 87.1677 331.174C89.09 324.036 88.21 327.385 89.7627 321.083C91.005 316.041 93.0277 317.754 93.8843 319.24C96.9511 330.166 90.631 339.387 87.0879 342.634C79.2781 326.352 85.2131 319.448 89.1572 318.03Z" fill="#85AE59"/>
<path d="M198.581 188.113C206.61 184.266 208.97 174.432 209.147 169.996C181.967 162.627 187.804 169.54 179.008 180.393C170.212 191.246 171.093 215.995 180.133 224.854C187.366 231.941 183.397 237.687 180.508 239.674C175.359 242.426 165.184 250.635 165.679 261.455C166.175 272.276 153.87 283.36 147.655 287.549C103.405 311.729 76.6351 316.893 68.7817 316.453C71.7193 317.007 79.132 317.96 85.2821 317.334C92.9694 316.552 132.215 302.064 145.862 297.044C159.509 292.023 166.454 288.866 174.069 273.767C181.682 258.668 174.851 265.423 189.582 252.562C204.313 239.701 199.691 220.056 193.69 214.006C187.69 207.956 188.546 192.922 198.581 188.113Z" fill="white"/>
<path d="M525.295 239.756C514.179 215.826 502.451 218.832 497.976 223.326C499.674 212.662 506.056 193.442 517.992 201.859C529.929 210.276 541.407 228.485 541.108 234.153C540.851 239.001 543.657 248.966 558.386 253.656C576.798 259.52 598.351 259.27 610.678 282.634C623.394 308.508 639.028 310.765 645.256 308.659C639.716 312.16 625.286 314.343 611.883 295.061C595.127 270.96 583.889 270.246 576.178 270.246C568.466 270.246 539.19 269.67 525.295 239.756Z" fill="white"/>
<path d="M533.865 273.689C536.56 264.477 541.093 264.767 543.022 266.064C546.26 270.606 546.314 280.868 545.936 285.431C548.352 281.516 547.94 270.847 547.432 266.003C558.54 278.199 547.714 297.022 540.913 304.908C537.44 298.341 531.169 282.901 533.865 273.689Z" fill="#BDD2A6"/>
<path d="M578.654 241.923C564.605 249.527 551.313 241.244 546.422 236.152C546.46 233.243 549.013 234.403 550.284 235.347C555.273 239.948 563.584 240.835 567.117 240.703C557.384 238.863 551.453 233.223 549.704 230.632C545.76 221.381 569.238 225.753 578.654 241.923Z" fill="#BDD2A6"/>
<path d="M583.597 293.254C582.198 279.919 586.337 277.674 588.581 278.219C593.035 284.308 592.736 293.51 592.03 297.348C595.77 288.691 593.11 280.418 591.313 277.363C605.93 284.46 596.54 301.174 592.548 311.782C590.148 311.162 584.996 306.587 583.597 293.254Z" fill="#85AE59"/>
<path d="M615.259 267.742C620.613 264.047 630.031 267.079 634.07 269.058C623.595 269.662 628.502 269.413 619.298 269.721C611.935 269.967 613.683 273.712 615.478 275.554C629.659 284.041 644.375 277.252 649.961 272.797C629.824 255.074 618.436 262.043 615.259 267.742Z" fill="#85AE59"/>
<path d="M168.76 124.49C176.336 131.317 175.073 144.118 173.496 149.665C169.708 164.684 161.873 155.923 158.43 149.665C161.156 149.665 164.972 145.91 158.43 130.891C151.886 115.872 151.017 113.823 152.403 105.289C173.496 61.3417 133.75 34.4609 112.802 22.5138C165.489 46.408 170.626 82.5336 166.609 97.6095C164.169 103.725 161.185 117.663 168.76 124.49Z" fill="white"/>
<path d="M726.923 73.5103C730.138 78.0462 732.566 77.0597 733.378 75.9994C734.295 72.9283 732.387 67.3171 731.318 64.8954C733.381 66.591 735.169 72.4896 735.805 75.227C739.587 66.5403 730.105 58.2439 724.891 55.1816C724.229 59.4013 723.709 68.9746 726.923 73.5103Z" fill="#BDD2A6"/>
<path d="M691.489 109.238C690.281 113.961 692.318 115.024 693.487 114.965C696.061 113.836 698.73 109.377 699.743 107.289C699.78 109.63 696.849 114.171 695.38 116.15C703.334 113.751 703.502 102.703 702.592 97.4803C699.394 99.4313 692.698 104.514 691.489 109.238Z" fill="#85AE59"/>
<path d="M736.965 16.0472C746.171 22.916 744.784 34.0918 742.94 38.8211C741.03 39.6754 741.016 37.6595 741.247 36.5448C742.741 31.8991 740.808 26.2086 739.655 23.944C741.396 30.8497 739.508 36.4241 738.346 38.348C733.502 43.7172 729.26 27.0775 736.965 16.0472Z" fill="#BDD2A6"/>
<path d="M733.675 127.064C724.297 125.618 723.336 122.44 724.028 121.03C728.849 119.132 735.141 120.978 737.684 122.139C732.252 118.081 726.181 118.385 723.824 119.045C730.774 110.508 740.956 119.797 747.695 124.373C746.929 125.873 743.053 128.511 733.675 127.064Z" fill="#85AE59"/>
<path d="M743.033 74.1806C744.702 69.8103 751.518 67.774 754.718 67.3021C748.756 71.9248 751.563 69.7792 746.232 73.7087C741.969 76.8522 744.53 78.3605 746.344 78.7217C758.203 77.9784 764.161 67.9629 765.658 63.0482C746.508 60.7426 742.596 69.5091 743.033 74.1806Z" fill="#85AE59"/>
<path d="M684.086 144.376C682.46 154.444 671.021 160.326 665.505 162.009C650.832 166.973 653.943 155.639 657.333 149.352C658.812 151.642 664.037 152.811 673.105 139.168C682.175 125.525 683.424 123.684 691.344 120.22C739.707 114.102 740.732 66.131 739.406 42.0514C747.91 99.2753 720.346 123.186 705.501 127.988C699.041 129.256 685.712 134.309 684.086 144.376Z" fill="white"/>
<path d="M572.054 111.763C572.054 137.775 538.865 152.875 517.338 164.685C517.338 177.242 544.247 168.721 556.805 162.442C576.538 152.576 589.545 131.048 587.302 115.799C584.392 96.0103 581.92 85.7508 582.817 82.6114C587.827 63.397 604.626 49.0548 615.486 37.5804C616.505 36.5523 617.276 35.7061 617.799 35.0715C617.066 35.8926 616.293 36.7286 615.486 37.5804C610.985 42.124 601.639 50.2199 587.302 59.2899C565.326 73.1931 572.054 87.0597 572.054 111.763Z" fill="white"/>
</svg>
