<svg width="1097" height="646" viewBox="0 0 1097 646" fill="none" xmlns="http://www.w3.org/2000/svg">
<path d="M84.2 597.2C73.5333 597.2 63.6667 595.467 54.6 592C45.6667 588.4 37.8667 583.4 31.2 577C24.6667 570.6 19.5333 563.067 15.8 554.4C12.2 545.733 10.4 536.267 10.4 526C10.4 515.733 12.2 506.267 15.8 497.6C19.5333 488.933 24.7333 481.4 31.4 475C38.0667 468.6 45.8667 463.667 54.8 460.2C63.8667 456.6 73.7333 454.8 84.4 454.8C95.0667 454.8 104.8 456.467 113.6 459.8C122.533 463.133 130.133 468.2 136.4 475L127.2 484.4C121.333 478.533 114.867 474.333 107.8 471.8C100.733 469.267 93.1333 468 85 468C76.3333 468 68.3333 469.467 61 472.4C53.8 475.2 47.4667 479.267 42 484.6C36.6667 489.8 32.4667 495.933 29.4 503C26.4667 509.933 25 517.6 25 526C25 534.267 26.4667 541.933 29.4 549C32.4667 556.067 36.6667 562.267 42 567.6C47.4667 572.8 53.8 576.867 61 579.8C68.3333 582.6 76.2667 584 84.8 584C92.8 584 100.333 582.8 107.4 580.4C114.6 578 121.2 573.933 127.2 568.2L135.6 579.4C128.933 585.267 121.133 589.733 112.2 592.8C103.267 595.733 93.9333 597.2 84.2 597.2ZM121.4 577.6V526H135.6V579.4L121.4 577.6ZM219.088 597C208.154 597 198.554 594.733 190.288 590.2C182.021 585.533 175.554 579.2 170.888 571.2C166.221 563.067 163.888 553.8 163.888 543.4C163.888 533 166.088 523.8 170.488 515.8C175.021 507.8 181.154 501.533 188.888 497C196.754 492.333 205.554 490 215.288 490C225.154 490 233.888 492.267 241.488 496.8C249.221 501.2 255.288 507.467 259.688 515.6C264.088 523.6 266.288 532.867 266.288 543.4C266.288 544.067 266.221 544.8 266.088 545.6C266.088 546.267 266.088 547 266.088 547.8H174.688V537.2H258.488L252.888 541.4C252.888 533.8 251.221 527.067 247.888 521.2C244.688 515.2 240.288 510.533 234.688 507.2C229.088 503.867 222.621 502.2 215.288 502.2C208.088 502.2 201.621 503.867 195.888 507.2C190.154 510.533 185.688 515.2 182.488 521.2C179.288 527.2 177.688 534.067 177.688 541.8V544C177.688 552 179.421 559.067 182.888 565.2C186.488 571.2 191.421 575.933 197.688 579.4C204.088 582.733 211.354 584.4 219.488 584.4C225.888 584.4 231.821 583.267 237.288 581C242.888 578.733 247.688 575.267 251.688 570.6L259.688 579.8C255.021 585.4 249.154 589.667 242.088 592.6C235.154 595.533 227.488 597 219.088 597ZM348.791 490C357.324 490 364.791 491.667 371.191 495C377.724 498.2 382.791 503.133 386.391 509.8C390.124 516.467 391.991 524.867 391.991 535V596H377.791V536.4C377.791 525.333 374.991 517 369.391 511.4C363.924 505.667 356.191 502.8 346.191 502.8C338.724 502.8 332.191 504.333 326.591 507.4C321.124 510.333 316.857 514.667 313.791 520.4C310.857 526 309.391 532.8 309.391 540.8V596H295.191V491H308.791V519.8L306.591 514.4C309.924 506.8 315.257 500.867 322.591 496.6C329.924 492.2 338.657 490 348.791 490ZM796.753 596V491H810.353V519.6L808.953 514.6C811.886 506.6 816.82 500.533 823.753 496.4C830.686 492.133 839.286 490 849.553 490V503.8C849.02 503.8 848.486 503.8 847.953 503.8C847.42 503.667 846.886 503.6 846.353 503.6C835.286 503.6 826.62 507 820.353 513.8C814.086 520.467 810.953 530 810.953 542.4V596H796.753ZM919.088 597C908.154 597 898.554 594.733 890.288 590.2C882.021 585.533 875.554 579.2 870.888 571.2C866.221 563.067 863.888 553.8 863.888 543.4C863.888 533 866.088 523.8 870.488 515.8C875.021 507.8 881.154 501.533 888.888 497C896.754 492.333 905.554 490 915.288 490C925.154 490 933.888 492.267 941.488 496.8C949.221 501.2 955.288 507.467 959.688 515.6C964.088 523.6 966.288 532.867 966.288 543.4C966.288 544.067 966.221 544.8 966.088 545.6C966.088 546.267 966.088 547 966.088 547.8H874.688V537.2H958.488L952.888 541.4C952.888 533.8 951.221 527.067 947.888 521.2C944.688 515.2 940.288 510.533 934.688 507.2C929.088 503.867 922.621 502.2 915.288 502.2C908.088 502.2 901.621 503.867 895.888 507.2C890.154 510.533 885.688 515.2 882.488 521.2C879.288 527.2 877.688 534.067 877.688 541.8V544C877.688 552 879.421 559.067 882.888 565.2C886.488 571.2 891.421 575.933 897.688 579.4C904.088 582.733 911.354 584.4 919.488 584.4C925.888 584.4 931.821 583.267 937.288 581C942.888 578.733 947.688 575.267 951.688 570.6L959.688 579.8C955.021 585.4 949.154 589.667 942.088 592.6C935.154 595.533 927.488 597 919.088 597ZM1039.79 597C1028.86 597 1019.26 594.733 1010.99 590.2C1002.72 585.533 996.257 579.2 991.591 571.2C986.924 563.067 984.591 553.8 984.591 543.4C984.591 533 986.791 523.8 991.191 515.8C995.724 507.8 1001.86 501.533 1009.59 497C1017.46 492.333 1026.26 490 1035.99 490C1045.86 490 1054.59 492.267 1062.19 496.8C1069.92 501.2 1075.99 507.467 1080.39 515.6C1084.79 523.6 1086.99 532.867 1086.99 543.4C1086.99 544.067 1086.92 544.8 1086.79 545.6C1086.79 546.267 1086.79 547 1086.79 547.8H995.391V537.2H1079.19L1073.59 541.4C1073.59 533.8 1071.92 527.067 1068.59 521.2C1065.39 515.2 1060.99 510.533 1055.39 507.2C1049.79 503.867 1043.32 502.2 1035.99 502.2C1028.79 502.2 1022.32 503.867 1016.59 507.2C1010.86 510.533 1006.39 515.2 1003.19 521.2C999.991 527.2 998.391 534.067 998.391 541.8V544C998.391 552 1000.12 559.067 1003.59 565.2C1007.19 571.2 1012.12 575.933 1018.39 579.4C1024.79 582.733 1032.06 584.4 1040.19 584.4C1046.59 584.4 1052.52 583.267 1057.99 581C1063.59 578.733 1068.39 575.267 1072.39 570.6L1080.39 579.8C1075.72 585.4 1069.86 589.667 1062.79 592.6C1055.86 595.533 1048.19 597 1039.79 597Z" fill="#2C2C2C"/>
<path fill-rule="evenodd" clip-rule="evenodd" d="M470.678 562.392C498.893 539.233 523.865 518.736 521.299 474.142C521.299 379.96 527.847 300.846 559.42 237.34L585.881 216.261L621.312 237.34C622.689 240.965 624.165 244.632 625.704 248.459L625.706 248.463L625.707 248.465C639.535 282.841 658.536 330.079 658.536 474.142C658.536 526.402 700.164 553.767 731.682 574.485C741.803 581.137 750.881 587.106 757.204 592.992C748.683 594.786 728.321 597.297 715.046 592.992C701.771 588.686 683.802 591.198 676.476 592.992C676.201 592.92 675.856 592.83 675.44 592.721C637.729 557.141 624.156 497.27 626.75 474.305C638.265 372.361 627.443 352.886 617.4 348.117C617.56 348.291 617.726 348.467 617.897 348.648C622.722 353.763 631.447 363.013 617.4 446.711C605.853 515.512 623.444 560.862 640.023 583.963C633.486 582.966 632.327 584.78 631.048 586.783C629.234 589.624 627.179 592.843 609.203 588.956C605.054 588.059 600.691 587.384 596.227 586.892C596.727 582.458 597.521 577.904 598.371 573.028C602.181 551.179 607.122 522.846 591.925 469.657C573.566 405.403 587.25 307.222 601.793 282.016C602.033 281.615 602.27 281.224 602.505 280.843C602.267 281.215 602.03 281.606 601.793 282.016C585.854 308.732 559.458 381.254 581.426 466.518C598.161 531.472 588.165 576.978 579.585 585.842C560.622 585.427 542.323 587.395 532.959 588.956C532.857 588.924 532.754 588.893 532.649 588.861C547.925 575.859 575.08 532.485 562.56 456.651C550.432 383.19 557.965 375.071 562.131 370.582C562.219 370.487 562.306 370.393 562.39 370.301C562.448 370.239 562.504 370.177 562.56 370.115C553.889 374.301 544.545 391.395 554.487 480.87C556.71 500.872 545.187 552.768 513.197 584.08C501.437 581.858 489.384 580.955 485.419 584.919C481.914 588.425 480.016 587.195 477.778 585.746C474.862 583.858 471.369 581.597 462.995 588.956C451.155 599.36 440.72 595.982 436.983 592.992C447.707 581.246 459.449 571.609 470.678 562.392Z" fill="#2C2C2C"/>
<path d="M357.475 177.691C497.426 177.691 547.485 224.932 556.156 243.619L621.636 239.134C602.949 205.199 532.476 132.304 389.318 148.091C246.16 163.877 188.844 115.799 178.08 89.787C179.575 118.042 244.456 177.691 357.475 177.691Z" fill="#2C2C2C"/>
<path d="M821.661 177.947C681.71 177.947 631.65 225.326 622.98 244.067L557.5 239.57C576.187 205.535 646.66 132.428 789.818 148.261C932.975 164.094 990.292 115.876 1001.06 89.787C999.561 118.124 934.679 177.947 821.661 177.947Z" fill="#2C2C2C"/>
<path d="M429.233 126.75C418.469 144.33 429.532 149.024 436.408 149.174C426.691 153.509 406.718 159.579 404.566 149.174C402.413 138.769 408.368 123.803 413.087 121.181C417.123 118.939 422.954 112.577 415.778 102.531C406.808 89.9735 390.663 78.7612 400.081 60.8216C411.203 41.4469 401.426 32.1183 395.147 29.8759C402.025 31.0718 414.432 37.5899 409.051 54.0943C402.323 74.7248 410.396 83.6946 415.778 85.04C421.16 86.3855 442.687 104.774 429.233 126.75Z" fill="#2C2C2C"/>
<path d="M437.754 92.6645C431.654 95.8936 429.532 93.4117 429.233 91.7675C429.95 87.8207 435.213 82.6481 437.754 80.5552C434.525 81.2728 429.233 86.8341 426.99 89.525C427.708 77.6849 442.837 73.8279 450.312 73.3794C448.667 78.4622 443.853 89.4353 437.754 92.6645Z" fill="#BDD2A6"/>
<path d="M581.478 84.2378C573.736 88.2648 571.042 85.1699 570.662 83.1191C571.573 78.1971 578.252 71.7463 581.478 69.136C577.379 70.031 570.662 76.9666 567.816 80.3224C568.727 65.5564 587.929 60.7462 597.416 60.1869C595.329 66.5259 589.22 80.2106 581.478 84.2378Z" fill="#BDD2A6"/>
<path d="M662.968 146.881C656.252 163.294 648.008 162.033 644.726 159.351C639.674 150.522 641.559 131.745 643.133 123.46C637.952 130.232 636.645 149.81 636.638 158.752C618.657 134.657 642.119 101.976 656.097 88.6481C661.186 101.22 669.685 130.468 662.968 146.881Z" fill="#85AE59"/>
<path d="M717.946 197.081C704.713 190.53 700.007 195.353 699.308 198.584C700.765 206.381 712.115 216.734 717.608 220.936C710.575 219.422 699.17 208.303 694.347 202.932C695.584 226.279 728.522 234.346 744.836 235.461C741.387 225.397 731.178 203.631 717.946 197.081Z" fill="#BDD2A6"/>
<path d="M494.227 128.993C493.732 145.719 486.031 147.336 482.243 146.054C474.854 139.928 470.298 122.716 468.944 114.875C466.611 122.573 471.942 140.302 474.901 148.205C451.031 132.876 460.929 96.2309 468.862 79.8251C477.523 89.2454 494.722 112.268 494.227 128.993Z" fill="#BDD2A6"/>
<path d="M154.341 27.0179C195.722 55.8242 189.963 80.6216 181.911 89.4194C164.702 71.785 161.372 53.7448 161.859 46.9289C157.346 58.9989 168.446 83.895 176.291 91.5074C161.294 95.1366 147.322 67.3471 151.517 53.549C154.873 42.5107 154.798 31.2624 154.341 27.0179Z" fill="#85AE59"/>
<path d="M476.385 40.3127C481.558 35.7693 480.031 32.906 478.62 32.0422C474.72 31.3083 468.054 34.3793 465.209 36.0066C467.031 33.2485 474.067 30.2879 477.357 29.1522C466.171 25.6115 457.172 38.3573 454.071 45.1729C459.353 45.4458 471.211 44.856 476.385 40.3127Z" fill="#BDD2A6"/>
<path d="M265.46 50.0652C271.014 49.8243 271.503 47.2497 271.052 45.9924C268.969 43.5567 263.22 42.1157 260.606 41.6996C263.149 40.8868 269.075 42.5843 271.72 43.5346C266.472 35.6457 254.36 39.1118 248.959 41.8309C252.145 44.676 259.906 50.306 265.46 50.0652Z" fill="#BDD2A6"/>
<path d="M276.255 99.2124C279.567 102.79 281.565 101.656 282.151 100.641C282.597 97.8661 280.299 93.2054 279.095 91.2212C281.081 92.4609 283.308 97.3853 284.173 99.6932C286.471 91.7092 277.281 85.5766 272.399 83.5083C272.305 87.2526 272.942 95.6353 276.255 99.2124Z" fill="#85AE59"/>
<path d="M393.353 103.428C403.4 96.2524 411.891 100.439 414.881 103.428C409.858 102.711 401.426 104.325 397.838 105.222C404.297 104.863 412.19 106.269 415.329 107.016C407.077 119.215 392.456 112.697 386.178 107.913L393.353 103.428Z" fill="#85AE59"/>
<path d="M497.852 63.7077C509.135 53.9209 519.838 57.9951 523.78 61.2556C517.649 60.9635 507.677 63.8685 503.459 65.3575C511.196 64.1897 520.863 64.9831 524.729 65.5257C516.18 81.1579 497.828 74.9731 489.72 69.9267L497.852 63.7077Z" fill="#85AE59"/>
<path d="M342.071 94.1812C327.236 120.835 339.851 140.537 348.013 147.057C344.866 134.917 346.5 113.762 347.71 104.702C348.612 120.664 354.239 139.664 356.94 147.169C384.594 123.537 364.565 89.4222 351.094 75.3191L342.071 94.1812Z" fill="#85AE59"/>
<path d="M379.899 43.7791C391.38 44.1378 396.643 54.0943 397.838 59.0277C396.762 60.8216 395.596 59.1771 395.147 58.1307C393.712 53.4664 388.869 49.9084 386.626 48.7124C392.008 53.3767 393.653 59.0277 393.802 61.2701C392.905 68.446 379.899 57.2337 379.899 43.7791Z" fill="#BDD2A6"/>
<path d="M235.982 68.7228C218.352 95.977 231.968 123.436 240.979 133.759C246.682 133.997 244.909 128.771 243.31 126.128C235.279 115.66 235.168 98.9559 236.117 91.9119C237.815 111.559 249.651 131.011 254.379 134.787C271.718 143.669 265.792 89.2887 235.982 68.7228Z" fill="#BDD2A6"/>
<path d="M222.63 10.4609C233.395 6.45155 242.032 13.6789 245.004 17.7937C244.686 19.8615 242.984 18.7801 242.173 17.9808C239.081 14.2056 233.252 12.7434 230.723 12.4842C237.47 14.767 241.129 19.3765 242.115 21.396C243.999 28.3782 227.719 22.9166 222.63 10.4609Z" fill="#BDD2A6"/>
<path d="M518.095 112.099C526.165 99.782 540.573 100.683 546.769 102.674C548.011 105.051 545.433 105.227 543.989 105.018C537.928 103.469 530.797 106.387 527.989 108.04C536.69 105.272 543.97 107.253 546.523 108.588C553.771 114.368 532.811 121.096 518.095 112.099Z" fill="#BDD2A6"/>
<path d="M428.336 51.8519C417.931 57.9513 414.432 55.5893 413.984 53.6459C417.213 47.9052 424.897 44.6761 428.336 43.7791C419.725 44.1379 413.984 49.3105 412.19 51.8519C412.19 37.859 429.681 38.8457 439.996 37.9487C440.445 40.0417 438.741 45.7524 428.336 51.8519Z" fill="#85AE59"/>
<path d="M542.875 37.0992C539.48 48.5265 535.361 49.1827 533.725 48.0824C532.181 41.7582 535.549 34.2398 537.425 31.2712C531.451 37.3431 530.798 44.9525 531.219 47.9982C521.773 37.8963 535.066 26.8013 541.908 19.1904C543.644 20.3987 546.27 25.6719 542.875 37.0992Z" fill="#85AE59"/>
<path d="M314.114 73.4407C307.812 80.5347 304.62 79.6181 303.812 78.2731C304.832 73.1926 309.796 68.9078 312.15 67.4006C305.795 69.7631 302.758 75.0293 302.033 77.3671C298.631 66.8974 311.957 63.3821 319.457 60.2024C320.302 61.6593 320.416 66.3466 314.114 73.4407Z" fill="#85AE59"/>
<path d="M389.318 27.6335C384.654 27.9923 379.9 22.7001 378.106 20.0092C384.833 23.4244 381.694 21.8032 387.524 24.9426C392.188 27.4541 392.458 24.4941 392.009 22.7001C386.268 12.2952 374.668 11.1889 369.585 11.9364C375.684 30.2348 385.282 30.0254 389.318 27.6335Z" fill="#85AE59"/>
<path d="M229.479 156.055C248.443 156.639 250.299 148.133 248.857 143.807C255.159 148.341 265.447 158.646 256.186 163.598C246.924 168.549 231.519 170.046 227.974 168.023C224.942 166.293 217.635 164.878 209.865 172.827C200.154 182.763 193.356 196.692 174.365 197.068C153.636 196.884 147.138 206.2 146.481 210.882C146.019 206.192 149.276 196.217 165.992 193.83C186.886 190.846 193.44 182.714 193.463 178.902C193.486 175.09 205.775 155.324 229.479 156.055Z" fill="#2C2C2C"/>
<path d="M204.912 150.605C209.96 155.31 208.311 158.129 206.855 158.949C202.891 159.564 196.28 156.285 193.47 154.569C195.206 157.386 202.193 160.565 205.47 161.803C194.048 165.001 185.45 151.969 182.578 145.053C187.919 144.943 199.864 145.898 204.912 150.605Z" fill="#BDD2A6"/>
<path d="M210.86 189.637C210.51 178.155 220.123 172.289 224.974 170.791C226.831 171.756 225.261 173.02 224.245 173.532C219.677 175.253 216.424 180.306 215.369 182.618C219.693 176.959 225.231 174.969 227.46 174.682C234.678 175.135 224.288 188.807 210.86 189.637Z" fill="#BDD2A6"/>
<path d="M176.286 176.24C185.304 179.646 185.41 183.03 184.336 184.296C178.986 185.191 173.171 182.029 170.932 180.336C175.287 185.534 181.461 186.496 184.004 186.327C174.725 193.427 167.018 181.998 161.492 176.009C162.665 174.667 167.267 172.834 176.286 176.24Z" fill="#85AE59"/>
<path d="M182.453 204.819C183.099 209.452 178.11 214.524 175.535 216.48C178.529 209.554 177.104 212.788 179.878 206.775C182.097 201.965 179.126 201.879 177.364 202.437C167.332 208.808 166.943 220.455 168.002 225.482C185.89 218.267 185.09 208.7 182.453 204.819Z" fill="#85AE59"/>
<path d="M916.672 139.098C899.001 146.003 900.633 154.555 903.657 157.968C896.081 156.271 879.282 158.297 882.656 148.352C885.796 139.098 907.323 127.499 913.36 127.499C916.851 127.499 924.104 126.333 928.13 115.972C933.163 103.023 933.949 87.5436 951.268 79.7439C970.407 71.7779 972.726 60.6591 971.494 56.0953C973.759 60.2274 974.679 70.6806 960.24 79.4364C942.193 90.3808 939.358 100.433 940.832 103.949C942.307 107.464 938.762 130.466 916.672 139.098Z" fill="#2C2C2C"/>
<path d="M945.707 127.308C940.108 126.475 939.912 123.803 940.515 122.572C942.908 120.313 948.901 119.455 951.597 119.309C949.115 118.212 942.914 119.312 940.124 119.999C946.357 112.526 958.227 117.337 963.383 120.676C959.825 123.234 951.308 128.142 945.707 127.308Z" fill="#BDD2A6"/>
<path d="M920.617 100.903C925.445 111.326 918.906 120.494 915.032 123.775C912.946 123.618 913.893 121.838 914.627 120.968C918.152 117.593 919.161 111.669 919.224 109.128C917.469 116.03 913.155 120.034 911.218 121.173C904.402 123.589 908.592 106.936 920.617 100.903Z" fill="#BDD2A6"/>
<path d="M956.737 100.661C947.234 102.285 945.431 99.4188 945.717 97.7836C949.879 94.3042 956.495 94.0917 959.283 94.42C952.898 92.138 947.084 94.4316 944.976 95.8632C949.39 85.0454 961.819 91.0061 969.616 93.3777C969.282 95.1286 966.239 99.0376 956.737 100.661Z" fill="#85AE59"/>
<path d="M940.785 75.7902C938.373 71.782 940.971 65.1597 942.573 62.3496C942.537 69.8941 942.578 66.361 942.386 72.9801C942.233 78.2753 944.999 77.1886 946.402 75.9832C953.127 66.1863 948.914 55.3211 945.967 51.113C932.346 64.7702 936.837 73.2549 940.785 75.7902Z" fill="#85AE59"/>
<path d="M480.273 25.0458C477.507 21.2733 479.493 14.4422 480.832 11.4984C481.482 19.015 481.202 15.4927 481.613 22.1018C481.941 27.3891 484.597 26.0556 485.884 24.7279C491.692 14.3607 486.51 3.92297 483.192 0C470.869 14.8376 476.111 22.8795 480.273 25.0458Z" fill="#85AE59"/>
<path d="M274.761 36.8942C271.995 33.1217 273.981 26.2907 275.32 23.3468C275.97 30.8634 275.69 27.3411 276.1 33.9503C276.428 39.2376 279.085 37.9041 280.372 36.5764C286.18 26.2091 280.997 15.7714 277.68 11.8484C265.356 26.686 270.599 34.728 274.761 36.8942Z" fill="#85AE59"/>
<path d="M470.697 216.489C474.499 191.071 488.456 194.45 494.959 199.316C489.338 187.897 475.555 167.264 465.39 176.091C455.225 184.917 449.008 204.214 451.333 210.275C453.321 215.46 453.743 226.069 439.195 230.874C421.01 236.878 397.217 236.305 391.884 261.099C387.006 288.571 370.605 290.76 363.015 288.421C370.34 292.242 386.978 294.78 394.933 274.364C404.877 248.843 419.414 245.769 425.467 248.35C431.521 250.931 465.943 248.26 470.697 216.489Z" fill="#2C2C2C"/>
<path d="M452.139 257.259C449.008 249.586 445.09 250.516 443.522 251.939C441.094 256.403 441.925 265.406 442.643 269.349C440.207 266.277 439.655 256.864 439.683 252.543C431.063 264.886 442.088 279.772 448.677 285.672C451.136 279.398 455.271 264.932 452.139 257.259Z" fill="#BDD2A6"/>
<path d="M419.441 213.365C423.421 227.798 434.632 230.008 439.74 229.309C434.454 226.288 427.74 218.47 425.043 214.939C430.858 220.071 439.377 224.548 442.909 226.145C444.464 208.146 425.69 203.669 416.108 203.681L419.441 213.365Z" fill="#85AE59"/>
<path d="M352.512 221.695C364.989 190.057 390.449 183.765 401.619 184.574C389.117 191.805 372.233 209.564 365.353 217.54C379.564 205.688 399.614 194.881 407.863 190.958C406.788 229.523 363.952 241.732 342.668 243.015L352.512 221.695Z" fill="#85AE59"/>
<path d="M148.328 106.649C170.197 100.247 183.991 111.132 188.155 117.376C179.19 113.733 162.852 112.098 155.804 111.736C167.917 114.384 181.877 120.552 187.343 123.303C166.495 138.586 142.428 120.938 133 110.203L148.328 106.649Z" fill="#85AE59"/>
<path d="M359.978 263.139C370.913 271.165 383.392 265.336 388.266 261.418C388.634 258.891 386.298 259.637 385.083 260.326C380.193 263.808 372.981 263.73 369.987 263.255C378.542 262.652 384.379 258.364 386.228 256.296C390.868 248.674 370.239 250.074 359.978 263.139Z" fill="#BDD2A6"/>
<path d="M411.543 291.004C406.295 277.201 401.129 276.891 399.201 278.462C397.863 286.523 402.722 295.464 405.319 298.928C397.36 292.107 395.858 282.717 396.102 278.875C385.314 292.611 402.802 304.781 411.976 313.41C414.018 311.693 416.792 304.807 411.543 291.004Z" fill="#85AE59"/>
<path d="M265.61 317.603C265.044 305.587 260.712 305.689 258.617 307.242C255.18 314.584 256.795 322.261 258.032 325.182C253.162 319.639 254.547 311.312 255.848 307.842C242.712 320.978 254.213 330.627 259.609 337.706C261.844 336.012 266.175 329.62 265.61 317.603Z" fill="#85AE59"/>
<path d="M514.605 262.742C536.682 240.603 532.783 230.361 528.075 228.008C511.353 232.439 498.321 249.597 493.896 257.623C500.136 236.327 516.953 225.259 524.581 222.386C488.683 213.513 480.408 257.858 471.733 283.071C476.825 285.52 492.529 284.881 514.605 262.742Z" fill="#BDD2A6"/>
<path d="M355.708 287.178C351.682 283.448 343.23 285.183 339.506 286.517C348.336 288.049 344.195 287.361 351.985 288.512C358.217 289.433 356.19 292.525 354.398 293.955C341.105 299.979 329.555 292.658 325.442 288.244C345.133 274.755 353.824 281.913 355.708 287.178Z" fill="#85AE59"/>
<path d="M741.135 202.193C738.102 181.752 726.967 184.469 721.779 188.383C726.262 179.2 737.259 162.606 745.369 169.705C753.479 176.803 758.438 192.322 756.583 197.197C754.997 201.366 754.661 209.898 766.267 213.761C780.775 218.59 799.757 218.129 804.013 238.068C807.904 260.162 820.988 261.923 827.043 260.041C821.2 263.114 807.926 265.154 801.579 248.736C793.645 228.212 782.048 225.74 777.219 227.816C772.39 229.892 744.928 227.743 741.135 202.193Z" fill="#2C2C2C"/>
<path d="M756.822 237.007C755.525 230.477 758.547 229.387 760.22 229.658C763.81 231.597 767.228 238.012 768.49 240.978C768.759 237.847 764.974 231.276 763.049 228.383C774.244 232.909 773.46 247.742 771.668 254.594C767.26 251.452 758.118 243.536 756.822 237.007Z" fill="#BDD2A6"/>
<path d="M782.449 199.03C779.274 210.636 770.33 212.414 766.255 211.851C770.472 209.422 775.829 203.135 777.981 200.295C773.341 204.423 766.545 208.023 763.728 209.307C762.486 194.832 777.465 191.232 785.109 191.241L782.449 199.03Z" fill="#85AE59"/>
<path d="M840.383 213.514C833.284 187.132 813.65 179.871 804.721 179.539C813.996 186.414 825.817 202.09 830.567 209.068C820.346 198.349 805.4 187.953 799.206 184.094C796.652 215.015 829.542 228.527 846.305 231.419L840.383 213.514Z" fill="#85AE59"/>
<path d="M829.734 244.038C821.01 250.492 811.053 245.804 807.166 242.654C806.871 240.621 808.736 241.221 809.705 241.776C813.606 244.576 819.359 244.513 821.749 244.131C814.924 243.646 810.266 240.198 808.792 238.535C805.09 232.405 821.548 233.531 829.734 244.038Z" fill="#BDD2A6"/>
<path d="M800.512 262.611C802.101 255.235 800.224 253.381 799.087 253.376C796.49 256.212 796.013 261.478 796.099 263.756C794.852 258.318 796.717 253.991 797.805 252.509C790.156 254.495 793.628 265.298 794.867 271.88C796.086 271.863 798.922 269.986 800.512 262.611Z" fill="#85AE59"/>
<path d="M839.558 263.526C842.77 260.527 849.514 261.922 852.484 262.994C845.44 264.226 848.744 263.673 842.529 264.599C837.556 265.34 839.173 267.826 840.604 268.976C851.209 273.821 860.424 267.933 863.705 264.384C847.995 253.536 841.061 259.293 839.558 263.526Z" fill="#85AE59"/>
<path d="M686.291 121.452C692.393 127.06 695.541 124.55 696.352 122.595C696.648 117.522 692.062 109.731 689.731 106.47C693.244 108.211 697.754 116.491 699.57 120.412C702.109 105.574 685.794 96.8022 677.318 94.2719C677.767 100.996 680.188 115.845 686.291 121.452Z" fill="#BDD2A6"/>
<path d="M745.445 112.29C730.738 109.494 723.808 118.579 722.181 123.471C727.224 120.061 737.203 117.485 741.562 116.624C734.39 119.577 726.614 125.246 723.623 127.711C739.089 137.05 751.39 122.176 755.607 113.572L745.445 112.29Z" fill="#85AE59"/>
<path d="M810.293 89.4977C811.393 123.489 790.519 139.366 779.944 143.056C788.551 131.459 797.005 108.458 800.155 98.4061C791.813 114.923 777.696 132.799 771.68 139.672C757.367 103.846 791.843 75.6445 810.87 66.0219L810.293 89.4977Z" fill="#85AE59"/>
<path d="M974.14 173.579C947.642 154.195 922.303 161.042 912.945 166.889C927.43 166.824 950.934 173.103 960.875 176.251C942.62 173.431 919.78 174.162 910.64 174.881C930.596 205.092 974.029 194.864 993.25 185.974L974.14 173.579Z" fill="#BDD2A6"/>
<path d="M744.522 77.1306C732.288 71.2722 721.105 79.3153 717.044 84.0691C717.15 86.6207 719.308 85.454 720.374 84.5516C724.533 80.2228 731.634 78.962 734.665 78.8726C726.369 81.0525 721.43 86.3483 719.996 88.7238C716.851 97.074 736.861 91.8715 744.522 77.1306Z" fill="#BDD2A6"/>
<path d="M703.285 47.8901C703.137 60.6421 707.191 62.5247 709.236 61.872C712.861 55.8177 711.784 47.0953 710.792 43.4909C715.031 51.489 713.268 59.5094 711.857 62.5199C724.87 54.8944 714.666 39.5832 710.024 29.7477C707.839 30.4819 703.433 35.1383 703.285 47.8901Z" fill="#85AE59"/>
<path d="M742.867 42.2888C748.352 42.5171 753.66 35.7144 755.629 32.2845C747.915 36.8454 751.513 34.6829 744.836 38.8589C739.495 42.1997 739.033 38.5316 739.47 36.28C745.681 23.0737 759.221 21.1562 765.215 21.8483C758.974 44.8865 747.717 45.0745 742.867 42.2888Z" fill="#85AE59"/>
<path d="M575.961 175.897C584.213 181.279 584.781 191.594 584.034 196.079C551.743 198.321 559.816 192.491 552.191 179.933C544.567 167.376 550.846 142.709 562.955 135.533C572.642 129.792 569.384 123.275 566.543 120.733C561.311 116.996 551.563 106.83 554.434 96.0658C557.304 85.3023 545.764 71.8476 539.634 66.4657C494.785 33.8157 465.633 23.5603 456.663 22.5138C460.102 22.5138 468.683 22.9623 475.5 24.7562C484.021 26.9987 525.282 48.9747 539.634 56.599C553.985 64.2233 561.161 68.7082 566.543 85.3023C571.925 101.896 565.646 93.8234 579.549 109.521C593.452 125.218 584.034 144.054 575.961 148.988C567.888 153.921 565.646 169.17 575.961 175.897Z" fill="#2C2C2C"/>
<path d="M858.352 220.504C863.83 215.015 866.943 216.914 867.814 218.549C868.363 222.963 864.436 230.221 862.403 233.297C865.635 231.44 869.464 223.762 870.976 220.155C874.165 232.909 859.189 242.135 851.301 245.154C851.369 239.224 852.874 225.991 858.352 220.504Z" fill="#BDD2A6"/>
<path d="M956.746 228.952C954.179 234.506 956.451 236.282 957.907 236.476C961.34 235.669 965.65 230.774 967.376 228.428C966.888 231.324 962.238 236.263 959.974 238.37C970.337 237.219 973.059 223.624 973.125 216.97C968.735 218.65 959.313 223.399 956.746 228.952Z" fill="#BDD2A6"/>
<path d="M932.147 222.582C926.504 234.594 916.341 235.138 911.965 233.908C917.052 231.937 924.106 225.988 926.998 223.259C921.133 226.993 912.994 229.83 909.657 230.78C910.975 215.002 928.111 213.42 936.514 214.602L932.147 222.582Z" fill="#85AE59"/>
<path d="M906.874 192.113C904.752 205.025 892.722 209.481 886.972 210.093C885.107 208.61 887.138 207.539 888.387 207.189C893.868 206.265 898.611 201.327 900.297 198.973C894.225 204.354 887.598 205.366 885.042 205.2C877.073 203.115 891.679 190.102 906.874 192.113Z" fill="#BDD2A6"/>
<path d="M903.833 257.265C896.979 249.187 898.492 245.803 900.105 245.12C905.562 247.043 909.52 253.202 910.817 256.04C909.201 248.645 903.856 244.463 901.386 243.297C913.491 241.175 915.289 256.456 917.629 265.244C915.886 265.95 910.687 265.341 903.833 257.265Z" fill="#85AE59"/>
<path d="M956.752 245.811C960.684 247.163 962.696 253.155 963.211 255.983C958.927 250.826 960.917 253.255 957.268 248.639C954.348 244.946 953.085 247.266 952.819 248.888C953.834 259.398 962.907 264.39 967.317 265.571C968.791 248.495 960.888 245.283 956.752 245.811Z" fill="#85AE59"/>
<path d="M854.724 172.478C847.326 171.375 843.819 164.534 842.99 161.251C864.914 149.711 861.022 156.181 870.143 162.36C879.266 168.538 882.308 187.267 875.996 195.905C870.947 202.815 875.192 206.239 877.947 207.087C882.736 208.007 892.622 211.9 893.858 220.113C895.095 228.326 907.229 233.9 913.141 235.661C954.373 243.964 977.869 241.9 984.461 239.83C982.055 240.897 975.914 243.253 970.602 244.146C963.962 245.264 928.459 243.109 916.115 242.374C903.773 241.637 897.398 240.812 888.628 231.191C879.859 221.571 886.687 225.116 872.224 218.748C857.761 212.382 858.675 196.645 862.837 190.785C866.999 184.925 863.972 173.855 854.724 172.478Z" fill="#2C2C2C"/>
<path d="M332.077 260.613C331.626 254.599 328.7 254.376 327.294 255.017C324.608 257.575 323.165 264.001 322.779 266.895C321.778 264.226 323.506 257.576 324.494 254.585C315.747 261.238 320.055 274 323.303 279.55C326.417 275.743 332.529 266.626 332.077 260.613Z" fill="#BDD2A6"/>
<path d="M291.703 196.357C300.655 182.608 296.052 177.51 292.631 176.679C283.942 177.987 271.109 189.641 265.779 195.305C268.394 187.94 282.07 176.25 288.58 171.327C262.992 171.948 249.677 206.411 246.219 223.565C257.65 220.224 282.752 210.105 291.703 196.357Z" fill="#85AE59"/>
<path d="M221.62 302.694C225.205 307.905 223.382 310.418 222.022 311.023C218.561 311.102 213.435 307.068 211.305 305.042C212.358 307.993 217.819 311.979 220.418 313.604C210.234 315.214 204.878 301.483 203.474 294.417C208.029 295.004 218.035 297.482 221.62 302.694Z" fill="#BDD2A6"/>
<path d="M244.186 283.611C252.027 294.858 261.897 292.657 265.852 290.15C260.569 289.444 252.594 285.039 249.268 282.924C255.654 285.296 264.043 286.089 267.439 286.189C262.992 269.749 246.215 272.752 238.383 276.308L244.186 283.611Z" fill="#85AE59"/>
<path d="M270.259 240.244C274.899 253.413 287.351 254.865 292.998 253.946C294.49 251.856 292.323 251.271 291.053 251.239C285.602 251.755 280.052 247.794 277.958 245.749C284.875 249.818 291.444 249.083 293.864 248.207C301.098 243.806 284.447 233.947 270.259 240.244Z" fill="#BDD2A6"/>
<path d="M301.328 304.371C300.537 293.143 297.239 291.884 295.689 292.658C293.291 298.336 294.752 305.901 295.783 308.974C291.906 302.355 292.711 295.13 293.598 292.344C283.985 300.322 293.038 312.788 297.361 320.984C299.013 320.125 302.12 315.6 301.328 304.371Z" fill="#85AE59"/>
<path d="M222.157 318.03C219.111 321.22 219.562 328.121 220.168 331.174C222.09 324.036 221.21 327.385 222.763 321.083C224.005 316.041 226.028 317.754 226.884 319.24C229.951 330.166 223.631 339.387 220.088 342.634C212.278 326.352 218.213 319.448 222.157 318.03Z" fill="#85AE59"/>
<path d="M331.581 188.113C339.61 184.266 341.97 174.432 342.147 169.996C314.967 162.627 320.804 169.54 312.008 180.393C303.212 191.246 304.093 215.995 313.133 224.854C320.366 231.941 316.397 237.687 313.508 239.674C308.359 242.426 298.184 250.635 298.679 261.455C299.175 272.276 286.87 283.36 280.655 287.549C236.405 311.729 209.635 316.893 201.782 316.453C204.719 317.007 212.132 317.96 218.282 317.334C225.969 316.552 265.215 302.064 278.862 297.044C292.509 292.023 299.454 288.866 307.069 273.767C314.682 258.668 307.851 265.423 322.582 252.562C337.313 239.701 332.691 220.056 326.69 214.006C320.69 207.956 321.546 192.922 331.581 188.113Z" fill="#2C2C2C"/>
<path d="M658.295 239.756C647.179 215.826 635.451 218.832 630.976 223.326C632.674 212.662 639.056 193.442 650.992 201.859C662.929 210.276 674.407 228.485 674.108 234.153C673.851 239.001 676.657 248.966 691.386 253.656C709.798 259.52 731.351 259.27 743.678 282.634C756.394 308.508 772.028 310.765 778.256 308.659C772.716 312.16 758.286 314.343 744.883 295.061C728.127 270.96 716.889 270.246 709.178 270.246C701.466 270.246 672.19 269.67 658.295 239.756Z" fill="#2C2C2C"/>
<path d="M666.865 273.689C669.56 264.477 674.093 264.767 676.022 266.064C679.26 270.606 679.314 280.868 678.936 285.431C681.352 281.516 680.94 270.847 680.432 266.003C691.54 278.199 680.714 297.022 673.913 304.908C670.44 298.341 664.169 282.901 666.865 273.689Z" fill="#BDD2A6"/>
<path d="M711.654 241.923C697.605 249.527 684.313 241.244 679.422 236.152C679.46 233.243 682.013 234.403 683.284 235.347C688.273 239.948 696.584 240.835 700.117 240.703C690.384 238.863 684.453 233.223 682.704 230.632C678.76 221.381 702.238 225.753 711.654 241.923Z" fill="#BDD2A6"/>
<path d="M716.597 293.254C715.197 279.919 719.337 277.674 721.581 278.219C726.035 284.308 725.736 293.51 725.03 297.348C728.77 288.691 726.11 280.418 724.313 277.363C738.93 284.46 729.54 301.174 725.548 311.782C723.147 311.162 717.996 306.587 716.597 293.254Z" fill="#85AE59"/>
<path d="M748.259 267.742C753.613 264.047 763.031 267.079 767.07 269.058C756.595 269.662 761.502 269.413 752.298 269.721C744.935 269.967 746.683 273.712 748.478 275.554C762.659 284.041 777.375 277.252 782.961 272.797C762.824 255.074 751.436 262.043 748.259 267.742Z" fill="#85AE59"/>
<path d="M301.761 124.49C309.336 131.317 308.073 144.118 306.496 149.665C302.708 164.684 294.874 155.923 291.43 149.665C294.156 149.665 297.973 145.91 291.43 130.891C284.887 115.872 284.017 113.823 285.403 105.289C306.496 61.3417 266.751 34.4609 245.802 22.5138C298.489 46.408 303.626 82.5336 299.609 97.6095C297.169 103.725 294.185 117.663 301.761 124.49Z" fill="#2C2C2C"/>
<path d="M859.923 73.5103C863.138 78.0462 865.566 77.0597 866.378 75.9994C867.295 72.9283 865.387 67.3171 864.318 64.8954C866.381 66.591 868.169 72.4896 868.805 75.227C872.587 66.5403 863.105 58.2439 857.891 55.1816C857.229 59.4013 856.708 68.9746 859.923 73.5103Z" fill="#BDD2A6"/>
<path d="M824.489 109.238C823.281 113.961 825.318 115.024 826.487 114.965C829.061 113.836 831.73 109.377 832.743 107.289C832.78 109.63 829.849 114.171 828.38 116.15C836.334 113.751 836.502 102.703 835.592 97.4803C832.394 99.4313 825.698 104.514 824.489 109.238Z" fill="#85AE59"/>
<path d="M869.965 16.0472C879.171 22.916 877.784 34.0918 875.94 38.8211C874.03 39.6754 874.016 37.6595 874.247 36.5448C875.741 31.8991 873.808 26.2086 872.655 23.944C874.396 30.8497 872.508 36.4241 871.346 38.348C866.502 43.7172 862.26 27.0775 869.965 16.0472Z" fill="#BDD2A6"/>
<path d="M866.675 127.064C857.297 125.618 856.336 122.44 857.028 121.03C861.849 119.132 868.141 120.978 870.684 122.139C865.252 118.081 859.181 118.385 856.824 119.045C863.774 110.508 873.956 119.797 880.695 124.373C879.929 125.873 876.053 128.511 866.675 127.064Z" fill="#85AE59"/>
<path d="M876.033 74.1806C877.702 69.8103 884.518 67.774 887.718 67.3021C881.756 71.9248 884.563 69.7792 879.232 73.7087C874.969 76.8522 877.53 78.3605 879.344 78.7217C891.203 77.9784 897.161 67.9629 898.658 63.0482C879.508 60.7426 875.596 69.5091 876.033 74.1806Z" fill="#85AE59"/>
<path d="M817.086 144.376C815.46 154.444 804.021 160.326 798.505 162.009C783.832 166.973 786.943 155.639 790.333 149.352C791.812 151.642 797.037 152.811 806.105 139.168C815.175 125.525 816.424 123.684 824.344 120.22C872.707 114.102 873.732 66.131 872.406 42.0514C880.91 99.2753 853.346 123.186 838.501 127.988C832.041 129.256 818.712 134.309 817.086 144.376Z" fill="#2C2C2C"/>
<path d="M705.053 111.763C705.053 137.775 671.865 152.875 650.338 164.685C650.338 177.242 677.247 168.721 689.805 162.442C709.538 152.576 722.545 131.048 720.302 115.799C717.392 96.0103 714.92 85.7508 715.817 82.6114C720.827 63.397 737.625 49.0548 748.486 37.5804C749.505 36.5523 750.276 35.7061 750.799 35.0715C750.066 35.8926 749.292 36.7286 748.486 37.5804C743.985 42.124 734.638 50.2199 720.302 59.2899C698.326 73.1931 705.053 87.0597 705.053 111.763Z" fill="#2C2C2C"/>
</svg>
