<svg width="1077" height="598" viewBox="0 0 1077 598" fill="none" xmlns="http://www.w3.org/2000/svg">
<path d="M73.8 597.2C63.1333 597.2 53.2667 595.467 44.2 592C35.2667 588.4 27.4667 583.4 20.8 577C14.2667 570.6 9.1333 563.067 5.4 554.4C1.8 545.733 0 536.267 0 526C0 515.733 1.8 506.267 5.4 497.6C9.1333 488.933 14.3333 481.4 21 475C27.6667 468.6 35.4667 463.667 44.4 460.2C53.4667 456.6 63.3333 454.8 74 454.8C84.6667 454.8 94.4 456.467 103.2 459.8C112.133 463.133 119.733 468.2 126 475L116.8 484.4C110.933 478.533 104.467 474.333 97.4 471.8C90.333 469.267 82.7333 468 74.6 468C65.9333 468 57.9333 469.467 50.6 472.4C43.4 475.2 37.0667 479.267 31.6 484.6C26.2667 489.8 22.0667 495.933 19 503C16.0667 509.933 14.6 517.6 14.6 526C14.6 534.267 16.0667 541.933 19 549C22.0667 556.067 26.2667 562.267 31.6 567.6C37.0667 572.8 43.4 576.867 50.6 579.8C57.9333 582.6 65.8667 584 74.4 584C82.4 584 89.933 582.8 97 580.4C104.2 578 110.8 573.933 116.8 568.2L125.2 579.4C118.533 585.267 110.733 589.733 101.8 592.8C92.867 595.733 83.5333 597.2 73.8 597.2ZM111 577.6V526H125.2V579.4L111 577.6ZM208.688 597C197.754 597 188.154 594.733 179.888 590.2C171.621 585.533 165.154 579.2 160.488 571.2C155.821 563.067 153.488 553.8 153.488 543.4C153.488 533 155.688 523.8 160.088 515.8C164.621 507.8 170.754 501.533 178.488 497C186.354 492.333 195.154 490 204.888 490C214.754 490 223.488 492.267 231.088 496.8C238.821 501.2 244.888 507.467 249.288 515.6C253.688 523.6 255.888 532.867 255.888 543.4C255.888 544.067 255.821 544.8 255.688 545.6C255.688 546.267 255.688 547 255.688 547.8H164.288V537.2H248.088L242.488 541.4C242.488 533.8 240.821 527.067 237.488 521.2C234.288 515.2 229.888 510.533 224.288 507.2C218.688 503.867 212.221 502.2 204.888 502.2C197.688 502.2 191.221 503.867 185.488 507.2C179.754 510.533 175.288 515.2 172.088 521.2C168.888 527.2 167.288 534.067 167.288 541.8V544C167.288 552 169.021 559.067 172.488 565.2C176.088 571.2 181.021 575.933 187.288 579.4C193.688 582.733 200.954 584.4 209.088 584.4C215.488 584.4 221.421 583.267 226.888 581C232.488 578.733 237.288 575.267 241.288 570.6L249.288 579.8C244.621 585.4 238.754 589.667 231.688 592.6C224.754 595.533 217.088 597 208.688 597ZM338.391 490C346.924 490 354.391 491.667 360.791 495C367.324 498.2 372.391 503.133 375.991 509.8C379.724 516.467 381.591 524.867 381.591 535V596H367.391V536.4C367.391 525.333 364.591 517 358.991 511.4C353.524 505.667 345.791 502.8 335.791 502.8C328.324 502.8 321.791 504.333 316.191 507.4C310.724 510.333 306.457 514.667 303.391 520.4C300.457 526 298.991 532.8 298.991 540.8V596H284.791V491H298.391V519.8L296.191 514.4C299.524 506.8 304.857 500.867 312.191 496.6C319.524 492.2 328.257 490 338.391 490ZM786.353 596V491H799.953V519.6L798.553 514.6C801.486 506.6 806.42 500.533 813.353 496.4C820.286 492.133 828.886 490 839.153 490V503.8C838.62 503.8 838.086 503.8 837.553 503.8C837.02 503.667 836.486 503.6 835.953 503.6C824.886 503.6 816.22 507 809.953 513.8C803.686 520.467 800.553 530 800.553 542.4V596H786.353ZM908.688 597C897.754 597 888.154 594.733 879.888 590.2C871.621 585.533 865.154 579.2 860.488 571.2C855.821 563.067 853.488 553.8 853.488 543.4C853.488 533 855.688 523.8 860.088 515.8C864.621 507.8 870.754 501.533 878.488 497C886.354 492.333 895.154 490 904.888 490C914.754 490 923.488 492.267 931.088 496.8C938.821 501.2 944.888 507.467 949.288 515.6C953.688 523.6 955.888 532.867 955.888 543.4C955.888 544.067 955.821 544.8 955.688 545.6C955.688 546.267 955.688 547 955.688 547.8H864.288V537.2H948.088L942.488 541.4C942.488 533.8 940.821 527.067 937.488 521.2C934.288 515.2 929.888 510.533 924.288 507.2C918.688 503.867 912.221 502.2 904.888 502.2C897.688 502.2 891.221 503.867 885.488 507.2C879.754 510.533 875.288 515.2 872.088 521.2C868.888 527.2 867.288 534.067 867.288 541.8V544C867.288 552 869.021 559.067 872.488 565.2C876.088 571.2 881.021 575.933 887.288 579.4C893.688 582.733 900.954 584.4 909.088 584.4C915.488 584.4 921.421 583.267 926.888 581C932.488 578.733 937.288 575.267 941.288 570.6L949.288 579.8C944.621 585.4 938.754 589.667 931.688 592.6C924.754 595.533 917.088 597 908.688 597ZM1029.39 597C1018.46 597 1008.86 594.733 1000.59 590.2C992.32 585.533 985.857 579.2 981.191 571.2C976.524 563.067 974.191 553.8 974.191 543.4C974.191 533 976.391 523.8 980.791 515.8C985.324 507.8 991.46 501.533 999.19 497C1007.06 492.333 1015.86 490 1025.59 490C1035.46 490 1044.19 492.267 1051.79 496.8C1059.52 501.2 1065.59 507.467 1069.99 515.6C1074.39 523.6 1076.59 532.867 1076.59 543.4C1076.59 544.067 1076.52 544.8 1076.39 545.6C1076.39 546.267 1076.39 547 1076.39 547.8H984.991V537.2H1068.79L1063.19 541.4C1063.19 533.8 1061.52 527.067 1058.19 521.2C1054.99 515.2 1050.59 510.533 1044.99 507.2C1039.39 503.867 1032.92 502.2 1025.59 502.2C1018.39 502.2 1011.92 503.867 1006.19 507.2C1000.46 510.533 995.99 515.2 992.79 521.2C989.591 527.2 987.991 534.067 987.991 541.8V544C987.991 552 989.72 559.067 993.19 565.2C996.79 571.2 1001.72 575.933 1007.99 579.4C1014.39 582.733 1021.66 584.4 1029.79 584.4C1036.19 584.4 1042.12 583.267 1047.59 581C1053.19 578.733 1057.99 575.267 1061.99 570.6L1069.99 579.8C1065.32 585.4 1059.46 589.667 1052.39 592.6C1045.46 595.533 1037.79 597 1029.39 597Z" fill="white"/>
<path fill-rule="evenodd" clip-rule="evenodd" d="M460.278 562.392C488.493 539.233 513.465 518.736 510.899 474.142C510.899 379.96 517.447 300.846 549.02 237.34L575.481 216.261L610.912 237.34C612.289 240.965 613.765 244.632 615.304 248.459L615.306 248.463L615.307 248.465C629.135 282.841 648.136 330.079 648.136 474.142C648.136 526.402 689.764 553.767 721.282 574.485C731.403 581.137 740.481 587.106 746.804 592.992C738.283 594.786 717.921 597.297 704.646 592.992C691.371 588.686 673.402 591.198 666.076 592.992C665.801 592.92 665.456 592.83 665.04 592.721C627.329 557.141 613.756 497.27 616.35 474.305C627.865 372.361 617.043 352.886 607 348.117C607.16 348.291 607.326 348.467 607.497 348.648C612.322 353.763 621.047 363.013 607 446.711C595.453 515.512 613.044 560.862 629.623 583.963C623.086 582.966 621.927 584.78 620.648 586.783C618.834 589.624 616.779 592.843 598.803 588.956C594.654 588.059 590.291 587.384 585.827 586.892C586.327 582.458 587.121 577.904 587.971 573.028C591.781 551.179 596.722 522.846 581.525 469.657C563.166 405.403 576.85 307.222 591.393 282.016C591.633 281.615 591.87 281.224 592.105 280.843C591.867 281.215 591.63 281.606 591.393 282.016C575.454 308.732 549.058 381.254 571.026 466.518C587.761 531.472 577.765 576.978 569.185 585.842C550.222 585.427 531.923 587.395 522.559 588.956C522.457 588.924 522.354 588.893 522.249 588.861C537.525 575.859 564.68 532.485 552.16 456.651C540.032 383.19 547.565 375.071 551.731 370.582C551.819 370.487 551.906 370.393 551.99 370.301C552.048 370.239 552.104 370.177 552.16 370.115C543.489 374.301 534.145 391.395 544.087 480.87C546.31 500.872 534.787 552.768 502.797 584.08C491.037 581.858 478.984 580.955 475.019 584.919C471.514 588.425 469.616 587.195 467.378 585.746C464.462 583.858 460.969 581.597 452.595 588.956C440.755 599.36 430.32 595.982 426.583 592.992C437.307 581.246 449.049 571.609 460.278 562.392Z" fill="white"/>
<path d="M347.075 177.691C487.026 177.691 537.085 224.932 545.756 243.619L611.236 239.134C592.549 205.199 522.076 132.304 378.918 148.091C235.76 163.877 178.444 115.799 167.68 89.787C169.175 118.042 234.056 177.691 347.075 177.691Z" fill="white"/>
<path d="M811.261 177.947C671.31 177.947 621.25 225.326 612.58 244.067L547.1 239.57C565.787 205.535 636.26 132.428 779.418 148.261C922.575 164.094 979.892 115.876 990.66 89.787C989.161 118.124 924.279 177.947 811.261 177.947Z" fill="white"/>
<path d="M418.833 126.75C408.069 144.33 419.132 149.024 426.008 149.174C416.291 153.509 396.318 159.579 394.166 149.174C392.013 138.769 397.968 123.803 402.687 121.181C406.723 118.939 412.554 112.577 405.378 102.531C396.408 89.9735 380.263 78.7612 389.681 60.8216C400.803 41.4469 391.026 32.1183 384.747 29.8759C391.625 31.0718 404.032 37.5899 398.651 54.0943C391.923 74.7248 399.996 83.6946 405.378 85.04C410.76 86.3855 432.287 104.774 418.833 126.75Z" fill="white"/>
<path d="M427.354 92.6645C421.254 95.8936 419.132 93.4117 418.833 91.7675C419.55 87.8207 424.813 82.6481 427.354 80.5552C424.125 81.2728 418.833 86.8341 416.59 89.525C417.308 77.6849 432.437 73.8279 439.912 73.3794C438.267 78.4622 433.453 89.4353 427.354 92.6645Z" fill="#BDD2A6"/>
<path d="M571.078 84.2378C563.336 88.2648 560.642 85.1699 560.262 83.1191C561.173 78.1971 567.852 71.7463 571.078 69.136C566.979 70.031 560.262 76.9666 557.416 80.3224C558.327 65.5564 577.529 60.7462 587.016 60.1869C584.929 66.5259 578.82 80.2106 571.078 84.2378Z" fill="#BDD2A6"/>
<path d="M652.568 146.881C645.852 163.294 637.608 162.033 634.326 159.351C629.274 150.522 631.159 131.745 632.733 123.46C627.552 130.232 626.245 149.81 626.238 158.752C608.257 134.657 631.719 101.976 645.697 88.6481C650.786 101.22 659.285 130.468 652.568 146.881Z" fill="#85AE59"/>
<path d="M707.546 197.081C694.313 190.53 689.607 195.353 688.908 198.584C690.365 206.381 701.715 216.734 707.208 220.936C700.175 219.422 688.77 208.303 683.947 202.932C685.184 226.279 718.122 234.346 734.436 235.461C730.987 225.397 720.778 203.631 707.546 197.081Z" fill="#BDD2A6"/>
<path d="M483.827 128.993C483.332 145.719 475.631 147.336 471.843 146.054C464.454 139.928 459.898 122.716 458.544 114.875C456.211 122.573 461.542 140.302 464.501 148.205C440.631 132.876 450.529 96.2309 458.462 79.8251C467.123 89.2454 484.322 112.268 483.827 128.993Z" fill="#BDD2A6"/>
<path d="M143.941 27.0179C185.322 55.8242 179.563 80.6216 171.511 89.4194C154.302 71.785 150.972 53.7448 151.459 46.9289C146.946 58.9989 158.046 83.895 165.891 91.5074C150.894 95.1366 136.922 67.3471 141.117 53.549C144.473 42.5107 144.398 31.2624 143.941 27.0179Z" fill="#85AE59"/>
<path d="M465.985 40.3127C471.158 35.7693 469.631 32.906 468.22 32.0422C464.32 31.3083 457.654 34.3793 454.809 36.0066C456.631 33.2485 463.667 30.2879 466.957 29.1522C455.771 25.6115 446.772 38.3573 443.671 45.1729C448.953 45.4458 460.811 44.856 465.985 40.3127Z" fill="#BDD2A6"/>
<path d="M255.06 50.0652C260.614 49.8243 261.103 47.2497 260.652 45.9924C258.569 43.5567 252.82 42.1157 250.206 41.6996C252.749 40.8868 258.675 42.5843 261.32 43.5346C256.072 35.6457 243.96 39.1118 238.559 41.8309C241.745 44.676 249.506 50.306 255.06 50.0652Z" fill="#BDD2A6"/>
<path d="M265.855 99.2124C269.167 102.79 271.165 101.656 271.751 100.641C272.197 97.8661 269.899 93.2054 268.695 91.2212C270.681 92.4609 272.908 97.3853 273.773 99.6932C276.071 91.7092 266.881 85.5766 261.999 83.5083C261.905 87.2526 262.542 95.6353 265.855 99.2124Z" fill="#85AE59"/>
<path d="M382.953 103.428C393 96.2524 401.491 100.439 404.481 103.428C399.458 102.711 391.026 104.325 387.438 105.222C393.897 104.863 401.79 106.269 404.929 107.016C396.677 119.215 382.056 112.697 375.778 107.913L382.953 103.428Z" fill="#85AE59"/>
<path d="M487.452 63.7077C498.735 53.9209 509.438 57.9951 513.38 61.2556C507.249 60.9635 497.277 63.8685 493.059 65.3575C500.796 64.1897 510.463 64.9831 514.329 65.5257C505.78 81.1579 487.428 74.9731 479.32 69.9267L487.452 63.7077Z" fill="#85AE59"/>
<path d="M331.671 94.1812C316.836 120.835 329.451 140.537 337.613 147.057C334.466 134.917 336.1 113.762 337.31 104.702C338.212 120.664 343.839 139.664 346.54 147.169C374.194 123.537 354.165 89.4222 340.694 75.3191L331.671 94.1812Z" fill="#85AE59"/>
<path d="M369.499 43.7791C380.98 44.1378 386.243 54.0943 387.438 59.0277C386.362 60.8216 385.196 59.1771 384.747 58.1307C383.312 53.4664 378.469 49.9084 376.226 48.7124C381.608 53.3767 383.253 59.0277 383.402 61.2701C382.505 68.446 369.499 57.2337 369.499 43.7791Z" fill="#BDD2A6"/>
<path d="M225.582 68.7228C207.952 95.977 221.568 123.436 230.579 133.759C236.282 133.997 234.509 128.771 232.91 126.128C224.879 115.66 224.768 98.9559 225.717 91.9119C227.415 111.559 239.251 131.011 243.979 134.787C261.318 143.669 255.392 89.2887 225.582 68.7228Z" fill="#BDD2A6"/>
<path d="M212.23 10.4609C222.995 6.45156 231.632 13.6789 234.604 17.7937C234.286 19.8615 232.584 18.7801 231.773 17.9808C228.681 14.2056 222.852 12.7434 220.323 12.4842C227.07 14.767 230.729 19.3765 231.715 21.396C233.599 28.3782 217.319 22.9166 212.23 10.4609Z" fill="#BDD2A6"/>
<path d="M507.695 112.099C515.765 99.782 530.173 100.683 536.369 102.674C537.611 105.051 535.033 105.227 533.589 105.018C527.528 103.469 520.397 106.387 517.589 108.04C526.29 105.272 533.57 107.253 536.123 108.588C543.371 114.368 522.411 121.096 507.695 112.099Z" fill="#BDD2A6"/>
<path d="M417.936 51.8519C407.531 57.9513 404.032 55.5893 403.584 53.6459C406.813 47.9052 414.497 44.6761 417.936 43.7791C409.325 44.1379 403.584 49.3105 401.79 51.8519C401.79 37.859 419.281 38.8457 429.596 37.9487C430.045 40.0417 428.341 45.7524 417.936 51.8519Z" fill="#85AE59"/>
<path d="M532.475 37.0992C529.08 48.5265 524.961 49.1827 523.325 48.0824C521.781 41.7582 525.149 34.2398 527.025 31.2712C521.051 37.3431 520.398 44.9525 520.819 47.9982C511.373 37.8963 524.666 26.8013 531.508 19.1904C533.244 20.3987 535.87 25.6719 532.475 37.0992Z" fill="#85AE59"/>
<path d="M303.714 73.4407C297.412 80.5347 294.22 79.6181 293.412 78.2731C294.432 73.1926 299.396 68.9078 301.75 67.4006C295.395 69.7631 292.358 75.0293 291.633 77.3671C288.231 66.8974 301.557 63.3821 309.057 60.2024C309.902 61.6593 310.016 66.3466 303.714 73.4407Z" fill="#85AE59"/>
<path d="M378.918 27.6335C374.254 27.9923 369.5 22.7001 367.706 20.0092C374.433 23.4244 371.294 21.8032 377.124 24.9426C381.788 27.4541 382.058 24.4941 381.609 22.7001C375.868 12.2952 364.268 11.1889 359.185 11.9364C365.284 30.2348 374.882 30.0254 378.918 27.6335Z" fill="#85AE59"/>
<path d="M219.079 156.055C238.043 156.639 239.899 148.133 238.457 143.807C244.759 148.341 255.047 158.646 245.786 163.598C236.524 168.549 221.119 170.046 217.574 168.023C214.542 166.293 207.235 164.878 199.465 172.827C189.754 182.763 182.956 196.692 163.965 197.068C143.236 196.884 136.738 206.2 136.081 210.882C135.619 206.192 138.876 196.217 155.592 193.83C176.486 190.846 183.04 182.714 183.063 178.902C183.086 175.09 195.375 155.324 219.079 156.055Z" fill="white"/>
<path d="M194.512 150.605C199.56 155.31 197.911 158.129 196.455 158.949C192.491 159.564 185.88 156.285 183.07 154.569C184.806 157.386 191.793 160.565 195.07 161.803C183.648 165.001 175.05 151.969 172.178 145.053C177.519 144.943 189.464 145.898 194.512 150.605Z" fill="#BDD2A6"/>
<path d="M200.46 189.637C200.11 178.155 209.723 172.289 214.574 170.791C216.431 171.756 214.861 173.02 213.845 173.532C209.277 175.253 206.024 180.306 204.969 182.618C209.293 176.959 214.831 174.969 217.06 174.682C224.278 175.135 213.888 188.807 200.46 189.637Z" fill="#BDD2A6"/>
<path d="M165.886 176.24C174.904 179.646 175.01 183.03 173.936 184.296C168.586 185.191 162.771 182.029 160.532 180.336C164.887 185.534 171.061 186.496 173.604 186.327C164.325 193.427 156.618 181.998 151.092 176.009C152.265 174.667 156.867 172.834 165.886 176.24Z" fill="#85AE59"/>
<path d="M172.053 204.819C172.699 209.452 167.71 214.524 165.135 216.48C168.129 209.554 166.704 212.788 169.478 206.775C171.697 201.965 168.726 201.879 166.964 202.437C156.932 208.808 156.543 220.455 157.602 225.482C175.49 218.267 174.69 208.7 172.053 204.819Z" fill="#85AE59"/>
<path d="M906.272 139.098C888.601 146.003 890.233 154.555 893.257 157.968C885.681 156.271 868.882 158.297 872.256 148.352C875.396 139.098 896.923 127.499 902.96 127.499C906.451 127.499 913.704 126.333 917.73 115.972C922.763 103.023 923.549 87.5436 940.868 79.7439C960.007 71.7779 962.326 60.6591 961.094 56.0953C963.359 60.2274 964.279 70.6806 949.84 79.4364C931.793 90.3808 928.958 100.433 930.432 103.949C931.907 107.464 928.362 130.466 906.272 139.098Z" fill="white"/>
<path d="M935.307 127.308C929.708 126.475 929.512 123.803 930.115 122.572C932.508 120.313 938.501 119.455 941.197 119.309C938.715 118.212 932.514 119.312 929.724 119.999C935.957 112.526 947.827 117.337 952.983 120.676C949.425 123.234 940.908 128.142 935.307 127.308Z" fill="#BDD2A6"/>
<path d="M910.217 100.903C915.045 111.326 908.506 120.494 904.632 123.775C902.546 123.618 903.493 121.838 904.227 120.968C907.752 117.593 908.761 111.669 908.824 109.128C907.069 116.03 902.755 120.034 900.818 121.173C894.002 123.589 898.192 106.936 910.217 100.903Z" fill="#BDD2A6"/>
<path d="M946.337 100.661C936.834 102.285 935.031 99.4188 935.317 97.7836C939.479 94.3042 946.095 94.0917 948.883 94.42C942.498 92.138 936.684 94.4316 934.576 95.8632C938.99 85.0454 951.419 91.0061 959.216 93.3777C958.882 95.1286 955.839 99.0376 946.337 100.661Z" fill="#85AE59"/>
<path d="M930.385 75.7902C927.973 71.782 930.571 65.1597 932.173 62.3496C932.137 69.8941 932.178 66.361 931.986 72.9801C931.833 78.2753 934.599 77.1886 936.002 75.9832C942.727 66.1863 938.514 55.3211 935.567 51.113C921.946 64.7702 926.437 73.2549 930.385 75.7902Z" fill="#85AE59"/>
<path d="M469.873 25.0458C467.107 21.2733 469.093 14.4422 470.432 11.4984C471.082 19.015 470.802 15.4927 471.213 22.1018C471.541 27.3891 474.197 26.0556 475.484 24.7279C481.292 14.3607 476.11 3.92297 472.792 0C460.469 14.8376 465.711 22.8795 469.873 25.0458Z" fill="#85AE59"/>
<path d="M264.361 36.8942C261.595 33.1217 263.581 26.2907 264.92 23.3468C265.57 30.8634 265.29 27.3411 265.7 33.9503C266.028 39.2376 268.685 37.9041 269.972 36.5764C275.78 26.2091 270.597 15.7714 267.28 11.8484C254.956 26.686 260.199 34.728 264.361 36.8942Z" fill="#85AE59"/>
<path d="M460.297 216.489C464.099 191.071 478.056 194.45 484.559 199.316C478.938 187.897 465.155 167.264 454.99 176.091C444.825 184.917 438.608 204.214 440.933 210.275C442.921 215.46 443.343 226.069 428.795 230.874C410.61 236.878 386.817 236.305 381.484 261.099C376.606 288.571 360.205 290.76 352.615 288.421C359.94 292.242 376.578 294.78 384.533 274.364C394.477 248.843 409.014 245.769 415.067 248.35C421.121 250.931 455.543 248.26 460.297 216.489Z" fill="white"/>
<path d="M441.739 257.259C438.608 249.586 434.69 250.516 433.122 251.939C430.694 256.403 431.525 265.406 432.243 269.349C429.807 266.277 429.255 256.864 429.283 252.543C420.663 264.886 431.688 279.772 438.277 285.672C440.736 279.398 444.871 264.932 441.739 257.259Z" fill="#BDD2A6"/>
<path d="M409.041 213.365C413.021 227.798 424.232 230.008 429.34 229.309C424.054 226.288 417.34 218.47 414.643 214.939C420.458 220.071 428.977 224.548 432.509 226.145C434.064 208.146 415.29 203.669 405.708 203.681L409.041 213.365Z" fill="#85AE59"/>
<path d="M342.112 221.695C354.589 190.057 380.049 183.765 391.219 184.574C378.717 191.805 361.833 209.564 354.953 217.54C369.164 205.688 389.214 194.881 397.463 190.958C396.388 229.523 353.552 241.732 332.268 243.015L342.112 221.695Z" fill="#85AE59"/>
<path d="M137.928 106.649C159.797 100.247 173.591 111.132 177.755 117.376C168.79 113.733 152.452 112.098 145.404 111.736C157.517 114.384 171.477 120.552 176.943 123.303C156.095 138.586 132.028 120.938 122.6 110.203L137.928 106.649Z" fill="#85AE59"/>
<path d="M349.578 263.139C360.513 271.165 372.992 265.336 377.866 261.418C378.234 258.891 375.898 259.637 374.683 260.326C369.793 263.808 362.581 263.73 359.587 263.255C368.142 262.652 373.979 258.364 375.828 256.296C380.468 248.674 359.839 250.074 349.578 263.139Z" fill="#BDD2A6"/>
<path d="M401.143 291.004C395.895 277.201 390.729 276.891 388.801 278.462C387.463 286.523 392.322 295.464 394.919 298.928C386.96 292.107 385.458 282.717 385.702 278.875C374.914 292.611 392.402 304.781 401.576 313.41C403.618 311.693 406.392 304.807 401.143 291.004Z" fill="#85AE59"/>
<path d="M255.21 317.603C254.644 305.587 250.312 305.689 248.217 307.242C244.78 314.584 246.395 322.261 247.632 325.182C242.762 319.639 244.147 311.312 245.448 307.842C232.312 320.978 243.813 330.627 249.209 337.706C251.444 336.012 255.775 329.62 255.21 317.603Z" fill="#85AE59"/>
<path d="M504.205 262.742C526.282 240.603 522.383 230.361 517.675 228.008C500.953 232.439 487.921 249.597 483.496 257.623C489.736 236.327 506.553 225.259 514.181 222.386C478.283 213.513 470.008 257.858 461.333 283.071C466.425 285.52 482.129 284.881 504.205 262.742Z" fill="#BDD2A6"/>
<path d="M345.308 287.178C341.282 283.448 332.83 285.183 329.106 286.517C337.936 288.049 333.795 287.361 341.585 288.512C347.817 289.433 345.79 292.525 343.998 293.955C330.705 299.979 319.155 292.658 315.042 288.244C334.733 274.755 343.424 281.913 345.308 287.178Z" fill="#85AE59"/>
<path d="M730.735 202.193C727.702 181.752 716.567 184.469 711.379 188.383C715.862 179.2 726.859 162.606 734.969 169.705C743.079 176.803 748.038 192.322 746.183 197.197C744.597 201.366 744.261 209.898 755.867 213.761C770.375 218.59 789.357 218.129 793.613 238.068C797.504 260.162 810.588 261.923 816.643 260.041C810.8 263.114 797.526 265.154 791.179 248.736C783.245 228.212 771.648 225.74 766.819 227.816C761.99 229.892 734.528 227.743 730.735 202.193Z" fill="white"/>
<path d="M746.422 237.007C745.125 230.477 748.147 229.387 749.82 229.658C753.41 231.597 756.828 238.012 758.09 240.978C758.359 237.847 754.574 231.276 752.649 228.383C763.844 232.909 763.06 247.742 761.268 254.594C756.86 251.452 747.718 243.536 746.422 237.007Z" fill="#BDD2A6"/>
<path d="M772.049 199.03C768.874 210.636 759.93 212.414 755.855 211.851C760.072 209.422 765.429 203.135 767.581 200.295C762.941 204.423 756.145 208.023 753.328 209.307C752.086 194.832 767.065 191.232 774.709 191.241L772.049 199.03Z" fill="#85AE59"/>
<path d="M829.983 213.514C822.884 187.132 803.25 179.871 794.321 179.539C803.596 186.414 815.417 202.09 820.167 209.068C809.946 198.349 795 187.953 788.806 184.094C786.252 215.015 819.142 228.527 835.905 231.419L829.983 213.514Z" fill="#85AE59"/>
<path d="M819.334 244.038C810.61 250.492 800.653 245.804 796.766 242.654C796.471 240.621 798.336 241.221 799.305 241.776C803.206 244.576 808.959 244.513 811.349 244.131C804.524 243.646 799.866 240.198 798.392 238.535C794.69 232.405 811.148 233.531 819.334 244.038Z" fill="#BDD2A6"/>
<path d="M790.112 262.611C791.701 255.235 789.824 253.381 788.687 253.376C786.09 256.212 785.613 261.478 785.699 263.756C784.452 258.318 786.317 253.991 787.405 252.509C779.756 254.495 783.228 265.298 784.467 271.88C785.686 271.863 788.522 269.986 790.112 262.611Z" fill="#85AE59"/>
<path d="M829.158 263.526C832.37 260.527 839.114 261.922 842.084 262.994C835.04 264.226 838.344 263.673 832.129 264.599C827.156 265.34 828.773 267.826 830.204 268.976C840.809 273.821 850.024 267.933 853.305 264.384C837.595 253.536 830.661 259.293 829.158 263.526Z" fill="#85AE59"/>
<path d="M675.891 121.452C681.993 127.06 685.141 124.55 685.952 122.595C686.248 117.522 681.662 109.731 679.331 106.47C682.844 108.211 687.354 116.491 689.17 120.412C691.709 105.574 675.394 96.8022 666.918 94.2719C667.367 100.996 669.788 115.845 675.891 121.452Z" fill="#BDD2A6"/>
<path d="M735.045 112.29C720.338 109.494 713.408 118.579 711.781 123.471C716.824 120.061 726.803 117.485 731.162 116.624C723.99 119.577 716.214 125.246 713.223 127.711C728.689 137.05 740.99 122.176 745.207 113.572L735.045 112.29Z" fill="#85AE59"/>
<path d="M799.893 89.4977C800.993 123.489 780.119 139.366 769.544 143.056C778.151 131.459 786.605 108.458 789.755 98.4061C781.413 114.923 767.296 132.799 761.28 139.672C746.967 103.846 781.443 75.6445 800.47 66.0219L799.893 89.4977Z" fill="#85AE59"/>
<path d="M963.74 173.579C937.242 154.195 911.903 161.042 902.545 166.889C917.03 166.824 940.534 173.103 950.475 176.251C932.22 173.431 909.38 174.162 900.24 174.881C920.196 205.092 963.629 194.864 982.85 185.974L963.74 173.579Z" fill="#BDD2A6"/>
<path d="M734.122 77.1306C721.888 71.2722 710.705 79.3153 706.644 84.0691C706.75 86.6207 708.908 85.454 709.974 84.5516C714.133 80.2228 721.234 78.962 724.265 78.8726C715.969 81.0525 711.03 86.3483 709.596 88.7238C706.451 97.074 726.461 91.8715 734.122 77.1306Z" fill="#BDD2A6"/>
<path d="M692.885 47.8901C692.737 60.6421 696.791 62.5247 698.836 61.872C702.461 55.8177 701.384 47.0953 700.392 43.4909C704.631 51.489 702.868 59.5094 701.457 62.5199C714.47 54.8944 704.266 39.5832 699.624 29.7477C697.439 30.4819 693.033 35.1383 692.885 47.8901Z" fill="#85AE59"/>
<path d="M732.467 42.2888C737.952 42.5171 743.26 35.7144 745.229 32.2845C737.515 36.8454 741.113 34.6829 734.436 38.8589C729.095 42.1997 728.633 38.5316 729.07 36.28C735.281 23.0737 748.821 21.1562 754.815 21.8483C748.574 44.8865 737.317 45.0745 732.467 42.2888Z" fill="#85AE59"/>
<path d="M565.561 175.897C573.813 181.279 574.381 191.594 573.634 196.079C541.343 198.321 549.416 192.491 541.791 179.933C534.167 167.376 540.446 142.709 552.555 135.533C562.242 129.792 558.984 123.275 556.143 120.733C550.911 116.996 541.163 106.83 544.034 96.0658C546.904 85.3023 535.364 71.8476 529.234 66.4657C484.385 33.8157 455.233 23.5603 446.263 22.5138C449.702 22.5138 458.283 22.9623 465.1 24.7562C473.621 26.9987 514.882 48.9747 529.234 56.599C543.585 64.2233 550.761 68.7082 556.143 85.3023C561.525 101.896 555.246 93.8234 569.149 109.521C583.052 125.218 573.634 144.054 565.561 148.988C557.488 153.921 555.246 169.17 565.561 175.897Z" fill="white"/>
<path d="M847.952 220.504C853.43 215.015 856.543 216.914 857.414 218.549C857.963 222.963 854.036 230.221 852.003 233.297C855.235 231.44 859.064 223.762 860.576 220.155C863.765 232.909 848.789 242.135 840.901 245.154C840.969 239.224 842.474 225.991 847.952 220.504Z" fill="#BDD2A6"/>
<path d="M946.346 228.952C943.779 234.506 946.051 236.282 947.507 236.476C950.94 235.669 955.25 230.774 956.976 228.428C956.488 231.324 951.838 236.263 949.574 238.37C959.937 237.219 962.659 223.624 962.725 216.97C958.335 218.65 948.913 223.399 946.346 228.952Z" fill="#BDD2A6"/>
<path d="M921.747 222.582C916.104 234.594 905.941 235.138 901.565 233.908C906.652 231.937 913.706 225.988 916.598 223.259C910.733 226.993 902.594 229.83 899.257 230.78C900.575 215.002 917.711 213.42 926.114 214.602L921.747 222.582Z" fill="#85AE59"/>
<path d="M896.474 192.113C894.352 205.025 882.322 209.481 876.572 210.093C874.707 208.61 876.738 207.539 877.987 207.189C883.468 206.265 888.211 201.327 889.897 198.973C883.825 204.354 877.198 205.366 874.642 205.2C866.673 203.115 881.279 190.102 896.474 192.113Z" fill="#BDD2A6"/>
<path d="M893.433 257.265C886.579 249.187 888.092 245.803 889.705 245.12C895.162 247.043 899.12 253.202 900.417 256.04C898.801 248.645 893.456 244.463 890.986 243.297C903.091 241.175 904.889 256.456 907.229 265.244C905.486 265.95 900.287 265.341 893.433 257.265Z" fill="#85AE59"/>
<path d="M946.352 245.811C950.284 247.163 952.296 253.155 952.811 255.983C948.527 250.826 950.517 253.255 946.868 248.639C943.948 244.946 942.685 247.266 942.419 248.888C943.434 259.398 952.507 264.39 956.917 265.571C958.391 248.495 950.488 245.283 946.352 245.811Z" fill="#85AE59"/>
<path d="M844.324 172.478C836.926 171.375 833.419 164.534 832.59 161.251C854.514 149.711 850.622 156.181 859.743 162.36C868.866 168.538 871.908 187.267 865.596 195.905C860.547 202.815 864.792 206.239 867.547 207.087C872.336 208.007 882.222 211.9 883.458 220.113C884.695 228.326 896.829 233.9 902.741 235.661C943.973 243.964 967.469 241.9 974.061 239.83C971.655 240.897 965.514 243.253 960.202 244.146C953.562 245.264 918.059 243.109 905.715 242.374C893.373 241.637 886.998 240.812 878.228 231.191C869.459 221.571 876.287 225.116 861.824 218.748C847.361 212.382 848.275 196.645 852.437 190.785C856.599 184.925 853.572 173.855 844.324 172.478Z" fill="white"/>
<path d="M321.677 260.613C321.226 254.599 318.3 254.376 316.894 255.017C314.208 257.575 312.765 264.001 312.379 266.895C311.378 264.226 313.106 257.576 314.094 254.585C305.347 261.238 309.655 274 312.903 279.55C316.017 275.743 322.129 266.626 321.677 260.613Z" fill="#BDD2A6"/>
<path d="M281.303 196.357C290.255 182.608 285.652 177.51 282.231 176.679C273.542 177.987 260.709 189.641 255.379 195.305C257.994 187.94 271.67 176.25 278.18 171.327C252.592 171.948 239.277 206.411 235.819 223.565C247.25 220.224 272.352 210.105 281.303 196.357Z" fill="#85AE59"/>
<path d="M211.22 302.694C214.805 307.905 212.982 310.418 211.622 311.023C208.161 311.102 203.035 307.068 200.905 305.042C201.958 307.993 207.419 311.979 210.018 313.604C199.834 315.214 194.478 301.483 193.074 294.417C197.629 295.004 207.635 297.482 211.22 302.694Z" fill="#BDD2A6"/>
<path d="M233.786 283.611C241.627 294.858 251.497 292.657 255.452 290.15C250.169 289.444 242.194 285.039 238.868 282.924C245.254 285.296 253.643 286.089 257.039 286.189C252.592 269.749 235.815 272.752 227.983 276.308L233.786 283.611Z" fill="#85AE59"/>
<path d="M259.859 240.244C264.499 253.413 276.951 254.865 282.598 253.946C284.09 251.856 281.923 251.271 280.653 251.239C275.202 251.755 269.652 247.794 267.558 245.749C274.475 249.818 281.044 249.083 283.464 248.207C290.698 243.806 274.047 233.947 259.859 240.244Z" fill="#BDD2A6"/>
<path d="M290.928 304.371C290.137 293.143 286.839 291.884 285.289 292.658C282.891 298.336 284.352 305.901 285.383 308.974C281.506 302.355 282.311 295.13 283.198 292.344C273.585 300.322 282.638 312.788 286.961 320.984C288.613 320.125 291.72 315.6 290.928 304.371Z" fill="#85AE59"/>
<path d="M211.757 318.03C208.711 321.22 209.162 328.121 209.768 331.174C211.69 324.036 210.81 327.385 212.363 321.083C213.605 316.041 215.628 317.754 216.484 319.24C219.551 330.166 213.231 339.387 209.688 342.634C201.878 326.352 207.813 319.448 211.757 318.03Z" fill="#85AE59"/>
<path d="M321.181 188.113C329.21 184.266 331.57 174.432 331.747 169.996C304.567 162.627 310.404 169.54 301.608 180.393C292.812 191.246 293.693 215.995 302.733 224.854C309.966 231.941 305.997 237.687 303.108 239.674C297.959 242.426 287.784 250.635 288.279 261.455C288.775 272.276 276.47 283.36 270.255 287.549C226.005 311.729 199.235 316.893 191.382 316.453C194.319 317.007 201.732 317.96 207.882 317.334C215.569 316.552 254.815 302.064 268.462 297.044C282.109 292.023 289.054 288.866 296.669 273.767C304.282 258.668 297.451 265.423 312.182 252.562C326.913 239.701 322.291 220.056 316.29 214.006C310.29 207.956 311.146 192.922 321.181 188.113Z" fill="white"/>
<path d="M647.895 239.756C636.779 215.826 625.051 218.832 620.576 223.326C622.274 212.662 628.656 193.442 640.592 201.859C652.529 210.276 664.007 228.485 663.708 234.153C663.451 239.001 666.257 248.966 680.986 253.656C699.398 259.52 720.951 259.27 733.278 282.634C745.994 308.508 761.628 310.765 767.856 308.659C762.316 312.16 747.886 314.343 734.483 295.061C717.727 270.96 706.489 270.246 698.778 270.246C691.066 270.246 661.79 269.67 647.895 239.756Z" fill="white"/>
<path d="M656.465 273.689C659.16 264.477 663.693 264.767 665.622 266.064C668.86 270.606 668.914 280.868 668.536 285.431C670.952 281.516 670.54 270.847 670.032 266.003C681.14 278.199 670.314 297.022 663.513 304.908C660.04 298.341 653.769 282.901 656.465 273.689Z" fill="#BDD2A6"/>
<path d="M701.254 241.923C687.205 249.527 673.913 241.244 669.022 236.152C669.06 233.243 671.613 234.403 672.884 235.347C677.873 239.948 686.184 240.835 689.717 240.703C679.984 238.863 674.053 233.223 672.304 230.632C668.36 221.381 691.838 225.753 701.254 241.923Z" fill="#BDD2A6"/>
<path d="M706.197 293.254C704.797 279.919 708.937 277.674 711.181 278.219C715.635 284.308 715.336 293.51 714.63 297.348C718.37 288.691 715.71 280.418 713.913 277.363C728.53 284.46 719.14 301.174 715.148 311.782C712.747 311.162 707.596 306.587 706.197 293.254Z" fill="#85AE59"/>
<path d="M737.859 267.742C743.213 264.047 752.631 267.079 756.67 269.058C746.195 269.662 751.102 269.413 741.898 269.721C734.535 269.967 736.283 273.712 738.078 275.554C752.259 284.041 766.975 277.252 772.561 272.797C752.424 255.074 741.036 262.043 737.859 267.742Z" fill="#85AE59"/>
<path d="M291.361 124.49C298.936 131.317 297.673 144.118 296.096 149.665C292.308 164.684 284.474 155.923 281.03 149.665C283.756 149.665 287.573 145.91 281.03 130.891C274.487 115.872 273.617 113.823 275.003 105.289C296.096 61.3417 256.351 34.4609 235.402 22.5138C288.089 46.408 293.226 82.5336 289.209 97.6095C286.769 103.725 283.785 117.663 291.361 124.49Z" fill="white"/>
<path d="M849.523 73.5103C852.738 78.0462 855.166 77.0597 855.978 75.9994C856.895 72.9283 854.987 67.3171 853.918 64.8954C855.981 66.591 857.769 72.4896 858.405 75.227C862.187 66.5403 852.705 58.2439 847.491 55.1816C846.829 59.4013 846.308 68.9746 849.523 73.5103Z" fill="#BDD2A6"/>
<path d="M814.089 109.238C812.881 113.961 814.918 115.024 816.087 114.965C818.661 113.836 821.33 109.377 822.343 107.289C822.38 109.63 819.449 114.171 817.98 116.15C825.934 113.751 826.102 102.703 825.192 97.4803C821.994 99.4313 815.298 104.514 814.089 109.238Z" fill="#85AE59"/>
<path d="M859.565 16.0472C868.771 22.916 867.384 34.0918 865.54 38.8211C863.63 39.6754 863.616 37.6595 863.847 36.5448C865.341 31.8991 863.408 26.2086 862.255 23.944C863.996 30.8497 862.108 36.4241 860.946 38.348C856.102 43.7172 851.86 27.0775 859.565 16.0472Z" fill="#BDD2A6"/>
<path d="M856.275 127.064C846.897 125.618 845.936 122.44 846.628 121.03C851.449 119.132 857.741 120.978 860.284 122.139C854.852 118.081 848.781 118.385 846.424 119.045C853.374 110.508 863.556 119.797 870.295 124.373C869.529 125.873 865.653 128.511 856.275 127.064Z" fill="#85AE59"/>
<path d="M865.633 74.1806C867.302 69.8103 874.118 67.774 877.318 67.3021C871.356 71.9248 874.163 69.7792 868.832 73.7087C864.569 76.8522 867.13 78.3605 868.944 78.7217C880.803 77.9784 886.761 67.9629 888.258 63.0482C869.108 60.7426 865.196 69.5091 865.633 74.1806Z" fill="#85AE59"/>
<path d="M806.686 144.376C805.06 154.444 793.621 160.326 788.105 162.009C773.432 166.973 776.543 155.639 779.933 149.352C781.412 151.642 786.637 152.811 795.705 139.168C804.775 125.525 806.024 123.684 813.944 120.22C862.307 114.102 863.332 66.131 862.006 42.0514C870.51 99.2753 842.946 123.186 828.101 127.988C821.641 129.256 808.312 134.309 806.686 144.376Z" fill="white"/>
<path d="M694.653 111.763C694.653 137.775 661.465 152.875 639.938 164.685C639.938 177.242 666.847 168.721 679.405 162.442C699.138 152.576 712.145 131.048 709.902 115.799C706.992 96.0103 704.52 85.7508 705.417 82.6114C710.427 63.397 727.225 49.0548 738.086 37.5804C739.105 36.5523 739.876 35.7061 740.399 35.0715C739.666 35.8926 738.892 36.7286 738.086 37.5804C733.585 42.124 724.238 50.2199 709.902 59.2899C687.926 73.1931 694.653 87.0597 694.653 111.763Z" fill="white"/>
</svg>
